<svg width="30" height="24" viewBox="0 0 30 24" fill="none" xmlns="http://www.w3.org/2000/svg">
<path opacity="0.5" d="M11.668 23.3333H17.5013C23.0007 23.3333 25.7511 23.3333 27.4588 21.6242C29.168 19.9165 29.168 17.166 29.168 11.6667C29.168 11.0221 29.165 9.32167 29.1621 8.75H0.0012963C-0.00162037 9.32167 0.0012963 11.0221 0.0012963 11.6667C0.0012963 17.166 0.00129638 19.9165 1.709 21.6242C3.41817 23.3333 6.17005 23.3333 11.668 23.3333Z" fill="#4D44B5"/>
<path d="M11.6613 0H17.5092C23.0232 0 25.7809 1.73847e-07 27.493 1.6275C28.7267 2.79854 29.0724 4.48583 29.1686 7.29167V8.75H0.00195312V7.29167C0.0982031 4.48438 0.443828 2.8 1.67758 1.6275C3.38966 1.73847e-07 6.14737 0 11.6613 0ZM15.3145 16.4062C15.0244 16.4062 14.7462 16.5215 14.5411 16.7266C14.3359 16.9317 14.2207 17.2099 14.2207 17.5C14.2207 17.7901 14.3359 18.0683 14.5411 18.2734C14.7462 18.4785 15.0244 18.5938 15.3145 18.5938H17.502C17.792 18.5938 18.0702 18.4785 18.2753 18.2734C18.4805 18.0683 18.5957 17.7901 18.5957 17.5C18.5957 17.2099 18.4805 16.9317 18.2753 16.7266C18.0702 16.5215 17.792 16.4062 17.502 16.4062H15.3145ZM5.83529 16.4062C5.54521 16.4062 5.26701 16.5215 5.06189 16.7266C4.85677 16.9317 4.74154 17.2099 4.74154 17.5C4.74154 17.7901 4.85677 18.0683 5.06189 18.2734C5.26701 18.4785 5.54521 18.5938 5.83529 18.5938H11.6686C11.9587 18.5938 12.2369 18.4785 12.442 18.2734C12.6471 18.0683 12.7624 17.7901 12.7624 17.5C12.7624 17.2099 12.6471 16.9317 12.442 16.7266C12.2369 16.5215 11.9587 16.4062 11.6686 16.4062H5.83529Z" fill="#4D44B5"/>
</svg>
