<svg width="182" height="72" viewBox="0 0 182 72" fill="none" xmlns="http://www.w3.org/2000/svg">
<path d="M106.509 33.1C107.989 33.1 109.282 33.3867 110.389 33.96C111.509 34.52 112.369 35.3333 112.969 36.4C113.582 37.4533 113.889 38.6867 113.889 40.1C113.889 41.5133 113.582 42.74 112.969 43.78C112.369 44.82 111.509 45.62 110.389 46.18C109.282 46.7267 107.989 47 106.509 47H101.969V33.1H106.509ZM106.509 45.14C108.135 45.14 109.382 44.7 110.249 43.82C111.115 42.94 111.549 41.7 111.549 40.1C111.549 38.4867 111.115 37.2267 110.249 36.32C109.382 35.4133 108.135 34.96 106.509 34.96H104.249V45.14H106.509ZM126.248 41.22C126.248 41.6333 126.222 42.0067 126.168 42.34H117.748C117.815 43.22 118.142 43.9267 118.728 44.46C119.315 44.9933 120.035 45.26 120.888 45.26C122.115 45.26 122.982 44.7467 123.488 43.72H125.948C125.615 44.7333 125.008 45.5667 124.128 46.22C123.262 46.86 122.182 47.18 120.888 47.18C119.835 47.18 118.888 46.9467 118.048 46.48C117.222 46 116.568 45.3333 116.088 44.48C115.622 43.6133 115.388 42.6133 115.388 41.48C115.388 40.3467 115.615 39.3533 116.068 38.5C116.535 37.6333 117.182 36.9667 118.008 36.5C118.848 36.0333 119.808 35.8 120.888 35.8C121.928 35.8 122.855 36.0267 123.668 36.48C124.482 36.9333 125.115 37.5733 125.568 38.4C126.022 39.2133 126.248 40.1533 126.248 41.22ZM123.868 40.5C123.855 39.66 123.555 38.9867 122.968 38.48C122.382 37.9733 121.655 37.72 120.788 37.72C120.002 37.72 119.328 37.9733 118.768 38.48C118.208 38.9733 117.875 39.6467 117.768 40.5H123.868ZM130.772 32.2V47H128.492V32.2H130.772ZM134.926 34.52C134.512 34.52 134.166 34.38 133.886 34.1C133.606 33.82 133.466 33.4733 133.466 33.06C133.466 32.6467 133.606 32.3 133.886 32.02C134.166 31.74 134.512 31.6 134.926 31.6C135.326 31.6 135.666 31.74 135.946 32.02C136.226 32.3 136.366 32.6467 136.366 33.06C136.366 33.4733 136.226 33.82 135.946 34.1C135.666 34.38 135.326 34.52 134.926 34.52ZM136.046 35.98V47H133.766V35.98H136.046ZM143.299 44.96L146.419 35.98H148.839L144.639 47H141.919L137.739 35.98H140.179L143.299 44.96ZM160.663 41.22C160.663 41.6333 160.636 42.0067 160.583 42.34H152.163C152.229 43.22 152.556 43.9267 153.143 44.46C153.729 44.9933 154.449 45.26 155.303 45.26C156.529 45.26 157.396 44.7467 157.903 43.72H160.362C160.029 44.7333 159.423 45.5667 158.543 46.22C157.676 46.86 156.596 47.18 155.303 47.18C154.249 47.18 153.303 46.9467 152.463 46.48C151.636 46 150.983 45.3333 150.503 44.48C150.036 43.6133 149.803 42.6133 149.803 41.48C149.803 40.3467 150.029 39.3533 150.483 38.5C150.949 37.6333 151.596 36.9667 152.423 36.5C153.263 36.0333 154.223 35.8 155.303 35.8C156.343 35.8 157.269 36.0267 158.083 36.48C158.896 36.9333 159.529 37.5733 159.983 38.4C160.436 39.2133 160.663 40.1533 160.663 41.22ZM158.283 40.5C158.269 39.66 157.969 38.9867 157.383 38.48C156.796 37.9733 156.069 37.72 155.203 37.72C154.416 37.72 153.743 37.9733 153.183 38.48C152.623 38.9733 152.289 39.6467 152.183 40.5H158.283ZM165.186 37.58C165.52 37.02 165.96 36.5867 166.506 36.28C167.066 35.96 167.726 35.8 168.486 35.8V38.16H167.906C167.013 38.16 166.333 38.3867 165.866 38.84C165.413 39.2933 165.186 40.08 165.186 41.2V47H162.906V35.98H165.186V37.58ZM180.502 35.98L173.742 52.18H171.382L173.622 46.82L169.282 35.98H171.822L174.922 44.38L178.142 35.98H180.502Z" fill="#303972"/>
<rect width="72" height="72" rx="36" fill="#F0F5FB"/>
<path d="M23.4286 33.1431H38.0004V35.5717H23.4286V33.1431ZM21 27.0715H33.1431V29.5002H21V27.0715Z" fill="#699BF7"/>
<path d="M54.9007 33.879L51.2578 25.3788C51.1643 25.1603 51.0087 24.9741 50.8103 24.8433C50.6119 24.7125 50.3795 24.6428 50.1418 24.6429H46.4989V22.2143C46.4989 21.8923 46.371 21.5834 46.1432 21.3557C45.9155 21.1279 45.6066 21 45.2846 21H25.8556V23.4286H44.0703V38.6755C43.5169 38.9968 43.0327 39.4245 42.6455 39.9339C42.2582 40.4432 41.9757 41.0242 41.8141 41.6433H34.1833C33.8878 40.4986 33.1849 39.5011 32.2064 38.8375C31.2279 38.174 30.0411 37.8901 28.8683 38.0391C27.6955 38.1881 26.6173 38.7597 25.8357 39.6467C25.0542 40.5338 24.623 41.6754 24.623 42.8576C24.623 44.0399 25.0542 45.1815 25.8357 46.0686C26.6173 46.9556 27.6955 47.5272 28.8683 47.6762C30.0411 47.8251 31.2279 47.5413 32.2064 46.8778C33.1849 46.2142 33.8878 45.2166 34.1833 44.072H41.8141C42.0782 45.1141 42.6823 46.0385 43.5308 46.6987C44.3793 47.359 45.4238 47.7175 46.4989 47.7175C47.574 47.7175 48.6184 47.359 49.4669 46.6987C50.3154 46.0385 50.9195 45.1141 51.1837 44.072H53.7848C54.1068 44.072 54.4157 43.944 54.6434 43.7163C54.8711 43.4886 54.9991 43.1797 54.9991 42.8576V34.3574C54.9991 34.1929 54.9657 34.0302 54.9007 33.879ZM29.4985 45.2863C29.0182 45.2863 28.5486 45.1438 28.1492 44.877C27.7498 44.6101 27.4386 44.2308 27.2547 43.787C27.0709 43.3433 27.0228 42.8549 27.1165 42.3838C27.2102 41.9127 27.4415 41.48 27.7812 41.1403C28.1208 40.8007 28.5536 40.5694 29.0247 40.4757C29.4958 40.382 29.9841 40.4301 30.4279 40.6139C30.8717 40.7977 31.251 41.109 31.5178 41.5084C31.7847 41.9078 31.9271 42.3773 31.9271 42.8576C31.9265 43.5016 31.6704 44.1189 31.2151 44.5742C30.7598 45.0295 30.1424 45.2856 29.4985 45.2863ZM46.4989 27.0716H49.3404L51.9439 33.1431H46.4989V27.0716ZM46.4989 45.2863C46.0185 45.2863 45.549 45.1438 45.1496 44.877C44.7502 44.6101 44.4389 44.2308 44.2551 43.787C44.0713 43.3433 44.0232 42.8549 44.1169 42.3838C44.2106 41.9127 44.4419 41.48 44.7816 41.1403C45.1212 40.8007 45.554 40.5694 46.0251 40.4757C46.4962 40.382 46.9845 40.4301 47.4283 40.6139C47.8721 40.7977 48.2514 41.109 48.5182 41.5084C48.7851 41.9078 48.9275 42.3773 48.9275 42.8576C48.9269 43.5016 48.6708 44.1189 48.2155 44.5742C47.7602 45.0295 47.1428 45.2856 46.4989 45.2863ZM52.5705 41.6433H51.1837C50.9162 40.6032 50.3111 39.6812 49.4633 39.0219C48.6155 38.3627 47.5729 38.0034 46.4989 38.0004V35.5718H52.5705V41.6433Z" fill="#699BF7"/>
</svg>
