<svg width="28" height="28" viewBox="0 0 28 28" fill="none" xmlns="http://www.w3.org/2000/svg">
<path fill-rule="evenodd" clip-rule="evenodd" d="M27.1276 6.75521C27.1276 8.3023 26.513 9.78604 25.4191 10.88C24.3251 11.974 22.8414 12.5885 21.2943 12.5885C19.7472 12.5885 18.2634 11.974 17.1695 10.88C16.0755 9.78604 15.4609 8.3023 15.4609 6.75521C15.4609 5.20811 16.0755 3.72438 17.1695 2.63042C18.2634 1.53646 19.7472 0.921875 21.2943 0.921875C22.8414 0.921875 24.3251 1.53646 25.4191 2.63042C26.513 3.72438 27.1276 5.20811 27.1276 6.75521ZM24.4166 7.47344C24.3731 7.66174 24.2568 7.8251 24.093 7.92764C23.9292 8.03019 23.7314 8.06352 23.543 8.02031L18.7189 6.91198C18.5303 6.86866 18.3667 6.75221 18.264 6.58826C18.1613 6.4243 18.1279 6.22626 18.1713 6.03771C18.2146 5.84916 18.331 5.68553 18.495 5.58284C18.6589 5.48014 18.857 5.44679 19.0455 5.4901L23.8697 6.59917C23.963 6.62066 24.0512 6.66033 24.1292 6.7159C24.2071 6.77147 24.2734 6.84185 24.3242 6.92304C24.375 7.00422 24.4093 7.09461 24.4251 7.18905C24.441 7.28349 24.4381 7.38012 24.4166 7.47344Z" fill="#B5B5C3"/>
<path d="M8.73471 3.28779C8.26294 2.17071 6.68356 2.05842 6.04992 3.09602L1.08867 11.2138C0.516271 12.1501 1.15575 13.3459 2.2721 13.4254L10.9244 14.0423C12.04 14.1225 12.8523 13.0302 12.4265 12.0225L8.73471 3.28779Z" fill="#B5B5C3"/>
<path fill-rule="evenodd" clip-rule="evenodd" d="M22.3027 23.0592C23.3544 22.5689 24.1683 21.6808 24.5653 20.5904C24.9622 19.5 24.9098 18.2966 24.4195 17.2448C24.1767 16.7241 23.8337 16.2562 23.4101 15.868C22.9865 15.4798 22.4906 15.1788 21.9507 14.9822C20.8603 14.5853 19.6568 14.6377 18.6051 15.1281L10.6747 18.8264C10.154 19.0692 9.68615 19.4122 9.29798 19.8357C8.90981 20.2593 8.60888 20.7552 8.41235 21.2951C8.21582 21.835 8.12756 22.4083 8.15259 22.9822C8.17763 23.5562 8.31548 24.1197 8.55827 24.6404C8.80105 25.1611 9.14403 25.6289 9.56761 26.0171C9.99118 26.4053 10.4871 26.7062 11.0269 26.9027C11.5668 27.0992 12.1401 27.1875 12.7141 27.1625C13.2881 27.1374 13.8516 26.9996 14.3723 26.7568L22.3027 23.0585V23.0592ZM18.3346 23.2998L21.6865 21.7372C22.3798 21.4055 22.9141 20.8136 23.1733 20.0901C23.4325 19.3666 23.3958 18.5701 23.0709 17.8735C22.7461 17.177 22.1595 16.6369 21.4387 16.3705C20.7178 16.104 19.9209 16.1329 19.2212 16.4508L15.8693 18.0134L18.3338 23.2998H18.3346Z" fill="#B5B5C3"/>
</svg>
