<svg width="40" height="40" viewBox="0 0 40 40" fill="none" xmlns="http://www.w3.org/2000/svg">
<g clip-path="url(#clip0_2469_4352)">
<path d="M26.668 18.3333V11.6667C26.668 9.89856 25.9656 8.20286 24.7153 6.95262C23.4651 5.70238 21.7694 5 20.0013 5C18.2332 5 16.5375 5.70238 15.2873 6.95262C14.037 8.20286 13.3346 9.89856 13.3346 11.6667V18.3333H26.668ZM8.33464 15H31.668L33.3346 35H6.66797L8.33464 15Z" stroke="#4D44B5" stroke-opacity="0.8" stroke-width="2.5" stroke-linecap="round" stroke-linejoin="round"/>
<path d="M27.6343 8.73914C26.545 8.29179 26.4607 8.09957 26.4607 7.87675C26.4607 7.73444 26.5314 7.40359 27.1857 7.40359C27.7842 7.40359 28.53 7.73957 29.056 8.08581L29.7877 6.16786C29.2653 5.8353 28.6304 5.54957 28.0369 5.4582V4.21094H26.0859V5.57957C24.9269 5.94487 24.2128 6.87136 24.2128 8.0247C24.2128 9.55222 25.4348 10.2342 26.6285 10.6991C27.5822 11.0827 27.6621 11.3764 27.6621 11.6216C27.6621 11.9988 27.3145 12.2425 26.7765 12.2425C26.0751 12.2425 25.2594 11.8379 24.6884 11.3951L23.9844 13.3438C24.5666 13.7953 25.2406 14.0932 25.999 14.2044V15.4968H27.9621V14.09C29.1573 13.7094 29.9222 12.7192 29.9222 11.5353C29.9222 9.87803 28.6996 9.17051 27.6343 8.73914Z" fill="#C1BBEB"/>
</g>
<defs>
<clipPath id="clip0_2469_4352">
<rect width="40" height="40" fill="white"/>
</clipPath>
</defs>
</svg>
