<svg width="30" height="30" viewBox="0 0 30 30" fill="none" xmlns="http://www.w3.org/2000/svg">
<path d="M16.1147 0.490908C15.9742 0.336288 15.8029 0.212747 15.6118 0.128208C15.4207 0.0436698 15.214 0 15.0051 0C14.7961 0 14.5895 0.0436698 14.3984 0.128208C14.2073 0.212747 14.036 0.336288 13.8955 0.490908L0.400078 15.4854C0.201077 15.6999 0.0692071 15.968 0.0207236 16.2566C-0.0277599 16.5452 0.00926209 16.8417 0.127226 17.1095C0.24519 17.3773 0.438939 17.6047 0.684593 17.7637C0.930246 17.9228 1.21707 18.0064 1.5097 18.0044H4.50867V28.5006C4.50867 28.8982 4.66665 29.2796 4.94786 29.5608C5.22907 29.842 5.61047 30 6.00816 30H24.002C24.3997 30 24.7811 29.842 25.0623 29.5608C25.3435 29.2796 25.5015 28.8982 25.5015 28.5006V18.0044H28.5005C28.8982 18.0044 29.2796 17.8465 29.5608 17.5653C29.842 17.2841 30 16.9027 30 16.505C30.0027 16.1282 29.8635 15.7642 29.6101 15.4854L16.1147 0.490908Z" fill="black"/>
</svg>
