<svg width="33" height="28" viewBox="0 0 33 28" fill="none" xmlns="http://www.w3.org/2000/svg">
<path d="M16.5 0C15.8815 -9.12647e-09 15.2691 0.120634 14.6977 0.355015C14.1263 0.589396 13.6072 0.932933 13.1698 1.36601C12.7325 1.79909 12.3856 2.31323 12.1489 2.87908C11.9122 3.44492 11.7904 4.05139 11.7904 4.66386C11.7904 5.27633 11.9122 5.8828 12.1489 6.44864C12.3856 7.01449 12.7325 7.52863 13.1698 7.96171C13.6072 8.39479 14.1263 8.73833 14.6977 8.97271C15.2691 9.20709 15.8815 9.32772 16.5 9.32772C17.7491 9.32772 18.947 8.83635 19.8302 7.96171C20.7134 7.08706 21.2096 5.90079 21.2096 4.66386C21.2096 3.42693 20.7134 2.24066 19.8302 1.36601C18.947 0.491369 17.7491 0 16.5 0ZM27.1071 2.3296C26.1694 2.3296 25.2701 2.69849 24.607 3.35513C23.9439 4.01177 23.5714 4.90236 23.5714 5.83099C23.5714 6.75962 23.9439 7.65022 24.607 8.30685C25.2701 8.96349 26.1694 9.33239 27.1071 9.33239C28.0449 9.33239 28.9442 8.96349 29.6073 8.30685C30.2703 7.65022 30.6429 6.75962 30.6429 5.83099C30.6429 4.90236 30.2703 4.01177 29.6073 3.35513C28.9442 2.69849 28.0449 2.3296 27.1071 2.3296ZM5.89286 2.3296C4.95513 2.3296 4.05581 2.69849 3.39273 3.35513C2.72966 4.01177 2.35714 4.90236 2.35714 5.83099C2.35714 6.75962 2.72966 7.65022 3.39273 8.30685C4.05581 8.96349 4.95513 9.33239 5.89286 9.33239C6.83059 9.33239 7.72991 8.96349 8.39299 8.30685C9.05606 7.65022 9.42857 6.75962 9.42857 5.83099C9.42857 4.90236 9.05606 4.01177 8.39299 3.35513C7.72991 2.69849 6.83059 2.3296 5.89286 2.3296ZM9.42857 13.9846C9.43293 13.3683 9.68319 12.7788 10.1248 12.3446C10.5663 11.9103 11.1634 11.6666 11.7857 11.6667H21.2143C21.8394 11.6667 22.439 11.9126 22.881 12.3503C23.3231 12.7881 23.5714 13.3818 23.5714 14.0009V21.0037C23.5713 21.7384 23.4552 22.4685 23.2273 23.1676C22.7054 24.7518 21.6302 26.1 20.1949 26.9699C18.7595 27.8397 17.0581 28.1744 15.396 27.9138C13.7339 27.6531 12.2201 26.8143 11.1264 25.5478C10.0327 24.2813 9.4307 22.6702 9.42857 21.0037V13.9846ZM7.07143 14.0009C7.07143 13.1489 7.30007 12.3529 7.70314 11.6667H2.35714C1.73199 11.6667 1.13244 11.9126 0.690391 12.3503C0.248341 12.7881 3.2626e-07 13.3818 3.2626e-07 14.0009V19.8366C-0.000320684 20.792 0.236247 21.7329 0.688929 22.5766C1.14161 23.4204 1.79656 24.1411 2.59626 24.6756C3.39595 25.2101 4.31594 25.542 5.27542 25.6421C6.2349 25.7422 7.20452 25.6075 8.09914 25.2497C7.42071 23.9346 7.06841 22.4782 7.07143 21.0014V14.0009ZM25.9286 14.0009V21.0037C25.9286 22.5327 25.5585 23.9752 24.9009 25.2497C25.7955 25.6075 26.7651 25.7422 27.7246 25.6421C28.6841 25.542 29.604 25.2101 30.4037 24.6756C31.2034 24.1411 31.8584 23.4204 32.3111 22.5766C32.7638 21.7329 33.0003 20.792 33 19.8366V14.0009C33 13.3818 32.7517 12.7881 32.3096 12.3503C31.8676 11.9126 31.268 11.6667 30.6429 11.6667H25.2969C25.6976 12.3529 25.9286 13.1489 25.9286 14.0009Z" fill="#4D44B5" fill-opacity="0.8"/>
</svg>
