<svg width="147" height="72" viewBox="0 0 147 72" fill="none" xmlns="http://www.w3.org/2000/svg">
<path d="M114.069 29.1V43H111.789V36.92H105.249V43H102.969V29.1H105.249V35.06H111.789V29.1H114.069ZM124.29 43L121.09 37.44H119.35V43H117.07V29.1H121.87C122.937 29.1 123.837 29.2867 124.57 29.66C125.317 30.0333 125.87 30.5333 126.23 31.16C126.604 31.7867 126.79 32.4867 126.79 33.26C126.79 34.1667 126.524 34.9933 125.99 35.74C125.47 36.4733 124.664 36.9733 123.57 37.24L127.01 43H124.29ZM119.35 35.62H121.87C122.724 35.62 123.364 35.4067 123.79 34.98C124.23 34.5533 124.45 33.98 124.45 33.26C124.45 32.54 124.237 31.98 123.81 31.58C123.384 31.1667 122.737 30.96 121.87 30.96H119.35V35.62ZM144.347 29.1V43H142.067V33.48L137.827 43H136.247L131.987 33.48V43H129.707V29.1H132.167L137.047 40L141.907 29.1H144.347Z" fill="#303972"/>
<rect width="72" height="72" rx="36" fill="#F0F5FB"/>
<g clip-path="url(#clip0_2465_2653)">
<path d="M35.5 21C34.8815 21 34.2691 21.1206 33.6977 21.355C33.1263 21.5894 32.6072 21.9329 32.1698 22.366C31.7325 22.7991 31.3856 23.3132 31.1489 23.8791C30.9122 24.4449 30.7904 25.0514 30.7904 25.6639C30.7904 26.2763 30.9122 26.8828 31.1489 27.4486C31.3856 28.0145 31.7325 28.5286 32.1698 28.9617C32.6072 29.3948 33.1263 29.7383 33.6977 29.9727C34.2691 30.2071 34.8815 30.3277 35.5 30.3277C36.7491 30.3277 37.947 29.8364 38.8302 28.9617C39.7134 28.0871 40.2096 26.9008 40.2096 25.6639C40.2096 24.4269 39.7134 23.2407 38.8302 22.366C37.947 21.4914 36.7491 21 35.5 21ZM46.1071 23.3296C45.1694 23.3296 44.2701 23.6985 43.607 24.3551C42.9439 25.0118 42.5714 25.9024 42.5714 26.831C42.5714 27.7596 42.9439 28.6502 43.607 29.3069C44.2701 29.9635 45.1694 30.3324 46.1071 30.3324C47.0449 30.3324 47.9442 29.9635 48.6073 29.3069C49.2703 28.6502 49.6429 27.7596 49.6429 26.831C49.6429 25.9024 49.2703 25.0118 48.6073 24.3551C47.9442 23.6985 47.0449 23.3296 46.1071 23.3296ZM24.8929 23.3296C23.9551 23.3296 23.0558 23.6985 22.3927 24.3551C21.7297 25.0118 21.3571 25.9024 21.3571 26.831C21.3571 27.7596 21.7297 28.6502 22.3927 29.3069C23.0558 29.9635 23.9551 30.3324 24.8929 30.3324C25.8306 30.3324 26.7299 29.9635 27.393 29.3069C28.0561 28.6502 28.4286 27.7596 28.4286 26.831C28.4286 25.9024 28.0561 25.0118 27.393 24.3551C26.7299 23.6985 25.8306 23.3296 24.8929 23.3296ZM28.4286 34.9846C28.4329 34.3683 28.6832 33.7788 29.1248 33.3446C29.5663 32.9103 30.1634 32.6666 30.7857 32.6667H40.2143C40.8394 32.6667 41.439 32.9126 41.881 33.3503C42.3231 33.7881 42.5714 34.3818 42.5714 35.0009V42.0037C42.5713 42.7384 42.4552 43.4685 42.2273 44.1676C41.7054 45.7518 40.6302 47.1 39.1949 47.9699C37.7595 48.8397 36.0581 49.1744 34.396 48.9138C32.7339 48.6531 31.2201 47.8143 30.1264 46.5478C29.0327 45.2813 28.4307 43.6702 28.4286 42.0037V34.9846ZM26.0714 35.0009C26.0714 34.1489 26.3001 33.3529 26.7031 32.6667H21.3571C20.732 32.6667 20.1324 32.9126 19.6904 33.3503C19.2483 33.7881 19 34.3818 19 35.0009V40.8366C18.9997 41.792 19.2362 42.7329 19.6889 43.5766C20.1416 44.4204 20.7966 45.1411 21.5963 45.6756C22.396 46.2101 23.3159 46.542 24.2754 46.6421C25.2349 46.7422 26.2045 46.6075 27.0991 46.2497C26.4207 44.9346 26.0684 43.4782 26.0714 42.0014V35.0009ZM44.9286 35.0009V42.0037C44.9286 43.5327 44.5585 44.9752 43.9009 46.2497C44.7955 46.6075 45.7651 46.7422 46.7246 46.6421C47.6841 46.542 48.604 46.2101 49.4037 45.6756C50.2034 45.1411 50.8584 44.4204 51.3111 43.5766C51.7638 42.7329 52.0003 41.792 52 40.8366V35.0009C52 34.3818 51.7517 33.7881 51.3096 33.3503C50.8676 32.9126 50.268 32.6667 49.6429 32.6667H44.2969C44.6976 33.3529 44.9286 34.1489 44.9286 35.0009Z" fill="#699BF7"/>
</g>
<defs>
<clipPath id="clip0_2465_2653">
<rect width="40" height="40" fill="white" transform="translate(16 16)"/>
</clipPath>
</defs>
</svg>
