<svg width="40" height="40" viewBox="0 0 40 40" fill="none" xmlns="http://www.w3.org/2000/svg">
<path d="M36.2356 21.8435C33.9946 21.0315 31.5086 21.212 29.4067 22.3374L25.9802 23.8788C25.7033 22.3007 24.4913 21.1148 22.9953 21.0692C22.9865 21.069 17.8577 21.0111 17.8577 21.0111C13.7526 19.885 11.0852 21.332 9.5636 22.7579C9.2524 23.0496 8.97873 23.3498 8.73787 23.646C8.32727 23.2038 7.60249 23.0856 7.07394 23.3762L2.4183 25.9354C1.81445 26.2674 1.55172 26.9956 1.80497 27.6358L6.35488 39.1377C6.65386 39.8934 7.57266 40.2274 8.28958 39.8333L12.9452 37.2742C13.3816 37.0343 13.6386 36.5873 13.6527 36.1162H20.6012C21.7346 36.1162 22.8536 35.8185 23.8372 35.2553C23.8372 35.2553 36.9056 27.7589 36.9793 27.6919C38.8094 26.027 38.8658 22.7966 36.2356 21.8435C37.2848 22.2237 33.9946 21.0315 36.2356 21.8435ZM8.33121 36.688L4.79582 27.7508L7.03206 26.5216L10.5674 35.4588L8.33121 36.688ZM35.2306 25.5773L22.4738 32.8826C21.9045 33.2087 21.2568 33.381 20.6009 33.381H12.6909L10.0351 26.667C10.2626 26.2034 10.7107 25.4342 11.4385 24.7522C12.929 23.3555 14.8936 22.998 17.2781 23.6898C17.3974 23.7244 17.5208 23.7427 17.6449 23.7441L22.917 23.8034C23.0516 23.815 23.3001 24.1143 23.3001 24.5679C23.3001 25.035 23.0435 25.3327 22.9093 25.3327H17.7292V28.0679H22.9093C23.551 28.0679 24.1482 27.8509 24.6453 27.4791L30.5769 24.8109C30.6084 24.7968 30.6392 24.7815 30.6694 24.765C32.0923 23.9914 33.7805 23.8636 35.3009 24.4145C35.9025 24.6327 35.4679 25.3364 35.2306 25.5773ZM26.999 19.7079C21.5659 19.7079 17.1457 15.2874 17.1457 9.85393C17.1457 4.42051 21.5658 0 26.999 0C32.4321 0 36.8522 4.42051 36.8522 9.85393C36.8522 15.2874 32.4321 19.7079 26.999 19.7079ZM26.999 2.73521C23.0765 2.73521 19.8854 5.92863 19.8854 9.85393C19.8854 13.7792 23.0766 16.9727 26.999 16.9727C30.9215 16.9727 34.1127 13.7791 34.1127 9.85393C34.1127 5.92872 30.9215 2.73521 26.999 2.73521Z" fill="#4D44B5" fill-opacity="0.8"/>
<path d="M27.6362 8.73914C26.5469 8.29179 26.4627 8.09957 26.4627 7.87675C26.4627 7.73444 26.5333 7.40359 27.1876 7.40359C27.7862 7.40359 28.532 7.73957 29.058 8.08581L29.7897 6.16786C29.2673 5.8353 28.6324 5.54957 28.0388 5.4582V4.21094H26.0879V5.57957C24.9289 5.94487 24.2147 6.87136 24.2147 8.0247C24.2147 9.55222 25.4368 10.2342 26.6304 10.6991C27.5841 11.0827 27.664 11.3764 27.664 11.6216C27.664 11.9988 27.3164 12.2425 26.7785 12.2425C26.077 12.2425 25.2614 11.8379 24.6903 11.3951L23.9863 13.3438C24.5686 13.7953 25.2426 14.0932 26.0009 14.2044V15.4968H27.964V14.09C29.1592 13.7094 29.9242 12.7192 29.9242 11.5353C29.9242 9.87803 28.7015 9.17051 27.6362 8.73914Z" fill="#4D44B5" fill-opacity="0.8"/>
</svg>
