<svg width="164" height="72" viewBox="0 0 164 72" fill="none" xmlns="http://www.w3.org/2000/svg">
<path d="M105.189 43L101.989 37.44H100.249V43H97.9688V29.1H102.769C103.835 29.1 104.735 29.2867 105.469 29.66C106.215 30.0333 106.769 30.5333 107.129 31.16C107.502 31.7867 107.689 32.4867 107.689 33.26C107.689 34.1667 107.422 34.9933 106.889 35.74C106.369 36.4733 105.562 36.9733 104.469 37.24L107.909 43H105.189ZM100.249 35.62H102.769C103.622 35.62 104.262 35.4067 104.689 34.98C105.129 34.5533 105.349 33.98 105.349 33.26C105.349 32.54 105.135 31.98 104.709 31.58C104.282 31.1667 103.635 30.96 102.769 30.96H100.249V35.62ZM120.705 37.22C120.705 37.6333 120.679 38.0067 120.625 38.34H112.205C112.272 39.22 112.599 39.9267 113.185 40.46C113.772 40.9933 114.492 41.26 115.345 41.26C116.572 41.26 117.439 40.7467 117.945 39.72H120.405C120.072 40.7333 119.465 41.5667 118.585 42.22C117.719 42.86 116.639 43.18 115.345 43.18C114.292 43.18 113.345 42.9467 112.505 42.48C111.679 42 111.025 41.3333 110.545 40.48C110.079 39.6133 109.845 38.6133 109.845 37.48C109.845 36.3467 110.072 35.3533 110.525 34.5C110.992 33.6333 111.639 32.9667 112.465 32.5C113.305 32.0333 114.265 31.8 115.345 31.8C116.385 31.8 117.312 32.0267 118.125 32.48C118.939 32.9333 119.572 33.5733 120.025 34.4C120.479 35.2133 120.705 36.1533 120.705 37.22ZM118.325 36.5C118.312 35.66 118.012 34.9867 117.425 34.48C116.839 33.9733 116.112 33.72 115.245 33.72C114.459 33.72 113.785 33.9733 113.225 34.48C112.665 34.9733 112.332 35.6467 112.225 36.5H118.325ZM125.609 33.84V39.94C125.609 40.3533 125.703 40.6533 125.889 40.84C126.089 41.0133 126.423 41.1 126.889 41.1H128.289V43H126.489C125.463 43 124.676 42.76 124.129 42.28C123.583 41.8 123.309 41.02 123.309 39.94V33.84H122.009V31.98H123.309V29.24H125.609V31.98H128.289V33.84H125.609ZM140.371 31.98V43H138.091V41.7C137.731 42.1533 137.257 42.5133 136.671 42.78C136.097 43.0333 135.484 43.16 134.831 43.16C133.964 43.16 133.184 42.98 132.491 42.62C131.811 42.26 131.271 41.7267 130.871 41.02C130.484 40.3133 130.291 39.46 130.291 38.46V31.98H132.551V38.12C132.551 39.1067 132.797 39.8667 133.291 40.4C133.784 40.92 134.457 41.18 135.311 41.18C136.164 41.18 136.837 40.92 137.331 40.4C137.837 39.8667 138.091 39.1067 138.091 38.12V31.98H140.371ZM145.659 33.58C145.992 33.02 146.432 32.5867 146.979 32.28C147.539 31.96 148.199 31.8 148.959 31.8V34.16H148.379C147.486 34.16 146.806 34.3867 146.339 34.84C145.886 35.2933 145.659 36.08 145.659 37.2V43H143.379V31.98H145.659V33.58ZM156.615 31.8C157.481 31.8 158.255 31.98 158.935 32.34C159.628 32.7 160.168 33.2333 160.555 33.94C160.941 34.6467 161.135 35.5 161.135 36.5V43H158.875V36.84C158.875 35.8533 158.628 35.1 158.135 34.58C157.641 34.0467 156.968 33.78 156.115 33.78C155.261 33.78 154.581 34.0467 154.075 34.58C153.581 35.1 153.335 35.8533 153.335 36.84V43H151.055V31.98H153.335V33.24C153.708 32.7867 154.181 32.4333 154.755 32.18C155.341 31.9267 155.961 31.8 156.615 31.8Z" fill="#303972"/>
<rect width="72" height="72" rx="36" fill="#F0F5FB"/>
<path d="M26.625 29.5714V36L22.875 39.2143V25.2857H43.5V21L51 27.45L43.5 33.8571V29.5714H26.625ZM45.375 42.4286V36L49.125 32.7857V46.7143H28.5V51L21 44.55L28.5 38.1429V42.4286H45.375Z" fill="#699BF7"/>
</svg>
