<svg width="161" height="72" viewBox="0 0 161 72" fill="none" xmlns="http://www.w3.org/2000/svg">
<path d="M91.2488 29.1V43H88.9688V29.1H91.2488ZM99.8022 31.8C100.669 31.8 101.442 31.98 102.122 32.34C102.816 32.7 103.356 33.2333 103.742 33.94C104.129 34.6467 104.322 35.5 104.322 36.5V43H102.062V36.84C102.062 35.8533 101.816 35.1 101.322 34.58C100.829 34.0467 100.156 33.78 99.3022 33.78C98.4489 33.78 97.7689 34.0467 97.2622 34.58C96.7689 35.1 96.5222 35.8533 96.5222 36.84V43H94.2422V31.98H96.5222V33.24C96.8955 32.7867 97.3689 32.4333 97.9422 32.18C98.5289 31.9267 99.1489 31.8 99.8022 31.8ZM111.49 40.96L114.61 31.98H117.03L112.83 43H110.11L105.93 31.98H108.37L111.49 40.96ZM123.534 43.18C122.494 43.18 121.554 42.9467 120.714 42.48C119.874 42 119.214 41.3333 118.734 40.48C118.254 39.6133 118.014 38.6133 118.014 37.48C118.014 36.36 118.261 35.3667 118.754 34.5C119.247 33.6333 119.921 32.9667 120.774 32.5C121.627 32.0333 122.581 31.8 123.634 31.8C124.687 31.8 125.641 32.0333 126.494 32.5C127.347 32.9667 128.021 33.6333 128.514 34.5C129.007 35.3667 129.254 36.36 129.254 37.48C129.254 38.6 129.001 39.5933 128.494 40.46C127.987 41.3267 127.294 42 126.414 42.48C125.547 42.9467 124.587 43.18 123.534 43.18ZM123.534 41.2C124.121 41.2 124.667 41.06 125.174 40.78C125.694 40.5 126.114 40.08 126.434 39.52C126.754 38.96 126.914 38.28 126.914 37.48C126.914 36.68 126.761 36.0067 126.454 35.46C126.147 34.9 125.741 34.48 125.234 34.2C124.727 33.92 124.181 33.78 123.594 33.78C123.007 33.78 122.461 33.92 121.954 34.2C121.461 34.48 121.067 34.9 120.774 35.46C120.481 36.0067 120.334 36.68 120.334 37.48C120.334 38.6667 120.634 39.5867 121.234 40.24C121.847 40.88 122.614 41.2 123.534 41.2ZM132.668 30.52C132.254 30.52 131.908 30.38 131.628 30.1C131.348 29.82 131.208 29.4733 131.208 29.06C131.208 28.6467 131.348 28.3 131.628 28.02C131.908 27.74 132.254 27.6 132.668 27.6C133.068 27.6 133.408 27.74 133.688 28.02C133.968 28.3 134.108 28.6467 134.108 29.06C134.108 29.4733 133.968 29.82 133.688 30.1C133.408 30.38 133.068 30.52 132.668 30.52ZM133.788 31.98V43H131.508V31.98H133.788ZM136.021 37.48C136.021 36.3467 136.248 35.3533 136.701 34.5C137.168 33.6333 137.808 32.9667 138.621 32.5C139.435 32.0333 140.368 31.8 141.421 31.8C142.755 31.8 143.855 32.12 144.721 32.76C145.601 33.3867 146.195 34.2867 146.501 35.46H144.041C143.841 34.9133 143.521 34.4867 143.081 34.18C142.641 33.8733 142.088 33.72 141.421 33.72C140.488 33.72 139.741 34.0533 139.181 34.72C138.635 35.3733 138.361 36.2933 138.361 37.48C138.361 38.6667 138.635 39.5933 139.181 40.26C139.741 40.9267 140.488 41.26 141.421 41.26C142.741 41.26 143.615 40.68 144.041 39.52H146.501C146.181 40.64 145.581 41.5333 144.701 42.2C143.821 42.8533 142.728 43.18 141.421 43.18C140.368 43.18 139.435 42.9467 138.621 42.48C137.808 42 137.168 41.3333 136.701 40.48C136.248 39.6133 136.021 38.6133 136.021 37.48ZM158.873 37.22C158.873 37.6333 158.847 38.0067 158.793 38.34H150.373C150.44 39.22 150.767 39.9267 151.353 40.46C151.94 40.9933 152.66 41.26 153.513 41.26C154.74 41.26 155.607 40.7467 156.113 39.72H158.573C158.24 40.7333 157.633 41.5667 156.753 42.22C155.887 42.86 154.807 43.18 153.513 43.18C152.46 43.18 151.513 42.9467 150.673 42.48C149.847 42 149.193 41.3333 148.713 40.48C148.247 39.6133 148.013 38.6133 148.013 37.48C148.013 36.3467 148.24 35.3533 148.693 34.5C149.16 33.6333 149.807 32.9667 150.633 32.5C151.473 32.0333 152.433 31.8 153.513 31.8C154.553 31.8 155.48 32.0267 156.293 32.48C157.107 32.9333 157.74 33.5733 158.193 34.4C158.647 35.2133 158.873 36.1533 158.873 37.22ZM156.493 36.5C156.48 35.66 156.18 34.9867 155.593 34.48C155.007 33.9733 154.28 33.72 153.413 33.72C152.627 33.72 151.953 33.9733 151.393 34.48C150.833 34.9733 150.5 35.6467 150.393 36.5H156.493Z" fill="#303972"/>
<rect width="72" height="72" rx="36" fill="#F0F5FB"/>
<path d="M52.2356 37.8435C49.9946 37.0315 47.5086 37.212 45.4067 38.3374L41.9802 39.8788C41.7033 38.3007 40.4913 37.1148 38.9953 37.0692C38.9865 37.069 33.8577 37.0111 33.8577 37.0111C29.7526 35.885 27.0852 37.332 25.5636 38.7579C25.2524 39.0496 24.9787 39.3498 24.7379 39.646C24.3273 39.2038 23.6025 39.0856 23.0739 39.3762L18.4183 41.9354C17.8145 42.2674 17.5517 42.9956 17.805 43.6358L22.3549 55.1377C22.6539 55.8934 23.5727 56.2274 24.2896 55.8333L28.9452 53.2742C29.3816 53.0343 29.6386 52.5873 29.6527 52.1162H36.6012C37.7346 52.1162 38.8536 51.8185 39.8372 51.2553C39.8372 51.2553 52.9056 43.7589 52.9793 43.6919C54.8094 42.027 54.8658 38.7966 52.2356 37.8435C49.9946 37.0315 53.2848 38.2237 52.2356 37.8435ZM24.3312 52.688L20.7958 43.7508L23.0321 42.5216L26.5674 51.4588L24.3312 52.688ZM51.2306 41.5773L38.4738 48.8826C37.9045 49.2087 37.2568 49.381 36.6009 49.381H28.6909L26.0351 42.667C26.2626 42.2034 26.7107 41.4342 27.4385 40.7522C28.929 39.3555 30.8936 38.998 33.2781 39.6898C33.3974 39.7244 33.5208 39.7427 33.6449 39.7441L38.917 39.8034C39.0516 39.815 39.3001 40.1143 39.3001 40.5679C39.3001 41.035 39.0435 41.3327 38.9093 41.3327H33.7292V44.0679H38.9093C39.551 44.0679 40.1482 43.8509 40.6453 43.4791L46.5769 40.8109C46.6084 40.7968 46.6392 40.7815 46.6694 40.765C48.0923 39.9914 49.7805 39.8636 51.3009 40.4145C51.9025 40.6327 51.4679 41.3364 51.2306 41.5773ZM42.999 35.7079C37.5659 35.7079 33.1457 31.2874 33.1457 25.8539C33.1457 20.4205 37.5658 16 42.999 16C48.4321 16 52.8522 20.4205 52.8522 25.8539C52.8522 31.2874 48.4321 35.7079 42.999 35.7079ZM42.999 18.7352C39.0765 18.7352 35.8854 21.9286 35.8854 25.8539C35.8854 29.7792 39.0766 32.9727 42.999 32.9727C46.9215 32.9727 50.1127 29.7791 50.1127 25.8539C50.1127 21.9287 46.9215 18.7352 42.999 18.7352Z" fill="#699BF7"/>
<path d="M43.6362 24.7391C42.5469 24.2918 42.4627 24.0996 42.4627 23.8767C42.4627 23.7344 42.5333 23.4036 43.1876 23.4036C43.7862 23.4036 44.532 23.7396 45.058 24.0858L45.7897 22.1679C45.2673 21.8353 44.6324 21.5496 44.0388 21.4582V20.2109H42.0879V21.5796C40.9289 21.9449 40.2147 22.8714 40.2147 24.0247C40.2147 25.5522 41.4368 26.2342 42.6304 26.6991C43.5841 27.0827 43.664 27.3764 43.664 27.6216C43.664 27.9988 43.3164 28.2425 42.7785 28.2425C42.077 28.2425 41.2614 27.8379 40.6903 27.3951L39.9863 29.3438C40.5686 29.7953 41.2426 30.0932 42.0009 30.2044V31.4968H43.964V30.09C45.1592 29.7094 45.9242 28.7192 45.9242 27.5353C45.9242 25.878 44.7015 25.1705 43.6362 24.7391Z" fill="#699BF7"/>
</svg>
