<svg width="12" height="12" viewBox="0 0 12 12" fill="none" xmlns="http://www.w3.org/2000/svg">
<path d="M6.71094 0.880859C6.71094 0.681947 6.63192 0.491181 6.49127 0.350529C6.35062 0.209877 6.15985 0.130859 5.96094 0.130859C5.76203 0.130859 5.57126 0.209877 5.43061 0.350529C5.28996 0.491181 5.21094 0.681947 5.21094 0.880859V5.13086H0.960938C0.762025 5.13086 0.57126 5.20988 0.430607 5.35053C0.289955 5.49118 0.210938 5.68195 0.210938 5.88086C0.210938 6.07977 0.289955 6.27054 0.430607 6.41119C0.57126 6.55184 0.762025 6.63086 0.960938 6.63086H5.21094V10.8809C5.21094 11.0798 5.28996 11.2705 5.43061 11.4112C5.57126 11.5518 5.76203 11.6309 5.96094 11.6309C6.15985 11.6309 6.35062 11.5518 6.49127 11.4112C6.63192 11.2705 6.71094 11.0798 6.71094 10.8809V6.63086H10.9609C11.1599 6.63086 11.3506 6.55184 11.4913 6.41119C11.6319 6.27054 11.7109 6.07977 11.7109 5.88086C11.7109 5.68195 11.6319 5.49118 11.4913 5.35053C11.3506 5.20988 11.1599 5.13086 10.9609 5.13086H6.71094V0.880859Z" fill="#4D44B5"/>
</svg>
