<svg width="17" height="9" viewBox="0 0 17 9" fill="none" xmlns="http://www.w3.org/2000/svg">
<path d="M0.674609 0.33269C0.266276 0.741024 0.266276 1.39936 0.674609 1.80769L7.59961 8.73269C7.6767 8.80994 7.76828 8.87123 7.86909 8.91305C7.9699 8.95487 8.07797 8.97639 8.18711 8.97639C8.29625 8.97639 8.40432 8.95487 8.50513 8.91305C8.60594 8.87123 8.69752 8.80994 8.77461 8.73269L15.6996 1.80769C16.1079 1.39936 16.1079 0.741024 15.6996 0.33269C15.2913 -0.0756429 14.6329 -0.0756429 14.2246 0.33269L8.18294 6.36602L2.14128 0.324357C1.74128 -0.0756431 1.07461 -0.0756429 0.674609 0.33269Z" fill="#4D44B5"/>
</svg>
