<svg width="22" height="24" viewBox="0 0 22 24" fill="none" xmlns="http://www.w3.org/2000/svg">
<path d="M8.39844 10.2559V17.7559C8.39844 18.0045 8.49721 18.243 8.67303 18.4188C8.84884 18.5946 9.0873 18.6934 9.33594 18.6934C9.58458 18.6934 9.82303 18.5946 9.99885 18.4188C10.1747 18.243 10.2734 18.0045 10.2734 17.7559V10.2559C10.2734 10.0072 10.1747 9.76876 9.99885 9.59295C9.82303 9.41713 9.58458 9.31836 9.33594 9.31836C9.0873 9.31836 8.84884 9.41713 8.67303 9.59295C8.49721 9.76876 8.39844 10.0072 8.39844 10.2559ZM13.0859 9.31836C13.3346 9.31836 13.573 9.41713 13.7489 9.59295C13.9247 9.76876 14.0234 10.0072 14.0234 10.2559V17.7559C14.0234 18.0045 13.9247 18.243 13.7489 18.4188C13.573 18.5946 13.3346 18.6934 13.0859 18.6934C12.8373 18.6934 12.5988 18.5946 12.423 18.4188C12.2472 18.243 12.1484 18.0045 12.1484 17.7559V10.2559C12.1484 10.0072 12.2472 9.76876 12.423 9.59295C12.5988 9.41713 12.8373 9.31836 13.0859 9.31836ZM14.9609 4.63086H20.5859C20.8346 4.63086 21.073 4.72963 21.2489 4.90545C21.4247 5.08126 21.5234 5.31972 21.5234 5.56836C21.5234 5.817 21.4247 6.05546 21.2489 6.23127C21.073 6.40709 20.8346 6.50586 20.5859 6.50586H19.5491L18.1391 19.2109C18.0117 20.3575 17.4659 21.4169 16.6063 22.1863C15.7466 22.9557 14.6334 23.381 13.4797 23.3809H8.94219C7.7885 23.381 6.67528 22.9557 5.81561 22.1863C4.95593 21.4169 4.41018 20.3575 4.28281 19.2109L2.87094 6.50586H1.83594C1.5873 6.50586 1.34884 6.40709 1.17303 6.23127C0.99721 6.05546 0.898438 5.817 0.898438 5.56836C0.898438 5.31972 0.99721 5.08126 1.17303 4.90545C1.34884 4.72963 1.5873 4.63086 1.83594 4.63086H7.46094C7.46094 3.6363 7.85603 2.68247 8.55929 1.97921C9.26255 1.27595 10.2164 0.880859 11.2109 0.880859C12.2055 0.880859 13.1593 1.27595 13.8626 1.97921C14.5658 2.68247 14.9609 3.6363 14.9609 4.63086ZM11.2109 2.75586C10.7137 2.75586 10.2367 2.9534 9.88511 3.30503C9.53348 3.65666 9.33594 4.13358 9.33594 4.63086H13.0859C13.0859 4.13358 12.8884 3.65666 12.5368 3.30503C12.1851 2.9534 11.7082 2.75586 11.2109 2.75586ZM4.75906 6.50586L6.14656 19.0046C6.22315 19.6925 6.55068 20.3279 7.06647 20.7894C7.58226 21.2509 8.25009 21.506 8.94219 21.5059H13.4797C14.1715 21.5055 14.8388 21.2502 15.3542 20.7888C15.8696 20.3273 16.1969 19.6921 16.2734 19.0046L17.6647 6.50586H4.76094H4.75906Z" fill="#CB3F04"/>
</svg>
