<svg width="21" height="20" viewBox="0 0 21 20" fill="none" xmlns="http://www.w3.org/2000/svg">
<g clip-path="url(#clip0_1134_4072)">
<path d="M10.0625 12.5C11.4432 12.5 12.5625 11.3807 12.5625 10C12.5625 8.61929 11.4432 7.5 10.0625 7.5C8.68179 7.5 7.5625 8.61929 7.5625 10C7.5625 11.3807 8.68179 12.5 10.0625 12.5Z" fill="#699BF7"/>
<path d="M19.3997 9.7875C18.6646 7.88603 17.3885 6.24164 15.729 5.05755C14.0695 3.87347 12.0994 3.20161 10.0622 3.125C8.02506 3.20161 6.05498 3.87347 4.39549 5.05755C2.73599 6.24164 1.45983 7.88603 0.724734 9.7875C0.675089 9.92482 0.675089 10.0752 0.724734 10.2125C1.45983 12.114 2.73599 13.7584 4.39549 14.9424C6.05498 16.1265 8.02506 16.7984 10.0622 16.875C12.0994 16.7984 14.0695 16.1265 15.729 14.9424C17.3885 13.7584 18.6646 12.114 19.3997 10.2125C19.4494 10.0752 19.4494 9.92482 19.3997 9.7875V9.7875ZM10.0622 14.0625C9.25875 14.0625 8.47331 13.8242 7.80523 13.3778C7.13716 12.9315 6.61645 12.297 6.30897 11.5547C6.00149 10.8123 5.92104 9.99549 6.07779 9.20745C6.23455 8.4194 6.62146 7.69553 7.18961 7.12738C7.75776 6.55923 8.48163 6.17231 9.26968 6.01556C10.0577 5.85881 10.8746 5.93926 11.6169 6.24674C12.3592 6.55422 12.9937 7.07492 13.4401 7.743C13.8865 8.41107 14.1247 9.19651 14.1247 10C14.1231 11.0769 13.6945 12.1093 12.933 12.8708C12.1715 13.6323 11.1392 14.0608 10.0622 14.0625V14.0625Z" fill="#699BF7"/>
</g>
<defs>
<clipPath id="clip0_1134_4072">
<rect width="20" height="20" fill="white" transform="translate(0.0625)"/>
</clipPath>
</defs>
</svg>
