<svg width="26" height="22" viewBox="0 0 26 22" fill="none" xmlns="http://www.w3.org/2000/svg">
<path d="M20.9282 7.03931H4.50244C3.36848 7.03931 2.44922 7.82391 2.44922 8.79177V17.5541C2.44922 18.5219 3.36848 19.3065 4.50244 19.3065H20.9282C22.0622 19.3065 22.9814 18.5219 22.9814 17.5541V8.79177C22.9814 7.82391 22.0622 7.03931 20.9282 7.03931Z" stroke="#616161" stroke-linecap="round" stroke-linejoin="round"/>
<path d="M16.8262 19.3066V5.28689C16.8262 4.8221 16.6099 4.37636 16.2248 4.04771C15.8397 3.71906 15.3175 3.53442 14.773 3.53442H10.6665C10.122 3.53442 9.59971 3.71906 9.21466 4.04771C8.8296 4.37636 8.61328 4.8221 8.61328 5.28689V19.3066" stroke="#616161" stroke-linecap="round" stroke-linejoin="round"/>
</svg>
