<svg width="19" height="21" viewBox="0 0 19 21" fill="none" xmlns="http://www.w3.org/2000/svg">
<path d="M16.5 20.5859H2.5C1.39543 20.5859 0.5 19.6905 0.5 18.5859V4.58594C0.5 3.48137 1.39543 2.58594 2.5 2.58594H4.5V0.585938H6.5V2.58594H12.5V0.585938H14.5V2.58594H16.5C17.6046 2.58594 18.5 3.48137 18.5 4.58594V18.5859C18.5 19.6905 17.6046 20.5859 16.5 20.5859ZM2.5 8.58594V18.5859H16.5V8.58594H2.5ZM2.5 4.58594V6.58594H16.5V4.58594H2.5ZM14.5 16.5859H12.5V14.5859H14.5V16.5859ZM10.5 16.5859H8.5V14.5859H10.5V16.5859ZM6.5 16.5859H4.5V14.5859H6.5V16.5859ZM14.5 12.5859H12.5V10.5859H14.5V12.5859ZM10.5 12.5859H8.5V10.5859H10.5V12.5859ZM6.5 12.5859H4.5V10.5859H6.5V12.5859Z" fill="#343A40"/>
</svg>
