<svg width="26" height="25" viewBox="0 0 26 25" fill="none" xmlns="http://www.w3.org/2000/svg">
<path d="M13 14.0625C12.2274 14.0625 11.4722 13.8334 10.8298 13.4042C10.1874 12.975 9.68675 12.3649 9.3911 11.6511C9.09544 10.9373 9.01809 10.1519 9.16881 9.39418C9.31953 8.63644 9.69157 7.94042 10.2379 7.39412C10.7842 6.84782 11.4802 6.47578 12.2379 6.32506C12.9957 6.17434 13.7811 6.25169 14.4949 6.54735C15.2086 6.843 15.8187 7.34368 16.2479 7.98606C16.6772 8.62844 16.9063 9.38367 16.9063 10.1563C16.905 11.1919 16.4931 12.1847 15.7608 12.917C15.0285 13.6493 14.0356 14.0613 13 14.0625V14.0625ZM13 7.8125C12.5365 7.8125 12.0833 7.94996 11.6979 8.2075C11.3125 8.46503 11.0121 8.83107 10.8347 9.25934C10.6573 9.6876 10.6109 10.1589 10.7013 10.6135C10.7917 11.0681 11.0149 11.4858 11.3427 11.8135C11.6705 12.1413 12.0881 12.3645 12.5428 12.455C12.9974 12.5454 13.4687 12.499 13.8969 12.3216C14.3252 12.1442 14.6912 11.8438 14.9488 11.4584C15.2063 11.0729 15.3438 10.6198 15.3438 10.1563C15.3431 9.53484 15.096 8.93906 14.6566 8.49966C14.2172 8.06025 13.6214 7.81312 13 7.8125V7.8125Z" fill="black"/>
<path d="M13 23.4375L6.40938 15.6648C6.31781 15.5481 6.22718 15.4307 6.13751 15.3125C5.01171 13.8295 4.40353 12.0181 4.40626 10.1562C4.40626 7.87705 5.31167 5.69119 6.92331 4.07955C8.53495 2.46791 10.7208 1.5625 13 1.5625C15.2792 1.5625 17.4651 2.46791 19.0767 4.07955C20.6883 5.69119 21.5938 7.87705 21.5938 10.1562C21.5965 12.0173 20.9886 13.8278 19.8633 15.3102L19.8625 15.3125C19.8625 15.3125 19.6281 15.6203 19.593 15.6617L13 23.4375ZM7.38438 14.3711C7.38595 14.3711 7.5672 14.6117 7.6086 14.6633L13 21.0219L18.3984 14.6547C18.4328 14.6117 18.6156 14.3695 18.6164 14.3688C19.5361 13.1571 20.0331 11.6774 20.0313 10.1562C20.0313 8.29145 19.2905 6.50302 17.9719 5.18441C16.6532 3.86579 14.8648 3.125 13 3.125C11.1352 3.125 9.34678 3.86579 8.02816 5.18441C6.70955 6.50302 5.96876 8.29145 5.96876 10.1562C5.96712 11.6783 6.46468 13.1589 7.38516 14.3711H7.38438Z" fill="black"/>
</svg>
