<svg width="37" height="34" viewBox="0 0 37 34" fill="none" xmlns="http://www.w3.org/2000/svg">
<path d="M31.8327 0.380249H15.166C13.8399 0.380249 12.5682 0.907033 11.6305 1.84472C10.6928 2.7824 10.166 4.05417 10.166 5.38025V8.71358H5.16602C3.83993 8.71358 2.56816 9.24037 1.63048 10.178C0.6928 11.1157 0.166016 12.3875 0.166016 13.7136V23.7136C0.165474 24.748 0.485775 25.7571 1.08278 26.6019C1.67978 27.4466 2.52409 28.0854 3.49935 28.4303V32.0469C3.49986 32.3422 3.57883 32.6321 3.72818 32.8869C3.87754 33.1417 4.09191 33.3522 4.34935 33.4969C4.59844 33.6381 4.8797 33.7127 5.16602 33.7136C5.46515 33.7135 5.75876 33.6329 6.01602 33.4803L13.966 28.7136H21.8327C23.1588 28.7136 24.4305 28.1868 25.3682 27.2491C26.3059 26.3114 26.8327 25.0397 26.8327 23.7136V22.6636L30.9827 25.1469C31.2399 25.2996 31.5335 25.3802 31.8327 25.3803C32.119 25.3794 32.4003 25.3048 32.6493 25.1636C32.9068 25.0189 33.1212 24.8084 33.2705 24.5536C33.4199 24.2988 33.4988 24.0089 33.4993 23.7136V20.0969C34.4746 19.7521 35.3189 19.1133 35.9159 18.2686C36.5129 17.4238 36.8332 16.4147 36.8327 15.3802V5.38025C36.8327 4.05417 36.3059 2.7824 35.3682 1.84472C34.4305 0.907033 33.1588 0.380249 31.8327 0.380249ZM23.4993 23.7136C23.4993 24.1556 23.3238 24.5795 23.0112 24.8921C22.6986 25.2047 22.2747 25.3803 21.8327 25.3803H13.4993C13.2002 25.3803 12.9066 25.4609 12.6493 25.6136L6.83268 29.0969V27.0469C6.83268 26.6049 6.65709 26.181 6.34453 25.8684C6.03197 25.5558 5.60804 25.3803 5.16602 25.3803C4.72399 25.3803 4.30007 25.2047 3.9875 24.8921C3.67494 24.5795 3.49935 24.1556 3.49935 23.7136V13.7136C3.49935 13.2716 3.67494 12.8476 3.9875 12.5351C4.30007 12.2225 4.72399 12.0469 5.16602 12.0469H10.166V15.3802C10.166 16.7063 10.6928 17.9781 11.6305 18.9158C12.5682 19.8535 13.8399 20.3802 15.166 20.3802H23.0327L23.4993 20.6636V23.7136ZM33.4993 15.3802C33.4993 15.8223 33.3238 16.2462 33.0112 16.5588C32.6986 16.8713 32.2747 17.0469 31.8327 17.0469C31.3907 17.0469 30.9667 17.2225 30.6542 17.5351C30.3416 17.8476 30.166 18.2716 30.166 18.7136V20.7636L24.3493 17.2803C24.0921 17.1276 23.7985 17.047 23.4993 17.0469H15.166C14.724 17.0469 14.3001 16.8713 13.9875 16.5588C13.6749 16.2462 13.4993 15.8223 13.4993 15.3802V5.38025C13.4993 4.93822 13.6749 4.5143 13.9875 4.20174C14.3001 3.88918 14.724 3.71358 15.166 3.71358H31.8327C32.2747 3.71358 32.6986 3.88918 33.0112 4.20174C33.3238 4.5143 33.4993 4.93822 33.4993 5.38025V15.3802Z" fill="#C1BBEB"/>
</svg>
