<svg width="36" height="35" viewBox="0 0 36 35" fill="none" xmlns="http://www.w3.org/2000/svg">
<path d="M18 7.5C16.7639 7.5 15.5555 7.86656 14.5277 8.55332C13.4999 9.24007 12.6988 10.2162 12.2258 11.3582C11.7527 12.5003 11.6289 13.7569 11.8701 14.9693C12.1113 16.1817 12.7065 17.2953 13.5806 18.1694C14.4547 19.0435 15.5683 19.6388 16.7807 19.8799C17.9931 20.1211 19.2497 19.9973 20.3918 19.5242C21.5338 19.0512 22.5099 18.2501 23.1967 17.2223C23.8834 16.1945 24.25 14.9861 24.25 13.75C24.25 12.0924 23.5915 10.5027 22.4194 9.33058C21.2473 8.15848 19.6576 7.5 18 7.5Z" fill="#A098AE"/>
<path d="M18 0C14.5388 0 11.1554 1.02636 8.27753 2.94928C5.39967 4.87221 3.15665 7.60533 1.83212 10.803C0.507582 14.0007 0.161024 17.5194 0.836265 20.9141C1.51151 24.3087 3.17822 27.4269 5.62564 29.8744C8.07306 32.3218 11.1913 33.9885 14.5859 34.6637C17.9806 35.339 21.4993 34.9924 24.697 33.6679C27.8947 32.3434 30.6278 30.1003 32.5507 27.2225C34.4737 24.3446 35.5 20.9612 35.5 17.5C35.4947 12.8603 33.6493 8.41222 30.3685 5.13148C27.0878 1.85074 22.6397 0.0052934 18 0ZM27.99 28.6575C27.9651 27.0179 27.2971 25.4537 26.1299 24.302C24.9627 23.1502 23.3898 22.5031 21.75 22.5H14.25C12.6102 22.5031 11.0373 23.1502 9.87012 24.302C8.70293 25.4537 8.03492 27.0179 8.01001 28.6575C5.74321 26.6334 4.14467 23.9686 3.42605 21.0158C2.70743 18.0631 2.90263 14.9617 3.98581 12.1223C5.06898 9.28297 6.98903 6.83958 9.49172 5.11571C11.9944 3.39183 14.9617 2.46878 18.0006 2.46878C21.0396 2.46878 24.0069 3.39183 26.5095 5.11571C29.0122 6.83958 30.9323 9.28297 32.0155 12.1223C33.0986 14.9617 33.2938 18.0631 32.5752 21.0158C31.8566 23.9686 30.2581 26.6334 27.9913 28.6575H27.99Z" fill="#A098AE"/>
</svg>
