<svg width="31" height="32" viewBox="0 0 31 32" fill="none" xmlns="http://www.w3.org/2000/svg">
<path d="M3.7 0H18.1C18.9487 0 19.7626 0.337142 20.3627 0.937258C20.9629 1.53737 21.3 2.35131 21.3 3.2V6.4H18.1V3.2H3.7V28.8H18.1V25.6H21.3V28.8C21.3 29.6487 20.9629 30.4626 20.3627 31.0627C19.7626 31.6629 18.9487 32 18.1 32H3.7C2.85131 32 2.03737 31.6629 1.43726 31.0627C0.837142 30.4626 0.5 29.6487 0.5 28.8V3.2C0.5 2.35131 0.837142 1.53737 1.43726 0.937258C2.03737 0.337142 2.85131 0 3.7 0Z" fill="white"/>
<path d="M19.844 21.744L22.1 24L30.1 16L22.1 8L19.844 10.256L23.972 14.4H8.5V17.6H23.972L19.844 21.744Z" fill="white"/>
</svg>
