<svg width="12" height="9" viewBox="0 0 12 9" fill="none" xmlns="http://www.w3.org/2000/svg">
<path d="M3.95146 8.97429C3.72816 8.97429 3.51456 8.88691 3.35437 8.72671L0.747573 6.11992C0.587379 5.95972 0.5 5.75099 0.5 5.52283C0.5 5.29953 0.587379 5.08594 0.747573 4.92574C0.907767 4.76555 1.1165 4.67817 1.34466 4.67817C1.56796 4.67817 1.78155 4.76555 1.94175 4.92574L3.95146 6.94516L10.0631 0.83351C10.2233 0.673316 10.432 0.585938 10.6602 0.585938C10.8835 0.585938 11.0971 0.673316 11.2573 0.83351C11.4175 0.993704 11.5049 1.20244 11.5049 1.4306C11.5049 1.6539 11.4175 1.86749 11.2573 2.02769L4.54854 8.73157C4.38835 8.88691 4.17476 8.97429 3.95146 8.97429Z" fill="#39B54A"/>
</svg>
