<svg width="37" height="29" viewBox="0 0 37 29" fill="none" xmlns="http://www.w3.org/2000/svg">
<path d="M11.6183 13.5284C13.4437 13.5284 15.1944 12.8182 16.4851 11.554C17.7759 10.2899 18.5011 8.57537 18.5011 6.78762C18.5011 4.99986 17.7759 3.28533 16.4851 2.02119C15.1944 0.757058 13.4437 0.046875 11.6183 0.046875C9.79288 0.046875 8.04222 0.757058 6.75146 2.02119C5.46069 3.28533 4.73554 4.99986 4.73554 6.78762C4.73554 8.57537 5.46069 10.2899 6.75146 11.554C8.04222 12.8182 9.79288 13.5284 11.6183 13.5284ZM23.6621 24.1995C24.7845 24.6495 26.2119 24.9358 28.0289 24.9358C36.5 24.9358 36.5 18.7135 36.5 18.7135C36.5 17.8888 36.1656 17.0978 35.5703 16.5144C34.975 15.931 34.1676 15.603 33.3255 15.6024H23.5244C24.3567 16.5897 24.8565 17.8528 24.8565 19.2321V19.9704C24.8522 20.1451 24.8401 20.3195 24.8205 20.4931C24.6776 21.789 24.2852 23.0466 23.6642 24.1995H23.6621ZM33.3255 8.34317C33.3255 9.71837 32.7677 11.0372 31.7748 12.0097C30.7819 12.9821 29.4352 13.5284 28.031 13.5284C26.6269 13.5284 25.2802 12.9821 24.2873 12.0097C23.2944 11.0372 22.7366 9.71837 22.7366 8.34317C22.7366 6.96797 23.2944 5.6491 24.2873 4.67669C25.2802 3.70428 26.6269 3.15799 28.031 3.15799C29.4352 3.15799 30.7819 3.70428 31.7748 4.67669C32.7677 5.6491 33.3255 6.96797 33.3255 8.34317ZM0.5 19.7506C0.5 18.6504 0.946243 17.5953 1.74056 16.8174C2.53488 16.0395 3.61221 15.6024 4.73554 15.6024H18.5011C19.6244 15.6024 20.7017 16.0395 21.496 16.8174C22.2904 17.5953 22.7366 18.6504 22.7366 19.7506C22.7366 19.7506 22.7366 28.0469 11.6183 28.0469C0.5 28.0469 0.5 19.7506 0.5 19.7506ZM24.8544 19.9704L24.848 20.1032L24.8523 19.9704H24.8544Z" fill="#C1BBEB"/>
</svg>
