<svg width="21" height="17" viewBox="0 0 21 17" fill="none" xmlns="http://www.w3.org/2000/svg">
<path d="M20.4035 15.9592L11.1183 0.346939C10.9799 0.114923 10.7411 0 10.5 0C10.2589 0 10.0179 0.114923 9.88173 0.346939L0.596542 15.9592C0.322004 16.4232 0.665735 17 1.21481 17H19.7852C20.3343 17 20.678 16.4232 20.4035 15.9592ZM9.78575 6.41837C9.78575 6.32296 9.86611 6.2449 9.96432 6.2449H11.0357C11.1339 6.2449 11.2142 6.32296 11.2142 6.41837V10.4082C11.2142 10.5036 11.1339 10.5816 11.0357 10.5816H9.96432C9.86611 10.5816 9.78575 10.5036 9.78575 10.4082V6.41837ZM10.5 14.051C10.2196 14.0455 9.9527 13.9334 9.75645 13.7388C9.5602 13.5442 9.45028 13.2826 9.45028 13.0102C9.45028 12.7378 9.5602 12.4762 9.75645 12.2816C9.9527 12.087 10.2196 11.9749 10.5 11.9694C10.7804 11.9749 11.0473 12.087 11.2436 12.2816C11.4398 12.4762 11.5497 12.7378 11.5497 13.0102C11.5497 13.2826 11.4398 13.5442 11.2436 13.7388C11.0473 13.9334 10.7804 14.0455 10.5 14.051V14.051Z" fill="#E5343D"/>
</svg>
