<svg width="31" height="34" viewBox="0 0 31 34" fill="none" xmlns="http://www.w3.org/2000/svg">
<path d="M28.8335 10.3329L18.8335 1.56619C17.9168 0.746264 16.73 0.292969 15.5002 0.292969C14.2703 0.292969 13.0835 0.746264 12.1668 1.56619L2.16682 10.3329C1.63744 10.8063 1.21499 11.3871 0.927611 12.0366C0.640231 12.6861 0.494512 13.3893 0.500158 14.0995V28.6662C0.500158 29.9923 1.02694 31.264 1.96462 32.2017C2.90231 33.1394 4.17408 33.6662 5.50016 33.6662H25.5002C26.8262 33.6662 28.098 33.1394 29.0357 32.2017C29.9734 31.264 30.5002 29.9923 30.5002 28.6662V14.0829C30.5034 13.3755 30.3566 12.6754 30.0693 12.029C29.782 11.3826 29.3608 10.8044 28.8335 10.3329ZM18.8335 30.3329H12.1668V21.9995C12.1668 21.5575 12.3424 21.1336 12.655 20.821C12.9675 20.5084 13.3915 20.3329 13.8335 20.3329H17.1668C17.6089 20.3329 18.0328 20.5084 18.3453 20.821C18.6579 21.1336 18.8335 21.5575 18.8335 21.9995V30.3329ZM27.1668 28.6662C27.1668 29.1082 26.9912 29.5321 26.6787 29.8447C26.3661 30.1573 25.9422 30.3329 25.5002 30.3329H22.1668V21.9995C22.1668 20.6734 21.64 19.4017 20.7024 18.464C19.7647 17.5263 18.4929 16.9995 17.1668 16.9995H13.8335C12.5074 16.9995 11.2356 17.5263 10.298 18.464C9.36027 19.4017 8.83349 20.6734 8.83349 21.9995V30.3329H5.50016C5.05813 30.3329 4.63421 30.1573 4.32165 29.8447C4.00909 29.5321 3.83349 29.1082 3.83349 28.6662V14.0829C3.83379 13.8462 3.88448 13.6123 3.98219 13.3968C4.07989 13.1813 4.22238 12.989 4.40016 12.8329L14.4002 4.08286C14.7043 3.81566 15.0953 3.6683 15.5002 3.6683C15.905 3.6683 16.296 3.81566 16.6002 4.08286L26.6002 12.8329C26.7779 12.989 26.9204 13.1813 27.0181 13.3968C27.1158 13.6123 27.1665 13.8462 27.1668 14.0829V28.6662Z" fill="#4D44B5"/>
</svg>
