<svg width="31" height="32" viewBox="0 0 31 32" fill="none" xmlns="http://www.w3.org/2000/svg">
<path d="M12.5547 8C12.5547 4.8 14.1547 2 16.5547 0H14.5547C6.75469 0 0.554688 1.8 0.554688 4C0.554688 6 5.75469 7.6 12.5547 8ZM20.1547 17.6C18.3547 17.8 16.3547 18 14.5547 18C6.75469 18 0.554688 16.2 0.554688 14V20C0.554688 22.2 6.75469 24 14.5547 24C22.3547 24 28.5547 22.2 28.5547 20V16C26.7547 17.4 24.7547 18 22.5547 18C21.7547 18 20.9547 17.8 20.1547 17.6ZM14.5547 26C6.75469 26 0.554688 24.2 0.554688 22V28C0.554688 30.2 6.75469 32 14.5547 32C22.3547 32 28.5547 30.2 28.5547 28V22C28.5547 24.2 22.3547 26 14.5547 26ZM14.5547 16H16.5547C14.5547 14.6 13.1547 12.4 12.7547 10C5.95469 9.8 0.554688 8 0.554688 6V12C0.554688 14.2 6.75469 16 14.5547 16ZM22.5547 16C26.9547 16 30.5547 12.4 30.5547 8C30.5547 3.6 26.9547 0 22.5547 0C18.1547 0 14.5547 3.6 14.5547 8C14.5547 12.4 18.1547 16 22.5547 16ZM17.9547 7.2L21.3547 10.6L27.1547 4.8L28.5547 6.2L21.3547 13.4L16.5547 8.6L17.9547 7.2Z" fill="#55565A"/>
</svg>
