<svg width="23" height="26" viewBox="0 0 23 26" fill="none" xmlns="http://www.w3.org/2000/svg">
<path d="M2.19231 1.7321C1.74348 1.7321 1.31303 1.90769 0.995665 2.22025C0.678296 2.53281 0.5 2.95674 0.5 3.39876V5.06543C0.5 5.50746 0.678296 5.93138 0.995665 6.24394C1.31303 6.5565 1.74348 6.7321 2.19231 6.7321H3.03846V21.7321C3.03846 22.6161 3.39505 23.464 4.02979 24.0891C4.66453 24.7142 5.52542 25.0654 6.42308 25.0654H16.5769C17.4746 25.0654 18.3355 24.7142 18.9702 24.0891C19.6049 23.464 19.9615 22.6161 19.9615 21.7321V6.7321H20.8077C21.2565 6.7321 21.687 6.5565 22.0043 6.24394C22.3217 5.93138 22.5 5.50746 22.5 5.06543V3.39876C22.5 2.95674 22.3217 2.53281 22.0043 2.22025C21.687 1.90769 21.2565 1.7321 20.8077 1.7321H14.8846C14.8846 1.29007 14.7063 0.866146 14.3889 0.553585C14.0716 0.241024 13.6411 0.0654297 13.1923 0.0654297L9.80769 0.0654297C9.35886 0.0654297 8.92842 0.241024 8.61105 0.553585C8.29368 0.866146 8.11538 1.29007 8.11538 1.7321H2.19231ZM7.26923 8.39876C7.49364 8.39876 7.70887 8.48656 7.86755 8.64284C8.02624 8.79912 8.11538 9.01108 8.11538 9.2321V20.8988C8.11538 21.1198 8.02624 21.3317 7.86755 21.488C7.70887 21.6443 7.49364 21.7321 7.26923 21.7321C7.04482 21.7321 6.82959 21.6443 6.67091 21.488C6.51223 21.3317 6.42308 21.1198 6.42308 20.8988V9.2321C6.42308 9.01108 6.51223 8.79912 6.67091 8.64284C6.82959 8.48656 7.04482 8.39876 7.26923 8.39876ZM11.5 8.39876C11.7244 8.39876 11.9396 8.48656 12.0983 8.64284C12.257 8.79912 12.3462 9.01108 12.3462 9.2321V20.8988C12.3462 21.1198 12.257 21.3317 12.0983 21.488C11.9396 21.6443 11.7244 21.7321 11.5 21.7321C11.2756 21.7321 11.0604 21.6443 10.9017 21.488C10.743 21.3317 10.6538 21.1198 10.6538 20.8988V9.2321C10.6538 9.01108 10.743 8.79912 10.9017 8.64284C11.0604 8.48656 11.2756 8.39876 11.5 8.39876ZM16.5769 9.2321V20.8988C16.5769 21.1198 16.4878 21.3317 16.3291 21.488C16.1704 21.6443 15.9552 21.7321 15.7308 21.7321C15.5064 21.7321 15.2911 21.6443 15.1324 21.488C14.9738 21.3317 14.8846 21.1198 14.8846 20.8988V9.2321C14.8846 9.01108 14.9738 8.79912 15.1324 8.64284C15.2911 8.48656 15.5064 8.39876 15.7308 8.39876C15.9552 8.39876 16.1704 8.48656 16.3291 8.64284C16.4878 8.79912 16.5769 9.01108 16.5769 9.2321Z" fill="#4D44B5"/>
</svg>
