<svg width="35" height="27" viewBox="0 0 35 27" fill="none" xmlns="http://www.w3.org/2000/svg">
<path d="M2.92863 12.19H17.5004V14.6186H2.92863V12.19ZM0.5 6.11841H12.6431V8.54704H0.5V6.11841Z" fill="#C1BBEB"/>
<path d="M34.4007 12.9259L30.7578 4.42569C30.6643 4.20721 30.5087 4.021 30.3103 3.89018C30.1119 3.75936 29.8795 3.68968 29.6418 3.68982H25.9989V1.26119C25.9989 0.939133 25.871 0.630267 25.6432 0.402539C25.4155 0.174811 25.1066 0.046875 24.7846 0.046875H5.35555V2.4755H23.5703V17.7224C23.0169 18.0437 22.5327 18.4714 22.1455 18.9808C21.7582 19.4901 21.4757 20.0711 21.3141 20.6902H13.6833C13.3878 19.5455 12.6849 18.5479 11.7064 17.8844C10.7279 17.2209 9.54107 16.937 8.36827 17.086C7.19547 17.2349 6.11725 17.8065 5.33573 18.6936C4.55422 19.5807 4.12305 20.7223 4.12305 21.9045C4.12305 23.0867 4.55422 24.2284 5.33573 25.1154C6.11725 26.0025 7.19547 26.5741 8.36827 26.7231C9.54107 26.872 10.7279 26.5881 11.7064 25.9246C12.6849 25.2611 13.3878 24.2635 13.6833 23.1188H21.3141C21.5782 24.161 22.1823 25.0853 23.0308 25.7456C23.8793 26.4059 24.9238 26.7644 25.9989 26.7644C27.074 26.7644 28.1184 26.4059 28.9669 25.7456C29.8154 25.0853 30.4195 24.161 30.6837 23.1188H33.2848C33.6068 23.1188 33.9157 22.9909 34.1434 22.7632C34.3711 22.5354 34.4991 22.2266 34.4991 21.9045V13.4043C34.4991 13.2398 34.4657 13.077 34.4007 12.9259ZM8.9985 24.3331C8.51816 24.3331 8.04861 24.1907 7.64922 23.9238C7.24984 23.657 6.93855 23.2777 6.75474 22.8339C6.57092 22.3901 6.52282 21.9018 6.61653 21.4307C6.71024 20.9596 6.94155 20.5269 7.2812 20.1872C7.62085 19.8476 8.05359 19.6163 8.52469 19.5226C8.9958 19.4288 9.48412 19.4769 9.92789 19.6608C10.3717 19.8446 10.751 20.1559 11.0178 20.5552C11.2847 20.9546 11.4271 21.4242 11.4271 21.9045C11.4265 22.5484 11.1704 23.1658 10.7151 23.6211C10.2598 24.0764 9.64241 24.3325 8.9985 24.3331ZM25.9989 6.11844H28.8404L31.4439 12.19H25.9989V6.11844ZM25.9989 24.3331C25.5185 24.3331 25.049 24.1907 24.6496 23.9238C24.2502 23.657 23.9389 23.2777 23.7551 22.8339C23.5713 22.3901 23.5232 21.9018 23.6169 21.4307C23.7106 20.9596 23.9419 20.5269 24.2816 20.1872C24.6212 19.8476 25.054 19.6163 25.5251 19.5226C25.9962 19.4288 26.4845 19.4769 26.9283 19.6608C27.3721 19.8446 27.7514 20.1559 28.0182 20.5552C28.2851 20.9546 28.4275 21.4242 28.4275 21.9045C28.4269 22.5484 28.1708 23.1658 27.7155 23.6211C27.2602 24.0764 26.6428 24.3325 25.9989 24.3331ZM32.0705 20.6902H30.6837C30.4162 19.6501 29.8111 18.7281 28.9633 18.0688C28.1155 17.4095 27.0729 17.0503 25.9989 17.0473V14.6186H32.0705V20.6902Z" fill="#C1BBEB"/>
</svg>
