<svg width="11" height="15" viewBox="0 0 11 15" fill="none" xmlns="http://www.w3.org/2000/svg">
<path d="M10.1673 13.5846C10.1673 13.9528 9.86884 14.2513 9.50065 14.2513H1.50065C1.13246 14.2513 0.833984 13.9528 0.833984 13.5846C0.833984 13.2164 1.13246 12.918 1.50065 12.918H9.50065C9.86884 12.918 10.1673 13.2164 10.1673 13.5846ZM5.70578 11.3795C5.59249 11.4928 5.40881 11.4928 5.29552 11.3795L1.97098 8.05496C1.71122 7.79521 1.71122 7.37406 1.97098 7.11431C2.23048 6.85481 2.65112 6.85452 2.91098 7.11365L4.83398 9.0313V1.58464C4.83398 1.21645 5.13246 0.917969 5.50065 0.917969C5.86884 0.917969 6.16732 1.21645 6.16732 1.58464V9.0313L8.09032 7.11365C8.35018 6.85452 8.77082 6.85481 9.03032 7.11431C9.29008 7.37406 9.29008 7.79521 9.03032 8.05496L5.70578 11.3795Z" fill="#343A40"/>
</svg>
