<svg width="17" height="10" viewBox="0 0 17 10" fill="none" xmlns="http://www.w3.org/2000/svg">
<path d="M0.805469 0.872485C0.397136 1.28082 0.397136 1.93915 0.805469 2.34749L7.73047 9.27248C7.80756 9.34974 7.89914 9.41103 7.99995 9.45285C8.10076 9.49466 8.20883 9.51619 8.31797 9.51619C8.42711 9.51619 8.53518 9.49466 8.63599 9.45285C8.7368 9.41103 8.82837 9.34974 8.90547 9.27248L15.8305 2.34749C16.2388 1.93915 16.2388 1.28082 15.8305 0.872485C15.4221 0.464152 14.7638 0.464152 14.3555 0.872485L8.3138 6.90582L2.27214 0.864152C1.87214 0.464152 1.20547 0.464152 0.805469 0.872485Z" fill="#4D44B5"/>
</svg>
