<svg width="17" height="18" viewBox="0 0 17 18" fill="none" xmlns="http://www.w3.org/2000/svg">
<path d="M6.51063 7.76866V13.3242C6.51063 13.5084 6.5838 13.685 6.71403 13.8153C6.84427 13.9455 7.0209 14.0187 7.20508 14.0187C7.38926 14.0187 7.56589 13.9455 7.69612 13.8153C7.82636 13.685 7.89952 13.5084 7.89952 13.3242V7.76866C7.89952 7.58448 7.82636 7.40785 7.69612 7.27762C7.56589 7.14738 7.38926 7.07422 7.20508 7.07422C7.0209 7.07422 6.84427 7.14738 6.71403 7.27762C6.5838 7.40785 6.51063 7.58448 6.51063 7.76866ZM9.98286 7.07422C10.167 7.07422 10.3437 7.14738 10.4739 7.27762C10.6041 7.40785 10.6773 7.58448 10.6773 7.76866V13.3242C10.6773 13.5084 10.6041 13.685 10.4739 13.8153C10.3437 13.9455 10.167 14.0187 9.98286 14.0187C9.79868 14.0187 9.62204 13.9455 9.49181 13.8153C9.36158 13.685 9.28841 13.5084 9.28841 13.3242V7.76866C9.28841 7.58448 9.36158 7.40785 9.49181 7.27762C9.62204 7.14738 9.79868 7.07422 9.98286 7.07422ZM11.3717 3.602H15.5384C15.7226 3.602 15.8992 3.67516 16.0295 3.80539C16.1597 3.93563 16.2329 4.11226 16.2329 4.29644C16.2329 4.48062 16.1597 4.65725 16.0295 4.78749C15.8992 4.91772 15.7226 4.99089 15.5384 4.99089H14.7704L13.7259 14.402C13.6316 15.2514 13.2273 16.0361 12.5905 16.606C11.9537 17.1759 11.1291 17.491 10.2745 17.4909H6.91341C6.05883 17.491 5.23422 17.1759 4.59743 16.606C3.96063 16.0361 3.55637 15.2514 3.46202 14.402L2.41619 4.99089H1.64952C1.46534 4.99089 1.28871 4.91772 1.15848 4.78749C1.02824 4.65725 0.955078 4.48062 0.955078 4.29644C0.955078 4.11226 1.02824 3.93563 1.15848 3.80539C1.28871 3.67516 1.46534 3.602 1.64952 3.602H5.81619C5.81619 2.86528 6.10885 2.15875 6.62978 1.63781C7.15072 1.11688 7.85725 0.824219 8.59397 0.824219C9.33068 0.824219 10.0372 1.11688 10.5582 1.63781C11.0791 2.15875 11.3717 2.86528 11.3717 3.602V3.602ZM8.59397 2.21311C8.22561 2.21311 7.87234 2.35944 7.61187 2.6199C7.35141 2.88037 7.20508 3.23364 7.20508 3.602H9.98286C9.98286 3.23364 9.83653 2.88037 9.57606 2.6199C9.31559 2.35944 8.96232 2.21311 8.59397 2.21311V2.21311ZM3.8148 4.99089L4.84258 14.2492C4.89931 14.7587 5.14192 15.2294 5.52399 15.5713C5.90605 15.9131 6.40075 16.1021 6.91341 16.102H10.2745C10.7869 16.1017 11.2813 15.9126 11.6631 15.5708C12.0448 15.229 12.2873 14.7585 12.344 14.2492L13.3745 4.99089H3.81619H3.8148Z" fill="#699BF7"/>
</svg>
