<svg width="25" height="25" viewBox="0 0 25 25" fill="none" xmlns="http://www.w3.org/2000/svg">
<path d="M17.8034 4.89064L20.4509 7.53689L17.8034 4.89064ZM19.5059 2.55939L12.3472 9.71814C11.9773 10.0875 11.725 10.5581 11.6222 11.0706L10.9609 14.3806L14.2709 13.7181C14.7834 13.6156 15.2534 13.3644 15.6234 12.9944L22.7822 5.83564C22.9973 5.62052 23.168 5.36513 23.2844 5.08406C23.4008 4.80299 23.4607 4.50175 23.4607 4.19752C23.4607 3.89329 23.4008 3.59204 23.2844 3.31097C23.168 3.0299 22.9973 2.77451 22.7822 2.55939C22.5671 2.34427 22.3117 2.17363 22.0306 2.0572C21.7495 1.94078 21.4483 1.88086 21.1441 1.88086C20.8398 1.88086 20.5386 1.94078 20.2575 2.0572C19.9764 2.17363 19.7211 2.34427 19.5059 2.55939V2.55939Z" stroke="#699BF7" stroke-width="2.5" stroke-linecap="round" stroke-linejoin="round"/>
<path d="M20.9609 16.8809V20.6309C20.9609 21.2939 20.6975 21.9298 20.2287 22.3986C19.7599 22.8675 19.124 23.1309 18.4609 23.1309H4.71094C4.0479 23.1309 3.41201 22.8675 2.94317 22.3986C2.47433 21.9298 2.21094 21.2939 2.21094 20.6309V6.88086C2.21094 6.21782 2.47433 5.58193 2.94317 5.11309C3.41201 4.64425 4.0479 4.38086 4.71094 4.38086H8.46094" stroke="#699BF7" stroke-width="2.5" stroke-linecap="round" stroke-linejoin="round"/>
</svg>
