<svg width="23" height="17" viewBox="0 0 23 17" fill="none" xmlns="http://www.w3.org/2000/svg">
<path d="M19.5 0.0651855H3.5C2.70435 0.0651855 1.94129 0.381256 1.37868 0.943865C0.81607 1.50647 0.5 2.26954 0.5 3.06519V13.0652C0.5 13.8608 0.81607 14.6239 1.37868 15.1865C1.94129 15.7491 2.70435 16.0652 3.5 16.0652H19.5C20.2956 16.0652 21.0587 15.7491 21.6213 15.1865C22.1839 14.6239 22.5 13.8608 22.5 13.0652V3.06519C22.5 2.26954 22.1839 1.50647 21.6213 0.943865C21.0587 0.381256 20.2956 0.0651855 19.5 0.0651855ZM20.5 12.8152L15.6 8.41518L20.5 4.98519V12.8152ZM2.5 4.98519L7.4 8.41518L2.5 12.8152V4.98519ZM9.08 9.59518L10.93 10.8852C11.0974 11.0013 11.2963 11.0635 11.5 11.0635C11.7037 11.0635 11.9026 11.0013 12.07 10.8852L13.92 9.59518L18.92 14.0652H4.1L9.08 9.59518ZM3.5 2.06519H19.5C19.6857 2.06667 19.8674 2.11985 20.0245 2.21876C20.1817 2.31767 20.3083 2.4584 20.39 2.62519L11.5 8.84518L2.61 2.62519C2.69171 2.4584 2.81826 2.31767 2.97545 2.21876C3.13265 2.11985 3.31428 2.06667 3.5 2.06519Z" fill="white"/>
</svg>
