<svg width="18" height="18" viewBox="0 0 18 18" fill="none" xmlns="http://www.w3.org/2000/svg">
<path d="M2.73507 8.55665C2.69369 8.56041 2.67279 8.50945 2.70217 8.48006C2.78356 8.39867 2.86495 8.31729 2.94634 8.2359C3.07251 8.10973 3.20019 7.98204 3.32636 7.85588C3.37196 7.81028 3.41756 7.76467 3.46317 7.71907C3.52549 7.65675 3.59237 7.59899 3.64861 7.53058C3.78846 7.36641 3.81578 7.12619 3.71996 6.93309C3.62262 6.73846 3.41278 6.61984 3.19537 6.63348C3.0479 6.64409 2.92324 6.714 2.8214 6.81585C2.75148 6.88577 2.68003 6.95722 2.61011 7.02714C2.50978 7.12747 2.41098 7.22627 2.31065 7.3266C2.17081 7.46644 2.03096 7.60629 1.89111 7.74614C1.77711 7.86014 1.66158 7.97567 1.54758 8.08967C1.45485 8.1824 1.36213 8.27512 1.26788 8.36937C1.1858 8.45145 1.10219 8.53506 1.02011 8.61714C0.972986 8.66426 0.919783 8.71138 0.878743 8.76459C0.743463 8.93636 0.723745 9.18114 0.831728 9.37425C0.877354 9.45331 0.947303 9.51718 1.01117 9.58105C1.14195 9.71183 1.2712 9.84108 1.40198 9.97186C1.52819 10.0981 1.65593 10.2258 1.78214 10.352C1.87642 10.4463 1.97223 10.5421 2.06651 10.6364C2.17447 10.7444 2.28092 10.8508 2.38889 10.9588C2.53183 11.1017 2.67477 11.2446 2.81771 11.3876C2.91503 11.4849 3.02603 11.5564 3.16591 11.5747C3.38181 11.6021 3.59616 11.4942 3.70559 11.3057C3.8135 11.1187 3.79825 10.8785 3.66899 10.7066C3.60816 10.6245 3.52756 10.5561 3.45609 10.4846C3.34356 10.3721 3.23256 10.2611 3.12003 10.1486C3.0151 10.0436 2.90866 9.93718 2.80373 9.83225C2.73666 9.76519 2.78447 9.65037 2.87932 9.65049C3.13842 9.65083 3.39752 9.6503 3.65662 9.65149C3.96374 9.65155 4.26933 9.65313 4.57492 9.65167C4.86075 9.65172 5.14658 9.65178 5.43241 9.65183C5.7152 9.65189 6.00103 9.65194 6.28382 9.652C6.49971 9.65204 6.7156 9.65208 6.92997 9.65364C6.97558 9.65365 7.02119 9.65366 7.0668 9.65367C7.27053 9.65066 7.46056 9.53971 7.55327 9.35577C7.64749 9.17334 7.62769 8.9468 7.5045 8.78106C7.40109 8.64117 7.23688 8.56207 7.06356 8.56204C6.90392 8.56049 6.74428 8.56198 6.58312 8.56195C6.29881 8.56037 6.0145 8.56184 5.73019 8.56027C5.417 8.56021 5.10684 8.56015 4.79365 8.56009C4.44092 8.56002 4.0882 8.55995 3.73395 8.55836C3.40099 8.55678 3.06803 8.55824 2.73507 8.55665ZM8.44301 11.0633C8.44307 11.3856 8.44313 11.7079 8.44319 12.0303C8.44172 12.2933 8.44329 12.5563 8.44182 12.8193C8.44187 13.0687 8.44192 13.318 8.44044 13.5689C8.43898 13.8501 8.44055 14.1314 8.43909 14.4127C8.43915 14.7563 8.43922 15.0968 8.43928 15.4404C8.43928 15.4505 8.42708 15.4556 8.41994 15.4485C8.26204 15.2906 8.10286 15.1314 7.94507 14.9736C7.78236 14.8109 7.62117 14.6497 7.45846 14.487C7.36722 14.3957 7.25774 14.3319 7.13003 14.3136C6.96279 14.2892 6.79252 14.347 6.67243 14.4671L6.67395 14.4656C6.54778 14.5917 6.49004 14.7741 6.52353 14.9475C6.54483 15.0661 6.60567 15.1664 6.6893 15.2501C6.80944 15.3702 6.92805 15.4888 7.04818 15.6089C7.23674 15.7975 7.4253 15.9861 7.61538 16.1761C7.78418 16.3449 7.95449 16.5152 8.12328 16.684C8.23125 16.792 8.33922 16.9 8.44718 17.0079C8.49584 17.0566 8.54298 17.1037 8.59165 17.1524C8.68593 17.2467 8.80605 17.309 8.93984 17.3212C9.10252 17.3349 9.25911 17.2757 9.37464 17.1632C9.41416 17.1237 9.45368 17.0842 9.49168 17.0462C9.60873 16.9291 9.72577 16.8121 9.84282 16.695C10.01 16.5278 10.1772 16.3606 10.3444 16.1934C10.5269 16.011 10.7093 15.8286 10.8917 15.6462C11.0163 15.5215 11.1394 15.3984 11.2641 15.2737C11.331 15.2069 11.3903 15.1354 11.4252 15.0457C11.486 14.8846 11.4677 14.7021 11.3749 14.5577C11.1864 14.2627 10.7698 14.2292 10.5235 14.4724C10.4323 14.5636 10.3426 14.6533 10.2514 14.7445C10.0584 14.9375 9.86533 15.1306 9.67228 15.3236C9.62066 15.3752 9.53241 15.3387 9.53239 15.2657C9.53237 15.1765 9.53236 15.0874 9.53234 14.9982C9.5323 14.7975 9.53074 14.5953 9.53222 14.3931C9.5322 14.2806 9.53218 14.1711 9.53216 14.0586C9.53212 13.8336 9.53207 13.6056 9.53203 13.3806C9.53201 13.2863 9.532 13.192 9.53198 13.0978C9.53193 12.8697 9.53037 12.6401 9.53185 12.4106C9.53183 12.3072 9.53181 12.2038 9.53179 12.1004C9.53175 11.8876 9.53171 11.6777 9.53167 11.4649C9.53165 11.3615 9.53163 11.2612 9.53161 11.1578C9.53159 11.0909 9.53462 11.024 9.52245 10.9571C9.48288 10.7381 9.30496 10.5633 9.08754 10.5222C8.8686 10.4796 8.64208 10.5783 8.52201 10.7653C8.47337 10.8565 8.44299 10.9599 8.44301 11.0633ZM14.3853 6.75725C14.1725 6.97006 14.1786 7.3167 14.387 7.53111C14.4691 7.61323 14.5527 7.69686 14.6348 7.77898C14.7991 7.94321 14.9648 8.10896 15.129 8.27319C15.2231 8.36726 15.1569 8.52811 15.0239 8.52868C14.8033 8.52962 14.5824 8.53057 14.3628 8.53151C14.0618 8.53145 13.7608 8.53443 13.4597 8.53438C13.1785 8.53584 12.8987 8.53579 12.6175 8.53726C12.3392 8.53872 12.0595 8.53867 11.7797 8.54166C11.5654 8.54314 11.3525 8.5431 11.1381 8.54458C11.0895 8.54457 11.0424 8.54608 10.9952 8.54455C10.8067 8.54755 10.6304 8.64482 10.527 8.80292C10.416 8.9747 10.4085 9.19515 10.5089 9.37154C10.6032 9.54183 10.7841 9.64677 10.9787 9.64985C11.1231 9.6514 11.2676 9.64991 11.4135 9.64994C11.6994 9.64999 11.9852 9.65004 12.2695 9.65162C12.5797 9.65168 12.8898 9.65174 13.2015 9.65332C13.5512 9.65338 13.8993 9.65497 14.2475 9.65352C14.5744 9.6551 14.9013 9.65364 15.2281 9.65523C15.2693 9.65523 15.2911 9.70787 15.262 9.73696C15.063 9.93591 14.865 10.134 14.6657 10.3332C14.5593 10.4396 14.4514 10.5445 14.3465 10.6524C14.2188 10.7831 14.1596 10.9701 14.1961 11.1495C14.2387 11.3563 14.4029 11.5236 14.6082 11.5708C14.7937 11.6134 14.9837 11.5541 15.1175 11.4234C15.1692 11.3717 15.2208 11.32 15.271 11.2699C15.382 11.1589 15.4929 11.0479 15.6039 10.937C15.8304 10.7105 16.0569 10.484 16.2834 10.2575C16.5236 10.0173 16.7637 9.77715 17.0054 9.53546C17.0176 9.5233 17.0297 9.51113 17.0419 9.49897C17.1453 9.39561 17.2182 9.24663 17.2227 9.09915C17.2258 8.95928 17.1908 8.80267 17.0934 8.69623C17.0189 8.61564 16.9368 8.5396 16.8577 8.46053C16.7042 8.30694 16.549 8.15184 16.3955 7.99825C16.2419 7.84466 16.0883 7.69108 15.9362 7.53901C15.7826 7.38542 15.629 7.23184 15.4755 7.07825C15.3751 6.97789 15.2747 6.87752 15.1759 6.77868C15.1181 6.7209 15.0558 6.67071 14.9797 6.64029C14.8475 6.58401 14.6954 6.58398 14.5632 6.63717C14.4993 6.66453 14.437 6.70556 14.3853 6.75725ZM9.37154 0.971292C9.58443 1.18418 9.79733 1.39708 10.0102 1.60997C10.255 1.85479 10.4999 2.09962 10.7447 2.34445C10.8344 2.43416 10.9241 2.52388 11.0139 2.6136C11.0899 2.68963 11.1659 2.76567 11.242 2.8417C11.3165 2.91621 11.3879 2.99072 11.426 3.0926C11.499 3.28722 11.4534 3.51222 11.312 3.66271C11.1707 3.81016 10.9548 3.86789 10.7587 3.80856C10.6309 3.76901 10.5427 3.68385 10.4515 3.59261C10.3952 3.53635 10.3375 3.47856 10.2812 3.4223C10.0531 3.1942 9.82499 2.9661 9.59689 2.738C9.57389 2.715 9.53456 2.73129 9.53456 2.76382C9.53462 3.08153 9.53469 3.40135 9.53475 3.71863C9.5348 4.02574 9.53486 4.3359 9.53492 4.64301C9.53498 4.92884 9.53503 5.21467 9.53509 5.50354C9.53514 5.78937 9.5352 6.07215 9.53525 6.35798C9.53529 6.57387 9.53533 6.78977 9.5369 7.00718C9.5369 7.05887 9.53691 7.10752 9.53692 7.15922C9.53544 7.35534 9.43361 7.53625 9.26335 7.63352C9.08548 7.73535 8.85743 7.72922 8.68713 7.61364C8.53659 7.51175 8.44686 7.33993 8.44682 7.15749C8.44679 6.99937 8.44676 6.84125 8.44673 6.68313C8.44667 6.39426 8.44662 6.10539 8.44504 5.815C8.44346 5.50029 8.44492 5.18557 8.44334 4.87086C8.44327 4.51509 8.44321 4.15932 8.44162 3.80204C8.44003 3.46604 8.44149 3.13003 8.43991 2.79403C8.4399 2.75026 8.38698 2.72835 8.35603 2.7593C8.27099 2.84434 8.18552 2.92981 8.10091 3.01442C7.97322 3.14211 7.84401 3.27132 7.71633 3.399C7.66464 3.45068 7.61448 3.50085 7.5628 3.55253C7.47463 3.64069 7.39103 3.73646 7.27397 3.78661C7.07026 3.87475 6.82851 3.82758 6.67189 3.67095C6.51526 3.51432 6.4696 3.27105 6.55622 3.06886C6.59877 2.96852 6.67326 2.89708 6.74774 2.8226C6.83135 2.73899 6.91495 2.65539 6.99856 2.57178C7.09584 2.4745 7.19464 2.3757 7.29193 2.27841C7.40898 2.16136 7.52754 2.0428 7.64459 1.92575C7.78747 1.78287 7.93188 1.63846 8.07477 1.49557C8.18117 1.38917 8.28758 1.28276 8.39398 1.17636C8.45935 1.11099 8.52319 1.04715 8.58855 0.981786C8.71624 0.854099 8.89259 0.790277 9.072 0.820719C9.18603 0.837465 9.29095 0.890697 9.37154 0.971292Z" fill="#343A40"/>
</svg>
