<svg width="16" height="16" viewBox="0 0 16 16" fill="none" xmlns="http://www.w3.org/2000/svg">
<g clip-path="url(#clip0_414_6970)">
<path d="M7.71094 10.0059C8.74647 10.0059 9.58594 9.16639 9.58594 8.13086C9.58594 7.09533 8.74647 6.25586 7.71094 6.25586C6.6754 6.25586 5.83594 7.09533 5.83594 8.13086C5.83594 9.16639 6.6754 10.0059 7.71094 10.0059Z" fill="#4D44B5"/>
<path d="M14.7139 7.97148C14.1625 6.54538 13.2054 5.31209 11.9608 4.42402C10.7162 3.53596 9.23862 3.03207 7.71074 2.97461C6.18286 3.03207 4.7053 3.53596 3.46068 4.42402C2.21606 5.31209 1.25894 6.54538 0.707613 7.97148C0.670379 8.07447 0.670379 8.18725 0.707613 8.29023C1.25894 9.71634 2.21606 10.9496 3.46068 11.8377C4.7053 12.7258 6.18286 13.2297 7.71074 13.2871C9.23862 13.2297 10.7162 12.7258 11.9608 11.8377C13.2054 10.9496 14.1625 9.71634 14.7139 8.29023C14.7511 8.18725 14.7511 8.07447 14.7139 7.97148ZM7.71074 11.1777C7.10812 11.1777 6.51904 10.999 6.01799 10.6642C5.51693 10.3294 5.1264 9.85359 4.89579 9.29685C4.66518 8.7401 4.60484 8.12748 4.72241 7.53644C4.83997 6.94541 5.13016 6.40251 5.55627 5.97639C5.98239 5.55028 6.52529 5.26009 7.11632 5.14253C7.70736 5.02497 8.31998 5.0853 8.87673 5.31591C9.43347 5.54652 9.90933 5.93705 10.2441 6.43811C10.5789 6.93916 10.7576 7.52824 10.7576 8.13086C10.7564 8.93856 10.435 9.71282 9.86384 10.284C9.2927 10.8551 8.51844 11.1765 7.71074 11.1777Z" fill="#4D44B5"/>
</g>
<defs>
<clipPath id="clip0_414_6970">
<rect width="15" height="15" fill="white" transform="translate(0.210938 0.630859)"/>
</clipPath>
</defs>
</svg>
