<svg width="36" height="36" viewBox="0 0 36 36" fill="none" xmlns="http://www.w3.org/2000/svg">
<path d="M30.4492 16.5195L23.7773 9.84766C23.4492 9.41016 22.9023 9.19141 22.3555 9.19141H13.6055C12.4023 9.19141 11.418 10.1758 11.418 11.3789V31.0664C11.418 32.2695 12.4023 33.2539 13.6055 33.2539H28.918C30.1211 33.2539 31.1055 32.2695 31.1055 31.0664V18.0508C31.1055 17.5039 30.8867 16.957 30.4492 16.5195ZM22.3555 11.3789L28.8086 17.9414H22.3555V11.3789ZM13.6055 31.0664V11.3789H20.168V17.9414C20.168 19.1445 21.1523 20.1289 22.3555 20.1289H28.918V31.0664H13.6055Z" fill="#F3F4FF"/>
<path d="M7.04297 20.1289H4.85547V4.81641C4.85547 3.61328 5.83984 2.62891 7.04297 2.62891H22.3555V4.81641H7.04297V20.1289Z" fill="#F3F4FF"/>
</svg>
