<svg width="18" height="17" viewBox="0 0 18 17" fill="none" xmlns="http://www.w3.org/2000/svg">
<path opacity="0.3" fill-rule="evenodd" clip-rule="evenodd" d="M8.5625 12.7494L8.56408 12.7486L11.4572 14.2696C11.5951 14.3421 11.753 14.3671 11.9065 14.3408C12.2921 14.2746 12.5511 13.9085 12.4849 13.5229L11.9324 10.3014L14.273 8.01988C14.3845 7.91114 14.4571 7.76867 14.4795 7.61451C14.5358 7.22737 14.2675 6.86793 13.8804 6.81168L10.6458 6.34167L9.19927 3.41063C9.13032 3.27094 9.01726 3.15787 8.87756 3.08893C8.7761 3.03885 8.66845 3.01531 8.5625 3.01563V12.7494Z" fill="#FFA800"/>
<path fill-rule="evenodd" clip-rule="evenodd" d="M8.5625 3.01562C8.30188 3.01617 8.0514 3.16108 7.92824 3.41063L6.48169 6.34166L3.2471 6.81168C3.09294 6.83408 2.95047 6.90667 2.84173 7.01822C2.56867 7.29836 2.5744 7.74681 2.85453 8.01988L5.1951 10.3014L4.64257 13.5229C4.61624 13.6764 4.64125 13.8344 4.71374 13.9722C4.89578 14.3185 5.32406 14.4516 5.67033 14.2696L8.5625 12.7491V3.01562Z" fill="#FFA800"/>
</svg>
