<svg width="34" height="28" viewBox="0 0 34 28" fill="none" xmlns="http://www.w3.org/2000/svg">
<path d="M17 0C16.3815 -9.12647e-09 15.7691 0.120634 15.1977 0.355015C14.6263 0.589396 14.1072 0.932933 13.6698 1.36601C13.2325 1.79909 12.8856 2.31323 12.6489 2.87908C12.4122 3.44492 12.2904 4.05139 12.2904 4.66386C12.2904 5.27633 12.4122 5.8828 12.6489 6.44864C12.8856 7.01449 13.2325 7.52863 13.6698 7.96171C14.1072 8.39479 14.6263 8.73833 15.1977 8.97271C15.7691 9.20709 16.3815 9.32772 17 9.32772C18.2491 9.32772 19.447 8.83635 20.3302 7.96171C21.2134 7.08706 21.7096 5.90079 21.7096 4.66386C21.7096 3.42693 21.2134 2.24066 20.3302 1.36601C19.447 0.491369 18.2491 0 17 0ZM27.6071 2.3296C26.6694 2.3296 25.7701 2.69849 25.107 3.35513C24.4439 4.01177 24.0714 4.90236 24.0714 5.83099C24.0714 6.75962 24.4439 7.65022 25.107 8.30685C25.7701 8.96349 26.6694 9.33239 27.6071 9.33239C28.5449 9.33239 29.4442 8.96349 30.1073 8.30685C30.7703 7.65022 31.1429 6.75962 31.1429 5.83099C31.1429 4.90236 30.7703 4.01177 30.1073 3.35513C29.4442 2.69849 28.5449 2.3296 27.6071 2.3296ZM6.39286 2.3296C5.45513 2.3296 4.55581 2.69849 3.89273 3.35513C3.22966 4.01177 2.85714 4.90236 2.85714 5.83099C2.85714 6.75962 3.22966 7.65022 3.89273 8.30685C4.55581 8.96349 5.45513 9.33239 6.39286 9.33239C7.33059 9.33239 8.22991 8.96349 8.89299 8.30685C9.55606 7.65022 9.92857 6.75962 9.92857 5.83099C9.92857 4.90236 9.55606 4.01177 8.89299 3.35513C8.22991 2.69849 7.33059 2.3296 6.39286 2.3296ZM9.92857 13.9846C9.93293 13.3683 10.1832 12.7788 10.6248 12.3446C11.0663 11.9103 11.6634 11.6666 12.2857 11.6667H21.7143C22.3394 11.6667 22.939 11.9126 23.381 12.3503C23.8231 12.7881 24.0714 13.3818 24.0714 14.0009V21.0037C24.0713 21.7384 23.9552 22.4685 23.7273 23.1676C23.2054 24.7518 22.1302 26.1 20.6949 26.9699C19.2595 27.8397 17.5581 28.1744 15.896 27.9138C14.2339 27.6531 12.7201 26.8143 11.6264 25.5478C10.5327 24.2813 9.9307 22.6702 9.92857 21.0037V13.9846ZM7.57143 14.0009C7.57143 13.1489 7.80007 12.3529 8.20314 11.6667H2.85714C2.23199 11.6667 1.63244 11.9126 1.19039 12.3503C0.748341 12.7881 0.5 13.3818 0.5 14.0009V19.8366C0.499679 20.792 0.736247 21.7329 1.18893 22.5766C1.64161 23.4204 2.29656 24.1411 3.09626 24.6756C3.89595 25.2101 4.81594 25.542 5.77542 25.6421C6.7349 25.7422 7.70452 25.6075 8.59914 25.2497C7.92071 23.9346 7.56841 22.4782 7.57143 21.0014V14.0009ZM26.4286 14.0009V21.0037C26.4286 22.5327 26.0585 23.9752 25.4009 25.2497C26.2955 25.6075 27.2651 25.7422 28.2246 25.6421C29.1841 25.542 30.104 25.2101 30.9037 24.6756C31.7034 24.1411 32.3584 23.4204 32.8111 22.5766C33.2638 21.7329 33.5003 20.792 33.5 19.8366V14.0009C33.5 13.3818 33.2517 12.7881 32.8096 12.3503C32.3676 11.9126 31.768 11.6667 31.1429 11.6667H25.7969C26.1976 12.3529 26.4286 13.1489 26.4286 14.0009Z" fill="#C5BFED"/>
</svg>
