<svg width="37" height="41" viewBox="0 0 37 41" fill="none" xmlns="http://www.w3.org/2000/svg">
<path d="M34.7356 21.8904C32.4946 21.0783 30.0086 21.2588 27.9067 22.3843L24.4802 23.9257C24.2033 22.3476 22.9913 21.1617 21.4953 21.1161C21.4865 21.1158 16.3577 21.058 16.3577 21.058C12.2526 19.9319 9.58522 21.3788 8.0636 22.8048C7.7524 23.0964 7.47873 23.3967 7.23787 23.6929C6.82727 23.2506 6.10249 23.1325 5.57394 23.4231L0.9183 25.9823C0.314454 26.3142 0.0517188 27.0425 0.304967 27.6827L4.85488 39.1846C5.15386 39.9403 6.07266 40.2743 6.78958 39.8802L11.4452 37.3211C11.8816 37.0811 12.1386 36.6341 12.1527 36.1631H19.1012C20.2346 36.1631 21.3536 35.8654 22.3372 35.3022C22.3372 35.3022 35.4056 27.8058 35.4793 27.7388C37.3094 26.0739 37.3658 22.8435 34.7356 21.8904C35.7848 22.2706 32.4946 21.0783 34.7356 21.8904ZM6.83121 36.7349L3.29582 27.7976L5.53206 26.5685L9.06745 35.5057L6.83121 36.7349ZM33.7306 25.6241L20.9738 32.9295C20.4045 33.2556 19.7568 33.4279 19.1009 33.4279H11.1909L8.53505 26.7139C8.76257 26.2503 9.21069 25.4811 9.93847 24.7991C11.429 23.4023 13.3936 23.0449 15.7781 23.7367C15.8974 23.7713 16.0208 23.7895 16.1449 23.791L21.417 23.8503C21.5516 23.8619 21.8001 24.1611 21.8001 24.6148C21.8001 25.0818 21.5435 25.3796 21.4093 25.3796H16.2292V28.1148H21.4093C22.051 28.1148 22.6482 27.8978 23.1453 27.526L29.0769 24.8578C29.1084 24.8436 29.1392 24.8284 29.1694 24.8119C30.5923 24.0382 32.2805 23.9105 33.8009 24.4614C34.4025 24.6795 33.9679 25.3833 33.7306 25.6241ZM25.499 19.7548C20.0659 19.7548 15.6457 15.3343 15.6457 9.90081C15.6457 4.46739 20.0658 0.046875 25.499 0.046875C30.9321 0.046875 35.3522 4.46739 35.3522 9.90081C35.3522 15.3343 30.9321 19.7548 25.499 19.7548ZM25.499 2.78209C21.5765 2.78209 18.3854 5.97551 18.3854 9.90081C18.3854 13.8261 21.5766 17.0195 25.499 17.0195C29.4215 17.0195 32.6127 13.826 32.6127 9.90081C32.6127 5.97559 29.4215 2.78209 25.499 2.78209Z" fill="#C1BBEB"/>
</svg>
