<svg width="19" height="19" viewBox="0 0 19 19" fill="none" xmlns="http://www.w3.org/2000/svg">
<path d="M5.51667 4.15234C5.25066 4.15234 4.99554 4.25802 4.80744 4.44612C4.61934 4.63421 4.51367 4.88933 4.51367 5.15534C4.51367 5.42136 4.61934 5.67647 4.80744 5.86457C4.99554 6.05267 5.25066 6.15834 5.51667 6.15834H13.4667C13.7327 6.15834 13.9878 6.05267 14.1759 5.86457C14.364 5.67647 14.4697 5.42136 14.4697 5.15534C14.4697 4.88933 14.364 4.63421 14.1759 4.44612C13.9878 4.25802 13.7327 4.15234 13.4667 4.15234H5.51667ZM4.51667 9.17034C4.51667 8.61834 4.96367 8.16734 5.51667 8.16734H13.4667C13.7327 8.16734 13.9878 8.27302 14.1759 8.46112C14.364 8.64921 14.4697 8.90433 14.4697 9.17034C14.4697 9.43636 14.364 9.69147 14.1759 9.87957C13.9878 10.0677 13.7327 10.1733 13.4667 10.1733H5.51667C4.96367 10.1733 4.51667 9.72334 4.51667 9.17034ZM5.52567 12.1823C5.25953 12.1823 5.00428 12.2881 4.81609 12.4763C4.6279 12.6645 4.52217 12.9197 4.52217 13.1858C4.52217 13.452 4.6279 13.7072 4.81609 13.8954C5.00428 14.0836 5.25953 14.1893 5.52567 14.1893H13.4757C13.7418 14.1893 13.9971 14.0836 14.1853 13.8954C14.3734 13.7072 14.4792 13.452 14.4792 13.1858C14.4792 12.9197 14.3734 12.6645 14.1853 12.4763C13.9971 12.2881 13.7418 12.1823 13.4757 12.1823H5.52567Z" fill="white"/>
<path fill-rule="evenodd" clip-rule="evenodd" d="M0.5 3.16992C0.5 2.37427 0.816071 1.61121 1.37868 1.0486C1.94129 0.485992 2.70435 0.169922 3.5 0.169922H15.5C16.2956 0.169922 17.0587 0.485992 17.6213 1.0486C18.1839 1.61121 18.5 2.37427 18.5 3.16992V15.1699C18.5 15.9656 18.1839 16.7286 17.6213 17.2912C17.0587 17.8539 16.2956 18.1699 15.5 18.1699H3.5C2.70435 18.1699 1.94129 17.8539 1.37868 17.2912C0.816071 16.7286 0.5 15.9656 0.5 15.1699V3.16992ZM3.5 2.16992H15.5C15.7652 2.16992 16.0196 2.27528 16.2071 2.46282C16.3946 2.65035 16.5 2.90471 16.5 3.16992V15.1699C16.5 15.4351 16.3946 15.6895 16.2071 15.877C16.0196 16.0646 15.7652 16.1699 15.5 16.1699H3.5C3.23478 16.1699 2.98043 16.0646 2.79289 15.877C2.60536 15.6895 2.5 15.4351 2.5 15.1699V3.16992C2.5 2.90471 2.60536 2.65035 2.79289 2.46282C2.98043 2.27528 3.23478 2.16992 3.5 2.16992Z" fill="white"/>
</svg>
