<svg width="134" height="40" viewBox="0 0 134 40" fill="none" xmlns="http://www.w3.org/2000/svg">
<path d="M8.92952 39.2442C8.5852 39.2442 8.2492 39.2403 7.90758 39.2335C7.19989 39.2253 6.49385 39.1708 5.79525 39.0704C5.14385 38.9711 4.51281 38.7864 3.92296 38.5224C3.33851 38.2605 2.80545 37.9172 2.3442 37.5055C1.87627 37.0987 1.48669 36.6269 1.19091 36.1087C0.891876 35.5872 0.684923 35.0282 0.577266 34.4512C0.461006 33.8312 0.398104 33.2043 0.389103 32.5758C0.381939 32.3649 0.372559 31.6625 0.372559 31.6625V8.55713C0.372559 8.55713 0.382549 7.86557 0.38916 7.6624C0.397778 7.03495 0.460314 6.40899 0.576227 5.78994C0.684082 5.21134 0.891195 4.65072 1.19039 4.12749C1.48509 3.6097 1.8725 3.13752 2.33761 2.72925C2.8022 2.31711 3.33697 1.97202 3.9224 1.70657C4.5109 1.4434 5.14074 1.26 5.79083 1.16251C6.49172 1.06106 7.20021 1.00621 7.91036 0.998419L8.93008 0.986206H125.07L126.101 0.998909C126.805 1.00631 127.507 1.06067 128.202 1.16153C128.858 1.26024 129.495 1.44492 130.09 1.7095C131.263 2.24446 132.217 3.09081 132.819 4.12993C133.114 4.64955 133.317 5.20559 133.424 5.7792C133.541 6.40333 133.607 7.03421 133.62 7.6668C133.624 7.95006 133.624 8.25432 133.624 8.55713C133.633 8.93221 133.633 9.28921 133.633 9.64915V30.5822C133.633 30.9456 133.633 31.3001 133.624 31.6576C133.624 31.9829 133.624 32.2808 133.619 32.5875C133.606 33.2088 133.541 33.8284 133.426 34.4414C133.321 35.0226 133.115 35.5859 132.816 36.1117C132.518 36.6243 132.131 37.092 131.668 37.4977C131.206 37.9116 130.672 38.2569 130.087 38.5205C129.493 38.7865 128.858 38.9719 128.202 39.0704C127.503 39.1713 126.797 39.2259 126.089 39.2335C125.758 39.2403 125.412 39.2442 125.075 39.2442L123.85 39.2462L8.92952 39.2442Z" fill="black"/>
</svg>
