<svg width="136" height="41" viewBox="0 0 136 41" fill="none" xmlns="http://www.w3.org/2000/svg">
<path d="M124.749 0.116219H11.2561C10.8424 0.116219 10.4337 0.116219 10.0211 0.118219C9.67572 0.120219 9.33309 0.126029 8.98439 0.130919C8.22685 0.138821 7.47109 0.197895 6.72367 0.307629C5.97731 0.419751 5.25433 0.631135 4.57918 0.934629C3.90486 1.24069 3.28871 1.63839 2.75309 2.11329C2.21465 2.58686 1.76583 3.13424 1.42387 3.73438C1.08096 4.33333 0.843194 4.97516 0.718769 5.6377C0.593161 6.2994 0.52557 6.96874 0.516603 7.6397C0.506134 7.9463 0.505028 8.25392 0.499512 8.56056V31.6748C0.505028 31.9853 0.506134 32.2861 0.516603 32.5967C0.525573 33.2676 0.593164 33.9369 0.718769 34.5986C0.842851 35.2615 1.08064 35.9037 1.42387 36.5029C1.76567 37.1011 2.21456 37.6463 2.75309 38.1172C3.28668 38.5942 3.90322 38.9922 4.57918 39.2959C5.25432 39.6002 5.97723 39.8129 6.72367 39.9267C7.47121 40.0356 8.2269 40.0947 8.98439 40.1035C9.33309 40.1103 9.67572 40.1142 10.0211 40.1142C10.4337 40.1162 10.8425 40.1162 11.2561 40.1162H124.749C125.154 40.1162 125.566 40.1162 125.972 40.1142C126.316 40.1142 126.668 40.1103 127.012 40.1035C127.768 40.0951 128.522 40.036 129.268 39.9267C130.017 39.8121 130.743 39.5995 131.421 39.2959C132.096 38.992 132.712 38.5941 133.245 38.1172C133.783 37.6444 134.232 37.0997 134.578 36.5029C134.919 35.9033 135.155 35.2612 135.277 34.5986C135.403 33.9369 135.473 33.2677 135.486 32.5967C135.491 32.2861 135.491 31.9853 135.491 31.6748C135.5 31.3115 135.5 30.9502 135.5 30.581V9.65235C135.5 9.28614 135.5 8.92286 135.491 8.56056C135.491 8.25392 135.491 7.9463 135.486 7.63966C135.473 6.96864 135.403 6.29945 135.277 5.63766C135.154 4.9755 134.919 4.33372 134.578 3.73434C133.882 2.53141 132.778 1.55224 131.421 0.934539C130.743 0.631786 130.017 0.420459 129.268 0.307539C128.522 0.197322 127.768 0.138227 127.012 0.130779C126.668 0.125899 126.316 0.120039 125.972 0.118089C125.566 0.116089 125.154 0.116089 124.749 0.116089V0.116219Z" fill="#1D1D1D"/>
<path d="M9.92952 39.2442C9.5852 39.2442 9.2492 39.2403 8.90758 39.2335C8.19989 39.2253 7.49385 39.1708 6.79525 39.0704C6.14385 38.9711 5.51281 38.7864 4.92296 38.5224C4.33851 38.2605 3.80545 37.9172 3.3442 37.5055C2.87627 37.0987 2.48669 36.6269 2.19091 36.1087C1.89188 35.5872 1.68492 35.0282 1.57727 34.4512C1.46101 33.8312 1.3981 33.2043 1.3891 32.5758C1.38194 32.3649 1.37256 31.6625 1.37256 31.6625V8.55713C1.37256 8.55713 1.38255 7.86557 1.38916 7.6624C1.39778 7.03495 1.46031 6.40899 1.57623 5.78994C1.68408 5.21134 1.89119 4.65072 2.19039 4.12749C2.48509 3.6097 2.8725 3.13752 3.33761 2.72925C3.8022 2.31711 4.33697 1.97202 4.9224 1.70657C5.5109 1.4434 6.14074 1.26 6.79083 1.16251C7.49172 1.06106 8.20021 1.00621 8.91036 0.998419L9.93008 0.986206H126.07L127.101 0.998909C127.805 1.00631 128.507 1.06067 129.202 1.16153C129.858 1.26024 130.495 1.44492 131.09 1.7095C132.263 2.24446 133.217 3.09081 133.819 4.12993C134.114 4.64955 134.317 5.20559 134.424 5.7792C134.541 6.40333 134.607 7.03421 134.62 7.6668C134.624 7.95006 134.624 8.25432 134.624 8.55713C134.633 8.93221 134.633 9.28921 134.633 9.64915V30.5822C134.633 30.9456 134.633 31.3001 134.624 31.6576C134.624 31.9829 134.624 32.2808 134.619 32.5875C134.606 33.2088 134.541 33.8284 134.426 34.4414C134.321 35.0226 134.115 35.5859 133.816 36.1117C133.518 36.6243 133.131 37.092 132.668 37.4977C132.206 37.9116 131.672 38.2569 131.087 38.5205C130.493 38.7865 129.858 38.9719 129.202 39.0704C128.503 39.1713 127.797 39.2259 127.089 39.2335C126.758 39.2403 126.412 39.2442 126.075 39.2442L124.85 39.2462L9.92952 39.2442Z" fill="black"/>
<path d="M33.2968 20.417C33.3076 19.5824 33.5293 18.764 33.9413 18.038C34.3533 17.3121 34.9423 16.7021 35.6534 16.265C35.2016 15.6198 34.6057 15.0889 33.9129 14.7143C33.22 14.3398 32.4494 14.1319 31.6622 14.1073C29.983 13.931 28.355 15.1121 27.4993 15.1121C26.6271 15.1121 25.3096 14.1248 23.8908 14.154C22.9731 14.1836 22.0788 14.4505 21.2949 14.9285C20.511 15.4066 19.8644 16.0796 19.4179 16.8818C17.4839 20.2303 18.9265 25.1513 20.7791 27.8579C21.706 29.1833 22.7893 30.6637 24.2067 30.6112C25.5938 30.5537 26.1118 29.7267 27.7861 29.7267C29.4449 29.7267 29.9309 30.6112 31.3771 30.5778C32.8655 30.5537 33.8033 29.2466 34.6976 27.9087C35.3636 26.9643 35.8761 25.9206 36.2161 24.8162C35.3514 24.4505 34.6134 23.8383 34.0943 23.056C33.5752 22.2737 33.2978 21.3559 33.2968 20.417Z" fill="white"/>
<path d="M30.5644 12.3272C31.376 11.353 31.7758 10.1008 31.679 8.83655C30.4391 8.96677 29.2939 9.55933 28.4714 10.4962C28.0692 10.9538 27.7612 11.4863 27.565 12.063C27.3687 12.6398 27.2881 13.2496 27.3277 13.8575C27.9478 13.8639 28.5613 13.7295 29.122 13.4644C29.6826 13.1993 30.1758 12.8105 30.5644 12.3272Z" fill="white"/>
<path d="M50.8296 27.2559H46.0962L44.9595 30.6123H42.9546L47.438 18.1943H49.521L54.0044 30.6123H51.9653L50.8296 27.2559ZM46.5864 25.7071H50.3384L48.4888 20.2598H48.437L46.5864 25.7071Z" fill="white"/>
<path d="M63.6861 26.086C63.6861 28.8995 62.1802 30.7071 59.9077 30.7071C59.3321 30.7372 58.7596 30.6046 58.2558 30.3245C57.752 30.0443 57.3373 29.628 57.0591 29.1231H57.0161V33.6075H55.1577V21.5587H56.9566V23.0645H56.9908C57.2817 22.5621 57.7034 22.1479 58.2111 21.866C58.7187 21.5842 59.2932 21.4452 59.8736 21.4639C62.1714 21.464 63.6861 23.2804 63.6861 26.086ZM61.7759 26.086C61.7759 24.253 60.8286 23.0479 59.3833 23.0479C57.9634 23.0479 57.0083 24.2784 57.0083 26.086C57.0083 27.9102 57.9634 29.1319 59.3833 29.1319C60.8286 29.1319 61.7759 27.9356 61.7759 26.086Z" fill="white"/>
<path d="M73.6509 26.086C73.6509 28.8995 72.145 30.7071 69.8726 30.7071C69.2969 30.7372 68.7244 30.6046 68.2206 30.3245C67.7168 30.0443 67.3021 29.628 67.024 29.1231H66.981V33.6075H65.1226V21.5587H66.9214V23.0645H66.9556C67.2465 22.5621 67.6682 22.1479 68.1759 21.866C68.6835 21.5842 69.2581 21.4452 69.8384 21.4639C72.1363 21.4639 73.6509 23.2804 73.6509 26.086ZM71.7407 26.086C71.7407 24.253 70.7935 23.0479 69.3482 23.0479C67.9282 23.0479 66.9732 24.2784 66.9732 26.086C66.9732 27.9102 67.9282 29.1319 69.3482 29.1319C70.7935 29.1319 71.7408 27.9356 71.7408 26.086H71.7407Z" fill="white"/>
<path d="M80.2378 27.1524C80.3755 28.3838 81.5718 29.1924 83.2066 29.1924C84.773 29.1924 85.8999 28.3838 85.8999 27.2734C85.8999 26.3096 85.2202 25.7324 83.6109 25.3369L82.0015 24.9492C79.7212 24.3984 78.6626 23.332 78.6626 21.6016C78.6626 19.459 80.5298 17.9873 83.1812 17.9873C85.8052 17.9873 87.604 19.459 87.6646 21.6016H85.7886C85.6763 20.3623 84.6519 19.6143 83.1548 19.6143C81.6577 19.6143 80.6333 20.3711 80.6333 21.4727C80.6333 22.3506 81.2876 22.8672 82.8882 23.2627L84.2563 23.5986C86.8042 24.2011 87.8628 25.2246 87.8628 27.041C87.8628 29.3642 86.0122 30.8193 83.0688 30.8193C80.3149 30.8193 78.4556 29.3984 78.3354 27.1523L80.2378 27.1524Z" fill="white"/>
<path d="M91.8745 19.4161V21.5587H93.5962V23.0304H91.8745V28.0216C91.8745 28.797 92.2192 29.1583 92.9761 29.1583C93.1805 29.1548 93.3845 29.1404 93.5874 29.1153V30.5782C93.2471 30.6418 92.9013 30.6706 92.5552 30.6642C90.7222 30.6642 90.0073 29.9757 90.0073 28.2198V23.0304H88.6909V21.5587H90.0073V19.4161H91.8745Z" fill="white"/>
<path d="M94.5933 26.0861C94.5933 23.2374 96.271 21.4474 98.8872 21.4474C101.512 21.4474 103.182 23.2374 103.182 26.0861C103.182 28.9425 101.521 30.7247 98.8872 30.7247C96.2543 30.7247 94.5933 28.9425 94.5933 26.0861ZM101.289 26.0861C101.289 24.132 100.393 22.9786 98.8872 22.9786C97.3813 22.9786 96.4868 24.1407 96.4868 26.0861C96.4868 28.048 97.3813 29.1925 98.8872 29.1925C100.393 29.1925 101.289 28.048 101.289 26.0861H101.289Z" fill="white"/>
<path d="M104.714 21.5587H106.487V23.0997H106.53C106.65 22.6184 106.932 22.1931 107.328 21.8952C107.725 21.5973 108.212 21.4451 108.708 21.464C108.922 21.4632 109.135 21.4865 109.344 21.5333V23.2716C109.074 23.189 108.792 23.151 108.509 23.1593C108.239 23.1483 107.97 23.1959 107.72 23.2988C107.47 23.4017 107.246 23.5575 107.062 23.7553C106.878 23.9532 106.739 24.1886 106.654 24.4453C106.57 24.7019 106.542 24.9738 106.573 25.2423V30.6124H104.714L104.714 21.5587Z" fill="white"/>
<path d="M117.911 27.9532C117.661 29.5968 116.06 30.7247 114.012 30.7247C111.378 30.7247 109.744 28.9601 109.744 26.129C109.744 23.2892 111.387 21.4474 113.934 21.4474C116.439 21.4474 118.014 23.1681 118.014 25.9132V26.5499H111.62V26.6622C111.59 26.9954 111.632 27.3311 111.742 27.6469C111.852 27.9628 112.028 28.2516 112.259 28.4941C112.489 28.7367 112.768 28.9274 113.078 29.0537C113.388 29.18 113.721 29.239 114.055 29.2267C114.494 29.2678 114.935 29.1661 115.312 28.9367C115.688 28.7072 115.981 28.3623 116.146 27.9532L117.911 27.9532ZM111.628 25.2511H116.155C116.171 24.9515 116.126 24.6517 116.021 24.3705C115.917 24.0893 115.755 23.8327 115.546 23.617C115.338 23.4012 115.087 23.2309 114.81 23.1166C114.532 23.0024 114.234 22.9468 113.934 22.9532C113.631 22.9514 113.331 23.0096 113.051 23.1243C112.771 23.2391 112.517 23.4081 112.302 23.6218C112.088 23.8354 111.918 24.0894 111.802 24.369C111.687 24.6487 111.628 24.9485 111.628 25.2511V25.2511Z" fill="white"/>
<path d="M46.354 8.84722C46.7436 8.81927 47.1346 8.87813 47.4987 9.01956C47.8628 9.16099 48.191 9.38147 48.4596 9.6651C48.7282 9.94872 48.9304 10.2884 49.0519 10.6597C49.1733 11.031 49.2107 11.4246 49.1616 11.8121C49.1616 13.7183 48.1314 14.8141 46.354 14.8141H44.1987V8.84722H46.354ZM45.1255 13.9702H46.2505C46.5289 13.9869 46.8075 13.9412 47.066 13.8366C47.3246 13.732 47.5565 13.571 47.745 13.3655C47.9335 13.1599 48.0738 12.9149 48.1557 12.6483C48.2375 12.3817 48.2589 12.1001 48.2183 11.8242C48.256 11.5494 48.2324 11.2696 48.1493 11.005C48.0662 10.7403 47.9255 10.4973 47.7375 10.2934C47.5494 10.0894 47.3186 9.92962 47.0615 9.82538C46.8044 9.72115 46.5275 9.67506 46.2505 9.69044H45.1255V13.9702Z" fill="white"/>
<path d="M50.2088 12.5605C50.1805 12.2646 50.2143 11.966 50.3082 11.6839C50.402 11.4019 50.5538 11.1425 50.7537 10.9225C50.9536 10.7026 51.1974 10.5268 51.4692 10.4065C51.7411 10.2863 52.035 10.2241 52.3323 10.2241C52.6296 10.2241 52.9236 10.2863 53.1954 10.4065C53.4673 10.5268 53.711 10.7026 53.9109 10.9225C54.1109 11.1425 54.2626 11.4019 54.3565 11.6839C54.4503 11.966 54.4842 12.2646 54.4558 12.5605C54.4847 12.8567 54.4512 13.1557 54.3576 13.4382C54.2641 13.7208 54.1124 13.9806 53.9124 14.201C53.7124 14.4214 53.4685 14.5975 53.1964 14.7181C52.9243 14.8386 52.6299 14.9009 52.3323 14.9009C52.0347 14.9009 51.7404 14.8386 51.4682 14.7181C51.1961 14.5975 50.9522 14.4214 50.7522 14.201C50.5522 13.9806 50.4006 13.7208 50.307 13.4382C50.2134 13.1557 50.1799 12.8567 50.2088 12.5605ZM53.5418 12.5605C53.5418 11.5844 53.1033 11.0136 52.3338 11.0136C51.5613 11.0136 51.1268 11.5844 51.1268 12.5605C51.1268 13.5444 51.5613 14.1108 52.3338 14.1108C53.1033 14.1108 53.5418 13.5405 53.5418 12.5605H53.5418Z" fill="white"/>
<path d="M60.1011 14.814H59.1792L58.2485 11.4976H58.1782L57.2515 14.814H56.3384L55.0972 10.311H55.9985L56.8052 13.747H56.8716L57.7974 10.311H58.6499L59.5757 13.747H59.646L60.4487 10.311H61.3374L60.1011 14.814Z" fill="white"/>
<path d="M62.3804 10.311H63.2358V11.0263H63.3023C63.4149 10.7694 63.6049 10.554 63.8458 10.4102C64.0867 10.2664 64.3664 10.2013 64.646 10.224C64.8651 10.2076 65.0851 10.2406 65.2897 10.3207C65.4943 10.4008 65.6783 10.5259 65.8279 10.6867C65.9776 10.8476 66.0892 11.04 66.1544 11.2499C66.2196 11.4597 66.2368 11.6815 66.2046 11.8988V14.8138H65.3159V12.122C65.3159 11.3984 65.0015 11.0385 64.3442 11.0385C64.1955 11.0316 64.047 11.0569 63.9089 11.1127C63.7709 11.1685 63.6465 11.2536 63.5444 11.362C63.4423 11.4703 63.3648 11.5995 63.3173 11.7407C63.2697 11.8818 63.2533 12.0315 63.269 12.1796V14.8139H62.3804L62.3804 10.311Z" fill="white"/>
<path d="M67.6206 8.55322H68.5093V14.814H67.6206V8.55322Z" fill="white"/>
<path d="M69.7459 12.5606C69.7176 12.2646 69.7514 11.9661 69.8453 11.684C69.9392 11.4019 70.091 11.1426 70.2909 10.9226C70.4909 10.7026 70.7346 10.5268 71.0065 10.4065C71.2784 10.2863 71.5724 10.2241 71.8696 10.2241C72.1669 10.2241 72.4609 10.2863 72.7328 10.4065C73.0047 10.5268 73.2484 10.7026 73.4484 10.9226C73.6483 11.1426 73.8001 11.4019 73.894 11.684C73.9878 11.9661 74.0217 12.2646 73.9934 12.5606C74.0222 12.8568 73.9888 13.1558 73.8951 13.4383C73.8015 13.7209 73.6498 13.9807 73.4498 14.2011C73.2498 14.4215 73.0059 14.5976 72.7338 14.7181C72.4616 14.8387 72.1673 14.9009 71.8696 14.9009C71.572 14.9009 71.2777 14.8387 71.0055 14.7181C70.7334 14.5976 70.4895 14.4215 70.2895 14.2011C70.0895 13.9807 69.9378 13.7209 69.8442 13.4383C69.7505 13.1558 69.7171 12.8568 69.7459 12.5606ZM73.0789 12.5606C73.0789 11.5845 72.6404 11.0137 71.8709 11.0137C71.0984 11.0137 70.6639 11.5845 70.6639 12.5606C70.6639 13.5445 71.0984 14.1109 71.8709 14.1109C72.6404 14.1109 73.0789 13.5406 73.0789 12.5606H73.0789Z" fill="white"/>
<path d="M74.9292 13.5405C74.9292 12.73 75.5327 12.2627 76.604 12.1963L77.8237 12.126V11.7373C77.8237 11.2617 77.5093 10.9932 76.9019 10.9932C76.4058 10.9932 76.062 11.1753 75.9634 11.4937H75.103C75.1938 10.7202 75.9214 10.2241 76.9429 10.2241C78.0718 10.2241 78.7085 10.7861 78.7085 11.7373V14.814H77.853V14.1812H77.7827C77.64 14.4081 77.4396 14.5932 77.202 14.7174C76.9643 14.8416 76.698 14.9005 76.4302 14.8882C76.2411 14.9078 76.0501 14.8876 75.8693 14.8289C75.6886 14.7702 75.5221 14.6743 75.3807 14.5474C75.2393 14.4204 75.126 14.2652 75.0483 14.0918C74.9705 13.9184 74.9299 13.7306 74.9292 13.5405ZM77.8237 13.1558V12.7793L76.7241 12.8496C76.104 12.8911 75.8227 13.102 75.8227 13.499C75.8227 13.9043 76.1743 14.1401 76.6577 14.1401C76.7994 14.1545 76.9425 14.1402 77.0785 14.0981C77.2145 14.056 77.3406 13.987 77.4494 13.8951C77.5582 13.8033 77.6474 13.6905 77.7117 13.5635C77.776 13.4365 77.8141 13.2978 77.8237 13.1558Z" fill="white"/>
<path d="M79.8765 12.5606C79.8765 11.1377 80.6079 10.2363 81.7456 10.2363C82.027 10.2234 82.3063 10.2908 82.5508 10.4307C82.7954 10.5706 82.995 10.7772 83.1265 11.0263H83.1929V8.55322H84.0816V14.814H83.23V14.1025H83.1597C83.0181 14.35 82.8115 14.5541 82.5622 14.6925C82.313 14.831 82.0306 14.8987 81.7456 14.8882C80.6001 14.8882 79.8765 13.9868 79.8765 12.5606ZM80.7945 12.5606C80.7945 13.5156 81.2447 14.0904 81.9976 14.0904C82.7466 14.0904 83.2095 13.5074 83.2095 12.5645C83.2095 11.626 82.7417 11.0347 81.9976 11.0347C81.2495 11.0347 80.7944 11.6133 80.7944 12.5606H80.7945Z" fill="white"/>
<path d="M87.7576 12.5605C87.7293 12.2646 87.7631 11.966 87.857 11.6839C87.9508 11.4019 88.1026 11.1425 88.3025 10.9225C88.5025 10.7026 88.7462 10.5268 89.018 10.4065C89.2899 10.2863 89.5839 10.2241 89.8811 10.2241C90.1784 10.2241 90.4724 10.2863 90.7442 10.4065C91.0161 10.5268 91.2598 10.7026 91.4597 10.9225C91.6597 11.1425 91.8114 11.4019 91.9053 11.6839C91.9991 11.966 92.033 12.2646 92.0047 12.5605C92.0335 12.8567 92.0001 13.1557 91.9065 13.4382C91.8129 13.7208 91.6612 13.9806 91.4612 14.201C91.2612 14.4214 91.0173 14.5975 90.7452 14.7181C90.4731 14.8386 90.1788 14.9009 89.8811 14.9009C89.5835 14.9009 89.2892 14.8386 89.0171 14.7181C88.7449 14.5975 88.501 14.4214 88.301 14.201C88.1011 13.9806 87.9494 13.7208 87.8558 13.4382C87.7622 13.1557 87.7288 12.8567 87.7576 12.5605ZM91.0906 12.5605C91.0906 11.5844 90.6521 11.0136 89.8826 11.0136C89.1101 11.0136 88.6756 11.5844 88.6756 12.5605C88.6756 13.5444 89.1102 14.1108 89.8826 14.1108C90.6521 14.1108 91.0906 13.5405 91.0906 12.5605Z" fill="white"/>
<path d="M93.1968 10.311H94.0522V11.0263H94.1187C94.2313 10.7694 94.4213 10.554 94.6622 10.4102C94.9031 10.2664 95.1828 10.2013 95.4624 10.224C95.6815 10.2076 95.9015 10.2406 96.1061 10.3207C96.3107 10.4008 96.4947 10.5259 96.6443 10.6867C96.794 10.8476 96.9056 11.04 96.9708 11.2499C97.036 11.4597 97.0532 11.6815 97.021 11.8988V14.8138H96.1323V12.122C96.1323 11.3984 95.8179 11.0385 95.1607 11.0385C95.0119 11.0316 94.8634 11.0569 94.7253 11.1127C94.5873 11.1685 94.4629 11.2536 94.3608 11.362C94.2587 11.4703 94.1812 11.5995 94.1337 11.7407C94.0861 11.8818 94.0697 12.0315 94.0855 12.1796V14.8139H93.1968V10.311Z" fill="white"/>
<path d="M102.043 9.18994V10.3315H103.019V11.0801H102.043V13.3955C102.043 13.8672 102.238 14.0737 102.68 14.0737C102.793 14.0734 102.907 14.0665 103.019 14.0532V14.7934C102.859 14.822 102.698 14.8372 102.536 14.8389C101.547 14.8389 101.154 14.4912 101.154 13.623V11.08H100.439V10.3315H101.154V9.18994H102.043Z" fill="white"/>
<path d="M104.232 8.55322H105.113V11.0347H105.183C105.301 10.7754 105.496 10.5588 105.742 10.4144C105.988 10.2701 106.272 10.205 106.556 10.228C106.774 10.2162 106.992 10.2526 107.194 10.3346C107.397 10.4166 107.578 10.5423 107.726 10.7027C107.874 10.863 107.985 11.054 108.051 11.2622C108.117 11.4703 108.136 11.6904 108.107 11.9067V14.814H107.217V12.126C107.217 11.4067 106.882 11.0425 106.254 11.0425C106.102 11.0299 105.948 11.0509 105.804 11.104C105.661 11.1571 105.53 11.2409 105.422 11.3496C105.314 11.4584 105.231 11.5894 105.179 11.7335C105.127 11.8776 105.107 12.0314 105.121 12.1841V14.814H104.232L104.232 8.55322Z" fill="white"/>
<path d="M113.288 13.5982C113.168 14.0098 112.906 14.3657 112.549 14.6039C112.193 14.842 111.763 14.9472 111.337 14.9009C111.04 14.9088 110.746 14.852 110.473 14.7344C110.201 14.6169 109.957 14.4415 109.759 14.2203C109.561 13.9992 109.414 13.7376 109.327 13.4538C109.24 13.17 109.216 12.8707 109.257 12.5767C109.217 12.2819 109.242 11.9819 109.328 11.6972C109.415 11.4126 109.561 11.1498 109.758 10.9267C109.955 10.7037 110.198 10.5255 110.469 10.4043C110.741 10.2831 111.036 10.2217 111.333 10.2242C112.586 10.2242 113.342 11.0802 113.342 12.4942V12.8043H110.162V12.8541C110.148 13.0193 110.169 13.1857 110.223 13.3424C110.277 13.4992 110.364 13.6429 110.477 13.7643C110.589 13.8858 110.727 13.9823 110.879 14.0477C111.031 14.1131 111.196 14.1459 111.361 14.1441C111.574 14.1696 111.789 14.1313 111.98 14.0341C112.171 13.9369 112.328 13.7852 112.433 13.5982L113.288 13.5982ZM110.162 12.147H112.437C112.448 11.9959 112.427 11.8441 112.376 11.7014C112.325 11.5587 112.245 11.4282 112.141 11.3183C112.036 11.2085 111.91 11.1217 111.77 11.0635C111.63 11.0053 111.48 10.9771 111.328 10.9805C111.175 10.9786 111.022 11.0075 110.88 11.0654C110.737 11.1234 110.608 11.2092 110.499 11.3179C110.391 11.4266 110.305 11.556 110.247 11.6984C110.189 11.8408 110.16 11.9933 110.162 12.147H110.162Z" fill="white"/>
</svg>
