<svg width="33" height="29" viewBox="0 0 33 29" fill="none" xmlns="http://www.w3.org/2000/svg">
<path d="M4.5 19H28.5V21H4.5V19Z" fill="#55565A"/>
<path d="M29.34 10.3695C29.2154 9.96364 28.9611 9.60981 28.6161 9.36234C28.2711 9.11487 27.8544 8.98742 27.43 8.99954H25.05C25.2341 9.66253 25.1846 10.3687 24.91 10.9995H27.45C28.5 13.9395 30.22 18.6495 30.5 19.4795V26.9995H2.5V19.4795C2.78 18.6495 5.55 10.9995 5.55 10.9995H8.08C7.80536 10.3687 7.75593 9.66253 7.94 8.99954H5.57C5.15285 8.98309 4.74171 9.10304 4.39886 9.34123C4.05601 9.57942 3.80014 9.92287 3.67 10.3195C0.5 18.9995 0.5 19.0995 0.5 19.3295V26.9995C0.5 27.53 0.710714 28.0387 1.08579 28.4138C1.46086 28.7888 1.96957 28.9995 2.5 28.9995H30.5C31.0304 28.9995 31.5391 28.7888 31.9142 28.4138C32.2893 28.0387 32.5 27.53 32.5 26.9995V19.3295C32.5 19.0995 32.5 18.9995 29.34 10.3695Z" fill="#55565A"/>
<path d="M16.4985 16.84L22.8785 10.49C22.9975 10.4068 23.097 10.2987 23.17 10.1732C23.243 10.0477 23.2879 9.90785 23.3014 9.76329C23.3149 9.61873 23.2967 9.47296 23.2482 9.33611C23.1997 9.19927 23.1219 9.07463 23.0204 8.97087C22.9188 8.86711 22.7959 8.7867 22.6601 8.73524C22.5243 8.68378 22.379 8.66251 22.2342 8.67289C22.0893 8.68328 21.9485 8.72508 21.8215 8.79538C21.6944 8.86568 21.5842 8.96281 21.4985 9.08L17.4985 13V1C17.4985 0.734784 17.3932 0.48043 17.2056 0.292893C17.0181 0.105357 16.7637 0 16.4985 0C16.2333 0 15.979 0.105357 15.7914 0.292893C15.6039 0.48043 15.4985 0.734784 15.4985 1V13L11.4985 9.05C11.3102 8.86302 11.0554 8.75851 10.79 8.75944C10.5246 8.76038 10.2705 8.8667 10.0835 9.055C9.89655 9.2433 9.79204 9.49817 9.79298 9.76354C9.79391 10.0289 9.90023 10.283 10.0885 10.47L16.4985 16.84Z" fill="#55565A"/>
</svg>
