<svg width="35" height="28" viewBox="0 0 35 28" fill="none" xmlns="http://www.w3.org/2000/svg">
<path d="M21.384 27.3801H21.034C20.3286 27.3101 19.6638 27.017 19.1363 26.5435C18.6088 26.0699 18.2461 25.4406 18.1007 24.7468L13.634 4.04676L9.03399 14.7134C8.90387 15.0116 8.68936 15.2651 8.4169 15.4428C8.14444 15.6205 7.82593 15.7146 7.50065 15.7134H2.50065C2.05862 15.7134 1.6347 15.5378 1.32214 15.2253C1.00958 14.9127 0.833984 14.4888 0.833984 14.0468C0.833984 13.6047 1.00958 13.1808 1.32214 12.8683C1.6347 12.5557 2.05862 12.3801 2.50065 12.3801H6.40065L10.584 2.7301C10.8656 2.08253 11.3456 1.54113 11.9547 1.18395C12.5639 0.826765 13.2707 0.672259 13.9733 0.742707C14.676 0.813155 15.3381 1.10492 15.8642 1.57592C16.3903 2.04693 16.7532 2.67285 16.9007 3.36343L21.3673 24.0468L25.9673 13.4134C26.0924 13.1091 26.3047 12.8485 26.5775 12.6646C26.8504 12.4807 27.1716 12.3817 27.5007 12.3801H32.5007C32.9427 12.3801 33.3666 12.5557 33.6792 12.8683C33.9917 13.1808 34.1673 13.6047 34.1673 14.0468C34.1673 14.4888 33.9917 14.9127 33.6792 15.2253C33.3666 15.5378 32.9427 15.7134 32.5007 15.7134H28.6007L24.4173 25.3634C24.1619 25.9576 23.7391 26.4647 23.2005 26.8227C22.6619 27.1808 22.0307 27.3745 21.384 27.3801Z" fill="#C1BBEB"/>
</svg>
