<svg width="17" height="21" viewBox="0 0 17 21" fill="none" xmlns="http://www.w3.org/2000/svg">
<path d="M8.5 0.0651855C6.37827 0.0651855 4.34344 0.90804 2.84315 2.40833C1.34285 3.90862 0.5 5.94345 0.5 8.06519C0.5 13.4652 7.55 19.5652 7.85 19.8252C8.03113 19.9801 8.26165 20.0653 8.5 20.0653C8.73835 20.0653 8.96887 19.9801 9.15 19.8252C9.5 19.5652 16.5 13.4652 16.5 8.06519C16.5 5.94345 15.6571 3.90862 14.1569 2.40833C12.6566 0.90804 10.6217 0.0651855 8.5 0.0651855ZM8.5 17.7152C6.37 15.7152 2.5 11.4052 2.5 8.06519C2.5 6.47389 3.13214 4.94776 4.25736 3.82255C5.38258 2.69733 6.9087 2.06519 8.5 2.06519C10.0913 2.06519 11.6174 2.69733 12.7426 3.82255C13.8679 4.94776 14.5 6.47389 14.5 8.06519C14.5 11.4052 10.63 15.7252 8.5 17.7152ZM8.5 4.06519C7.70887 4.06519 6.93552 4.29978 6.27772 4.73931C5.61992 5.17883 5.10723 5.80355 4.80448 6.53445C4.50173 7.26536 4.42252 8.06962 4.57686 8.84555C4.7312 9.62147 5.11216 10.3342 5.67157 10.8936C6.23098 11.453 6.94371 11.834 7.71964 11.9883C8.49556 12.1427 9.29983 12.0635 10.0307 11.7607C10.7616 11.458 11.3864 10.9453 11.8259 10.2875C12.2654 9.62967 12.5 8.85631 12.5 8.06519C12.5 7.00432 12.0786 5.9869 11.3284 5.23676C10.5783 4.48661 9.56087 4.06519 8.5 4.06519ZM8.5 10.0652C8.10444 10.0652 7.71776 9.94789 7.38886 9.72812C7.05996 9.50836 6.80362 9.196 6.65224 8.83055C6.50087 8.4651 6.46126 8.06297 6.53843 7.675C6.6156 7.28704 6.80608 6.93068 7.08579 6.65097C7.36549 6.37127 7.72186 6.18079 8.10982 6.10361C8.49778 6.02644 8.89991 6.06605 9.26537 6.21743C9.63082 6.3688 9.94318 6.62515 10.1629 6.95405C10.3827 7.28294 10.5 7.66962 10.5 8.06519C10.5 8.59562 10.2893 9.10433 9.91421 9.4794C9.53914 9.85447 9.03043 10.0652 8.5 10.0652Z" fill="white"/>
</svg>
