<svg width="26" height="22" viewBox="0 0 26 22" fill="none" xmlns="http://www.w3.org/2000/svg">
<path d="M19.9023 10.4048H5.52979C4.39582 10.4048 3.47656 11.1894 3.47656 12.1572V18.2909C3.47656 19.2587 4.39582 20.0433 5.52979 20.0433H19.9023C21.0363 20.0433 21.9556 19.2587 21.9556 18.2909V12.1572C21.9556 11.1894 21.0363 10.4048 19.9023 10.4048Z" stroke="#616161" stroke-linecap="round" stroke-linejoin="round"/>
<path d="M7.58594 10.4051V6.9002C7.58594 5.73825 8.12674 4.62388 9.08937 3.80226C10.052 2.98063 11.3576 2.51904 12.719 2.51904C14.0804 2.51904 15.386 2.98063 16.3486 3.80226C17.3112 4.62388 17.852 5.73825 17.852 6.9002V10.4051" stroke="#616161" stroke-linecap="round" stroke-linejoin="round"/>
</svg>
