<svg width="22" height="16" viewBox="0 0 22 16" fill="none" xmlns="http://www.w3.org/2000/svg">
<path d="M21.868 13.4766V2.22656C21.868 1.18906 21.0305 0.351562 19.993 0.351562H2.48047C1.44297 0.351562 0.605469 1.18906 0.605469 2.22656V13.4766C0.605469 14.5141 1.44297 15.3516 2.48047 15.3516H19.993C21.0305 15.3516 21.868 14.5141 21.868 13.4766ZM20.2305 2.08906C20.643 2.50156 20.418 2.92656 20.193 3.13906L15.118 7.78906L19.993 12.8641C20.143 13.0391 20.243 13.3141 20.068 13.5016C19.9055 13.7016 19.5305 13.6891 19.368 13.5641L13.9055 8.90156L11.2305 11.3391L8.56797 8.90156L3.10547 13.5641C2.94297 13.6891 2.56797 13.7016 2.40547 13.5016C2.23047 13.3141 2.33047 13.0391 2.48047 12.8641L7.35547 7.78906L2.28047 3.13906C2.05547 2.92656 1.83047 2.50156 2.24297 2.08906C2.65547 1.67656 3.08047 1.87656 3.43047 2.17656L11.2305 8.47656L19.043 2.17656C19.393 1.87656 19.818 1.67656 20.2305 2.08906Z" fill="white"/>
</svg>
