<svg width="31" height="31" viewBox="0 0 31 31" fill="none" xmlns="http://www.w3.org/2000/svg">
<path d="M19.631 11.0995C21.08 11.0995 22.256 12.3374 22.256 13.8627V18.9942H22.25V20.5732H8.75V15.8363H8.753V13.8627C8.753 12.3374 9.9275 11.0995 11.378 11.0995H19.631ZM30.5 13.8627C30.5 13.1298 30.2234 12.427 29.7312 11.9088C29.2389 11.3906 28.5712 11.0995 27.875 11.0995H22.8125C23.402 11.8495 23.756 12.8127 23.756 13.8627V15.8363H23.75V20.5732H29.375C29.6734 20.5732 29.9595 20.4484 30.1705 20.2263C30.3815 20.0043 30.5 19.7031 30.5 19.389V13.8627ZM7.25 18.9942H7.253V13.8627L7.2665 13.5153C7.33126 12.6281 7.65623 11.7839 8.1965 11.0995H3.125L2.909 11.109C2.25245 11.166 1.64028 11.4809 1.19402 11.991C0.747756 12.5011 0.500025 13.1692 0.5 13.8627V19.389C0.5 20.0427 1.004 20.5732 1.625 20.5732H7.25V18.9942ZM15.5 0.046875C16.6935 0.046875 17.8381 0.545934 18.682 1.43426C19.5259 2.32259 20 3.52743 20 4.78372C20 6.04001 19.5259 7.24484 18.682 8.13317C17.8381 9.0215 16.6935 9.52056 15.5 9.52056C14.3065 9.52056 13.1619 9.0215 12.318 8.13317C11.4741 7.24484 11 6.04001 11 4.78372C11 3.52743 11.4741 2.32259 12.318 1.43426C13.1619 0.545934 14.3065 0.046875 15.5 0.046875ZM25.25 1.62582C26.2446 1.62582 27.1984 2.0417 27.9016 2.78198C28.6049 3.52226 29 4.52628 29 5.57319C29 6.6201 28.6049 7.62413 27.9016 8.3644C27.1984 9.10468 26.2446 9.52056 25.25 9.52056C24.2554 9.52056 23.3016 9.10468 22.5984 8.3644C21.8951 7.62413 21.5 6.6201 21.5 5.57319C21.5 4.52628 21.8951 3.52226 22.5984 2.78198C23.3016 2.0417 24.2554 1.62582 25.25 1.62582ZM5.75 1.62582C6.74456 1.62582 7.69839 2.0417 8.40165 2.78198C9.10491 3.52226 9.5 4.52628 9.5 5.57319C9.5 6.6201 9.10491 7.62413 8.40165 8.3644C7.69839 9.10468 6.74456 9.52056 5.75 9.52056C4.75544 9.52056 3.80161 9.10468 3.09835 8.3644C2.39509 7.62413 2 6.6201 2 5.57319C2 4.52628 2.39509 3.52226 3.09835 2.78198C3.80161 2.0417 4.75544 1.62582 5.75 1.62582ZM0.5 23.3363C0.5 23.0223 0.618526 22.7211 0.829505 22.499C1.04048 22.2769 1.32663 22.1521 1.625 22.1521H29.375C29.6734 22.1521 29.9595 22.2769 30.1705 22.499C30.3815 22.7211 30.5 23.0223 30.5 23.3363V24.1258C30.5 25.6962 29.9074 27.2022 28.8525 28.3126C27.7976 29.4231 26.3668 30.0469 24.875 30.0469H6.125C4.63316 30.0469 3.20242 29.4231 2.14752 28.3126C1.09263 27.2022 0.5 25.6962 0.5 24.1258V23.3363Z" fill="#C1BBEB"/>
</svg>
