<svg width="21" height="21" viewBox="0 0 21 21" fill="none" xmlns="http://www.w3.org/2000/svg">
<path d="M3.83333 7.60807C4.29357 7.60807 4.66667 7.23498 4.66667 6.77474C4.66667 6.3145 4.29357 5.94141 3.83333 5.94141C3.3731 5.94141 3 6.3145 3 6.77474C3 7.23498 3.3731 7.60807 3.83333 7.60807Z" fill="#4D44B5"/>
<path d="M3.83333 11.7751C4.29357 11.7751 4.66667 11.402 4.66667 10.9417C4.66667 10.4815 4.29357 10.1084 3.83333 10.1084C3.3731 10.1084 3 10.4815 3 10.9417C3 11.402 3.3731 11.7751 3.83333 11.7751Z" fill="#4D44B5"/>
<path d="M3.83333 15.9411C4.29357 15.9411 4.66667 15.568 4.66667 15.1077C4.66667 14.6475 4.29357 14.2744 3.83333 14.2744C3.3731 14.2744 3 14.6475 3 15.1077C3 15.568 3.3731 15.9411 3.83333 15.9411Z" fill="#4D44B5"/>
<path d="M17.2173 10.1074H7.11732C6.68469 10.1074 6.33398 10.4581 6.33398 10.8908V10.9908C6.33398 11.4234 6.68469 11.7741 7.11732 11.7741H17.2173C17.6499 11.7741 18.0007 11.4234 18.0007 10.9908V10.8908C18.0007 10.4581 17.6499 10.1074 17.2173 10.1074Z" fill="#4D44B5"/>
<path d="M17.2173 14.2754H7.11732C6.68469 14.2754 6.33398 14.6261 6.33398 15.0587V15.1587C6.33398 15.5913 6.68469 15.9421 7.11732 15.9421H17.2173C17.6499 15.9421 18.0007 15.5913 18.0007 15.1587V15.0587C18.0007 14.6261 17.6499 14.2754 17.2173 14.2754Z" fill="#4D44B5"/>
<path d="M17.2173 5.94141H7.11732C6.68469 5.94141 6.33398 6.29212 6.33398 6.72474V6.82474C6.33398 7.25736 6.68469 7.60807 7.11732 7.60807H17.2173C17.6499 7.60807 18.0007 7.25736 18.0007 6.82474V6.72474C18.0007 6.29212 17.6499 5.94141 17.2173 5.94141Z" fill="#4D44B5"/>
</svg>
