<svg width="22" height="25" viewBox="0 0 22 25" fill="none" xmlns="http://www.w3.org/2000/svg">
<path d="M21.0994 5.90424L11.4071 0.304347C11.2835 0.23294 11.143 0.195313 11 0.195312C10.857 0.195312 10.7165 0.23294 10.5929 0.304347L0.900615 5.90424C0.778672 5.97472 0.677511 6.07562 0.607219 6.1969C0.536926 6.31818 0.499958 6.45558 0.5 6.59542V17.7952C0.499958 17.935 0.536926 18.0724 0.607219 18.1937C0.677511 18.315 0.778672 18.4159 0.900615 18.4864L10.5929 24.0863C10.7165 24.1577 10.857 24.1953 11 24.1953C11.143 24.1953 11.2835 24.1577 11.4071 24.0863L21.0994 18.4864C21.2213 18.4159 21.3225 18.315 21.3928 18.1937C21.4631 18.0724 21.5 17.935 21.5 17.7952V6.59542C21.5 6.45558 21.4631 6.31818 21.3928 6.1969C21.3225 6.07562 21.2213 5.97472 21.0994 5.90424ZM11 1.92192L19.0898 6.59542L11 11.2689L2.91015 6.59542L11 1.92192ZM2.11538 7.9874L10.1923 12.6537V22.0031L2.11538 17.336V7.9874ZM11.8077 22.0031V12.6545L19.8846 7.9882V17.336L11.8077 22.0031Z" fill="#4D44B5"/>
</svg>
