<svg width="5" height="17" viewBox="0 0 5 17" fill="none" xmlns="http://www.w3.org/2000/svg">
<path d="M2.5 16.5859C1.39543 16.5859 0.5 15.6905 0.5 14.5859C0.5 13.4814 1.39543 12.5859 2.5 12.5859C3.60457 12.5859 4.5 13.4814 4.5 14.5859C4.5 15.6905 3.60457 16.5859 2.5 16.5859ZM2.5 10.5859C1.39543 10.5859 0.5 9.69051 0.5 8.58594C0.5 7.48137 1.39543 6.58594 2.5 6.58594C3.60457 6.58594 4.5 7.48137 4.5 8.58594C4.5 9.11637 4.28929 9.62508 3.91421 10.0002C3.53914 10.3752 3.03043 10.5859 2.5 10.5859ZM2.5 4.58594C1.39543 4.58594 0.5 3.69051 0.5 2.58594C0.5 1.48137 1.39543 0.585938 2.5 0.585938C3.60457 0.585938 4.5 1.48137 4.5 2.58594C4.5 3.11637 4.28929 3.62508 3.91421 4.00015C3.53914 4.37522 3.03043 4.58594 2.5 4.58594Z" fill="#343A40"/>
</svg>
