<svg width="23" height="6" viewBox="0 0 23 6" fill="none" xmlns="http://www.w3.org/2000/svg">
<path d="M11.5002 0.359985C11.1533 0.359985 10.8099 0.428302 10.4894 0.561035C10.169 0.693767 9.87783 0.888317 9.63257 1.13358C9.38732 1.37883 9.19277 1.67 9.06003 1.99044C8.9273 2.31089 8.85898 2.65434 8.85898 3.00119C8.85898 3.34803 8.9273 3.69148 9.06003 4.01193C9.19277 4.33237 9.38732 4.62354 9.63257 4.8688C9.87783 5.11405 10.169 5.3086 10.4894 5.44134C10.8099 5.57407 11.1533 5.64239 11.5002 5.64239C12.2007 5.64223 12.8724 5.36381 13.3676 4.86837C13.8628 4.37294 14.1409 3.70108 14.1408 3.00059C14.1406 2.3001 13.8622 1.62836 13.3668 1.13315C12.8713 0.637942 12.1995 0.359826 11.499 0.359985H11.5002ZM3.10018 0.359985C2.75334 0.359985 2.40989 0.428302 2.08944 0.561035C1.769 0.693767 1.47783 0.888317 1.23257 1.13358C0.987316 1.37883 0.792766 1.67 0.660034 1.99044C0.527301 2.31089 0.458984 2.65434 0.458984 3.00119C0.458984 3.34803 0.527301 3.69148 0.660034 4.01193C0.792766 4.33237 0.987316 4.62354 1.23257 4.8688C1.47783 5.11405 1.769 5.3086 2.08944 5.44134C2.40989 5.57407 2.75334 5.64239 3.10018 5.64239C3.80067 5.64223 4.47241 5.36381 4.96762 4.86837C5.46283 4.37294 5.74094 3.70108 5.74078 3.00059C5.74062 2.3001 5.4622 1.62836 4.96677 1.13315C4.47134 0.637942 3.79947 0.359826 3.09898 0.359985H3.10018ZM19.9002 0.359985C19.5533 0.359985 19.2099 0.428302 18.8894 0.561035C18.569 0.693767 18.2778 0.888317 18.0326 1.13358C17.7873 1.37883 17.5928 1.67 17.46 1.99044C17.3273 2.31089 17.259 2.65434 17.259 3.00119C17.259 3.34803 17.3273 3.69148 17.46 4.01193C17.5928 4.33237 17.7873 4.62354 18.0326 4.8688C18.2778 5.11405 18.569 5.3086 18.8894 5.44134C19.2099 5.57407 19.5533 5.64239 19.9002 5.64239C20.6007 5.64223 21.2724 5.36381 21.7676 4.86837C22.2628 4.37294 22.5409 3.70108 22.5408 3.00059C22.5406 2.3001 22.2622 1.62836 21.7668 1.13315C21.2713 0.637942 20.5995 0.359826 19.899 0.359985H19.9002Z" fill="#A098AE"/>
</svg>
