<svg width="25" height="32" viewBox="0 0 25 32" fill="none" xmlns="http://www.w3.org/2000/svg">
<path d="M21.8677 18.9391V9.86768C21.8677 4.70215 17.6655 0.5 12.5 0.5C7.33447 0.5 3.13232 4.70215 3.13232 9.86768V18.9397C1.46704 19.4224 0.238281 20.9544 0.238281 22.8374C0.238281 25.0386 2.0293 26.8296 4.23096 26.8296H7.87696V26.877C7.87695 29.4263 9.95068 31.5 12.5 31.5C15.0493 31.5 17.1231 29.4263 17.1231 26.8769V26.8296H20.7691C22.9707 26.8296 24.7617 25.0386 24.7617 22.7583C24.7617 20.9406 23.533 19.4198 21.8677 18.9391ZM6.13232 9.86768C6.13232 6.35645 8.98877 3.5 12.5 3.5C16.0112 3.5 18.8677 6.35645 18.8677 9.86768V18.7661H6.13232V9.86768ZM14.1231 26.8769C14.1231 27.772 13.395 28.5 12.5 28.5C11.605 28.5 10.877 27.772 10.877 26.8769V26.8296H14.123V26.8769H14.1231ZM20.769 23.8296H4.23096C3.6836 23.8296 3.23828 23.3843 3.23828 22.7583C3.23828 22.2114 3.68359 21.7661 4.23096 21.7661H20.7691C21.3164 21.7661 21.7617 22.2114 21.7617 22.8374C21.7617 23.3843 21.3164 23.8296 20.769 23.8296Z" fill="#A098AE"/>
</svg>
