<svg width="25" height="25" viewBox="0 0 25 25" fill="none" xmlns="http://www.w3.org/2000/svg">
<path fill-rule="evenodd" clip-rule="evenodd" d="M11.4561 5.28325V3.12492C11.4561 2.54992 11.9228 2.08325 12.4978 2.08325C13.0717 2.08325 13.5394 2.54992 13.5394 3.12492V5.28325C15.0874 5.50617 16.5342 6.22492 17.653 7.34367C19.0207 8.71138 19.7894 10.5666 19.7894 12.4999V16.4207L20.6322 18.1062C21.0353 18.9135 20.9926 19.8718 20.5176 20.6395C20.0436 21.4072 19.2051 21.8749 18.303 21.8749H13.5394C13.5394 22.4499 13.0717 22.9166 12.4978 22.9166C11.9228 22.9166 11.4561 22.4499 11.4561 21.8749H6.69256C5.78944 21.8749 4.95091 21.4072 4.47696 20.6395C4.00196 19.8718 3.95924 18.9135 4.36341 18.1062L5.2061 16.4207V12.4999C5.2061 10.5666 5.97383 8.71138 7.34154 7.34367C8.46133 6.22492 9.90715 5.50617 11.4561 5.28325V5.28325ZM12.4978 7.29158C11.1155 7.29158 9.79154 7.84054 8.81446 8.81763C7.83737 9.79367 7.28944 11.1187 7.28944 12.4999V16.6666C7.28944 16.828 7.25091 16.9874 7.17903 17.1322C7.17903 17.1322 6.71548 18.0593 6.2259 19.0374C6.14569 19.1989 6.15403 19.3916 6.24882 19.5447C6.34361 19.6978 6.51131 19.7916 6.69256 19.7916H18.303C18.4832 19.7916 18.6509 19.6978 18.7457 19.5447C18.8405 19.3916 18.8488 19.1989 18.7686 19.0374C18.279 18.0593 17.8155 17.1322 17.8155 17.1322C17.7436 16.9874 17.7061 16.828 17.7061 16.6666V12.4999C17.7061 11.1187 17.1572 9.79367 16.1801 8.81763C15.203 7.84054 13.879 7.29158 12.4978 7.29158V7.29158Z" fill="#2B67F6"/>
<path d="M18 12.5C20.8432 12.5 23.5 10.4433 23.5 7.5C23.5 4.5567 20.8432 2.5 18 2.5C15.1568 2.5 12.5 4.5567 12.5 7.5C12.5 10.4433 15.1568 12.5 18 12.5Z" fill="#2B67F6" stroke="#F5F6FB" stroke-width="3"/>
</svg>
