<svg width="30" height="25" viewBox="0 0 30 25" fill="none" xmlns="http://www.w3.org/2000/svg">
<path d="M27.4286 0H2.57143C2.02205 0 1.49518 0.219493 1.10671 0.610194C0.718239 1.00089 0.5 1.5308 0.5 2.08333V22.9167C0.5 23.4692 0.718239 23.9991 1.10671 24.3898C1.49518 24.7805 2.02205 25 2.57143 25H27.4286C27.9779 25 28.5048 24.7805 28.8933 24.3898C29.2818 23.9991 29.5 23.4692 29.5 22.9167V2.08333C29.5 1.5308 29.2818 1.00089 28.8933 0.610194C28.5048 0.219493 27.9779 0 27.4286 0ZM2.57143 2.08333H8.78571V22.9167H2.57143V2.08333ZM27.4286 22.9167H10.8571V2.08333H27.4286V22.9167Z" fill="#55565A"/>
</svg>
