<svg width="21" height="28" viewBox="0 0 21 28" fill="none" xmlns="http://www.w3.org/2000/svg">
<path d="M11.0459 15.7695L11.0547 15.7285C11.2246 15.0283 11.4385 14.1553 11.2715 13.3643C11.1602 12.7402 10.7002 12.4971 10.3076 12.4795C9.84473 12.459 9.43164 12.7227 9.3291 13.1064C9.13574 13.8096 9.30859 14.7705 9.625 15.9951C9.22656 16.9443 8.59082 18.3242 8.125 19.1445C7.25781 19.5928 6.09473 20.2842 5.92188 21.1572C5.88672 21.3184 5.92773 21.5234 6.02441 21.708C6.13281 21.9131 6.30566 22.0713 6.50781 22.1475C6.5957 22.1797 6.70117 22.2061 6.82422 22.2061C7.33984 22.2061 8.1748 21.79 9.28809 19.8799C9.45801 19.8242 9.63379 19.7656 9.80371 19.707C10.6006 19.4375 11.4268 19.1562 12.1738 19.0303C13 19.4727 13.9404 19.7568 14.5791 19.7568C15.2119 19.7568 15.4609 19.3818 15.5547 19.1562C15.7188 18.7607 15.6396 18.2627 15.373 17.9961C14.9863 17.6152 14.0459 17.5156 12.5811 17.6973C11.8604 17.2578 11.3887 16.6602 11.0459 15.7695ZM7.83203 20.2197C7.4248 20.8115 7.11719 21.1074 6.9502 21.2363C7.14648 20.876 7.53027 20.4951 7.83203 20.2197ZM10.3984 13.3203C10.5508 13.5811 10.5303 14.3691 10.4131 14.7676C10.2695 14.1846 10.249 13.3584 10.334 13.2617C10.3574 13.2646 10.3779 13.2822 10.3984 13.3203ZM10.3516 16.8506C10.665 17.3926 11.0605 17.8584 11.4971 18.2041C10.8643 18.3477 10.2871 18.585 9.77148 18.7959C9.64844 18.8457 9.52832 18.8955 9.41113 18.9424C9.80078 18.2363 10.126 17.4365 10.3516 16.8506ZM14.9102 18.7695C14.9131 18.7754 14.916 18.7842 14.8984 18.7959H14.8926L14.8867 18.8047C14.8633 18.8193 14.623 18.96 13.5889 18.5527C14.7783 18.4971 14.9072 18.7666 14.9102 18.7695ZM20.5176 7.39648L14.2129 1.0918C14.0371 0.916016 13.7998 0.816406 13.5508 0.816406H1.10547C0.586914 0.816406 0.167969 1.23535 0.167969 1.75391V26.1289C0.167969 26.6475 0.586914 27.0664 1.10547 27.0664H19.8555C20.374 27.0664 20.793 26.6475 20.793 26.1289V8.06152C20.793 7.8125 20.6934 7.57227 20.5176 7.39648ZM18.6309 8.49219H13.1172V2.97852L18.6309 8.49219ZM18.6836 24.957H2.27734V2.92578H11.125V9.25391C11.125 9.58025 11.2546 9.89322 11.4854 10.124C11.7162 10.3547 12.0291 10.4844 12.3555 10.4844H18.6836V24.957Z" fill="#F3F4FF"/>
</svg>
