<svg width="12" height="21" viewBox="0 0 12 21" fill="none" xmlns="http://www.w3.org/2000/svg">
<path d="M1.36406 20.3242C1.0458 20.3242 0.740578 20.1978 0.515534 19.9727C0.290491 19.7477 0.164063 19.4425 0.164062 19.1242L0.164063 5.03755C0.164063 4.37505 0.701563 3.83755 1.36406 3.83755H2.78573C2.83073 3.83755 2.87406 3.84839 2.91156 3.86755L2.9099 3.86672V0.464219C2.9099 0.386719 2.9724 0.324219 3.0499 0.324219H8.06656C8.14406 0.324219 8.20656 0.386719 8.20656 0.464219V3.84672C8.22837 3.84128 8.25075 3.83849 8.27323 3.83839H9.53573C10.1982 3.83839 10.7357 4.37589 10.7357 5.03839V8.39755C10.7734 8.3792 10.8147 8.36979 10.8566 8.37005H11.4874C11.6424 8.37005 11.7682 8.49588 11.7682 8.65088V15.9609C11.7682 16.0354 11.7386 16.1068 11.686 16.1595C11.6333 16.2121 11.5619 16.2417 11.4874 16.2417H10.8566C10.8141 16.2419 10.7722 16.2322 10.7341 16.2134L10.7357 16.2142V19.1242C10.7357 19.4425 10.6093 19.7477 10.3843 19.9727C10.1592 20.1978 9.85399 20.3242 9.53573 20.3242H1.36406ZM7.4674 17.6317V18.5767C7.46761 18.614 7.48252 18.6497 7.50889 18.6761C7.53525 18.7024 7.57095 18.7173 7.60823 18.7176H8.7199C8.75718 18.7173 8.79288 18.7024 8.81924 18.6761C8.8456 18.6497 8.86051 18.614 8.86073 18.5767V17.6317C8.86051 17.5945 8.84557 17.5589 8.81919 17.5327C8.7928 17.5064 8.7571 17.4917 8.7199 17.4917H7.60656C7.56942 17.4919 7.53385 17.5067 7.50751 17.5329C7.48117 17.5591 7.46617 17.5946 7.46573 17.6317H7.4674ZM4.8374 17.6317V18.5767C4.83761 18.614 4.85252 18.6497 4.87889 18.6761C4.90525 18.7024 4.94095 18.7173 4.97823 18.7176H6.08906C6.12635 18.7173 6.16204 18.7024 6.18841 18.6761C6.21477 18.6497 6.22968 18.614 6.2299 18.5767V17.6317C6.22968 17.5945 6.21474 17.5589 6.18835 17.5327C6.16197 17.5064 6.12627 17.4917 6.08906 17.4917H4.9774C4.94026 17.4919 4.90468 17.5067 4.87834 17.5329C4.852 17.5591 4.837 17.5946 4.83656 17.6317H4.8374ZM2.2074 17.6317V18.5776C2.2074 18.6551 2.2699 18.7176 2.3474 18.7176H3.45906C3.49635 18.7173 3.53204 18.7024 3.55841 18.6761C3.58477 18.6497 3.59968 18.614 3.5999 18.5767V17.6317C3.59968 17.5945 3.58474 17.5589 3.55835 17.5327C3.53197 17.5064 3.49627 17.4917 3.45906 17.4917H2.3474C2.31027 17.4917 2.27466 17.5065 2.2484 17.5327C2.22215 17.559 2.2074 17.5946 2.2074 17.6317ZM7.46656 15.4892V16.4342C7.46678 16.4715 7.48169 16.5072 7.50805 16.5336C7.53442 16.5599 7.57011 16.5748 7.6074 16.5751H8.71906C8.75635 16.5748 8.79204 16.5599 8.81841 16.5336C8.84477 16.5072 8.85968 16.4715 8.8599 16.4342V15.4884C8.8599 15.4513 8.84515 15.4156 8.81889 15.3894C8.79264 15.3631 8.75703 15.3484 8.7199 15.3484H7.60573C7.5686 15.3484 7.53299 15.3631 7.50673 15.3894C7.48048 15.4156 7.46573 15.4513 7.46573 15.4884V15.4892H7.46656ZM4.83656 15.4892V16.4342C4.83678 16.4715 4.85169 16.5072 4.87805 16.5336C4.90442 16.5599 4.94011 16.5748 4.9774 16.5751H6.08906C6.12635 16.5748 6.16204 16.5599 6.18841 16.5336C6.21477 16.5072 6.22968 16.4715 6.2299 16.4342V15.4884C6.2299 15.4513 6.21515 15.4156 6.18889 15.3894C6.16264 15.3631 6.12703 15.3484 6.0899 15.3484H4.97656C4.93943 15.3484 4.90382 15.3631 4.87757 15.3894C4.85131 15.4156 4.83656 15.4513 4.83656 15.4884V15.4892ZM2.20656 15.4892V16.4351C2.20656 16.5126 2.26906 16.5751 2.34656 16.5751H3.45823C3.49551 16.5748 3.53121 16.5599 3.55757 16.5336C3.58394 16.5072 3.59884 16.4715 3.59906 16.4342V15.4884C3.59906 15.4513 3.58431 15.4156 3.55806 15.3894C3.5318 15.3631 3.49619 15.3484 3.45906 15.3484H2.34656C2.30943 15.3484 2.27382 15.3631 2.24757 15.3894C2.22131 15.4156 2.20656 15.4513 2.20656 15.4884V15.4892ZM7.46573 13.3459V14.2917C7.46573 14.3692 7.52823 14.4317 7.60573 14.4317H8.71906C8.75619 14.4317 8.7918 14.417 8.81806 14.3907C8.84431 14.3645 8.85906 14.3288 8.85906 14.2917V13.3459C8.85884 13.3087 8.84391 13.2731 8.81752 13.2468C8.79113 13.2206 8.75544 13.2059 8.71823 13.2059H7.60656C7.56942 13.2061 7.53385 13.2209 7.50751 13.2471C7.48117 13.2733 7.46617 13.3087 7.46573 13.3459ZM4.83573 13.3459V14.2917C4.83573 14.3692 4.89823 14.4317 4.97573 14.4317H6.08906C6.12619 14.4317 6.1618 14.417 6.18806 14.3907C6.21431 14.3645 6.22906 14.3288 6.22906 14.2917V13.3459C6.22884 13.3087 6.21391 13.2731 6.18752 13.2468C6.16113 13.2206 6.12544 13.2059 6.08823 13.2059H4.97656C4.93942 13.2061 4.90385 13.2209 4.87751 13.2471C4.85117 13.2733 4.83617 13.3087 4.83573 13.3459ZM2.20573 13.3459V14.2917C2.20573 14.3692 2.26823 14.4317 2.34573 14.4317H3.45906C3.49619 14.4317 3.5318 14.417 3.55806 14.3907C3.58431 14.3645 3.59906 14.3288 3.59906 14.2917V13.3459C3.59884 13.3087 3.58391 13.2731 3.55752 13.2468C3.53113 13.2206 3.49544 13.2059 3.45823 13.2059H2.34656C2.30943 13.2059 2.27382 13.2206 2.24757 13.2469C2.22131 13.2731 2.20656 13.3088 2.20656 13.3459H2.20573ZM2.03073 7.75172V11.8451C2.03073 11.9226 2.09323 11.9851 2.17073 11.9851H8.63906C8.67619 11.9851 8.7118 11.9703 8.73806 11.944C8.76431 11.9178 8.77906 11.8822 8.77906 11.8451V7.75172C8.77884 7.71443 8.76394 7.67874 8.73757 7.65238C8.71121 7.62601 8.67551 7.6111 8.63823 7.61089H2.17156C2.13428 7.6111 2.09858 7.62601 2.07222 7.65238C2.04586 7.67874 2.03095 7.71443 2.03073 7.75172ZM1.61073 5.51672V6.50839C1.61073 6.74089 1.79906 6.92922 2.03156 6.92922H9.03073C9.14234 6.92922 9.24938 6.88488 9.3283 6.80596C9.40723 6.72704 9.45156 6.62 9.45156 6.50839V5.51672C9.45156 5.40511 9.40723 5.29807 9.3283 5.21914C9.24938 5.14022 9.14234 5.09589 9.03073 5.09589H8.20573V5.93755H8.6124V6.08589H2.4524V5.93755H2.7199C2.78749 5.93754 2.85409 5.92125 2.91406 5.89005L2.91156 5.89089V5.14255C2.85209 5.11172 2.78605 5.09571 2.71906 5.09589H2.0299C1.91843 5.09611 1.8116 5.14054 1.73286 5.21944C1.65412 5.29834 1.6099 5.40525 1.6099 5.51672H1.61073Z" fill="#699BF7"/>
</svg>
