<svg width="21" height="20" viewBox="0 0 21 20" fill="none" xmlns="http://www.w3.org/2000/svg">
<path d="M17.9406 11.0653C17.7206 11.0653 17.4906 10.9953 17.2706 10.9453C16.8251 10.8471 16.3873 10.7168 15.9606 10.5553C15.4967 10.3865 14.9867 10.3953 14.5289 10.5799C14.0711 10.7645 13.6977 11.1119 13.4806 11.5553L13.2606 12.0053C12.2866 11.4635 11.3916 10.7905 10.6006 10.0053C9.81536 9.21431 9.14241 8.31929 8.60059 7.3453L9.02059 7.0653C9.46395 6.84821 9.81137 6.47483 9.99598 6.01699C10.1806 5.55915 10.1894 5.04921 10.0206 4.5853C9.86181 4.15772 9.73153 3.7201 9.63059 3.2753C9.58059 3.0553 9.54059 2.8253 9.51059 2.5953C9.38915 1.89092 9.02021 1.25304 8.47021 0.796537C7.92021 0.340034 7.22529 0.0949066 6.51059 0.105298H3.51059C3.07962 0.101251 2.65284 0.190111 2.2593 0.365828C1.86576 0.541545 1.5147 0.799994 1.23002 1.12358C0.94534 1.44717 0.733724 1.82829 0.609577 2.24101C0.485431 2.65373 0.451668 3.08836 0.510589 3.5153C1.04333 7.70468 2.95662 11.5972 5.94824 14.5779C8.93987 17.5587 12.8393 19.4578 17.0306 19.9753H17.4106C18.148 19.9764 18.86 19.7058 19.4106 19.2153C19.727 18.9323 19.9797 18.5855 20.1521 18.1976C20.3244 17.8098 20.4126 17.3897 20.4106 16.9653V13.9653C20.3983 13.2707 20.1454 12.6019 19.6949 12.073C19.2445 11.5441 18.6244 11.1879 17.9406 11.0653ZM18.4406 17.0653C18.4404 17.2073 18.41 17.3476 18.3514 17.4769C18.2927 17.6062 18.2073 17.7216 18.1006 17.8153C17.9889 17.9118 17.8582 17.9838 17.717 18.0269C17.5758 18.0699 17.4271 18.083 17.2806 18.0653C13.5355 17.5851 10.0568 15.8718 7.39331 13.1956C4.72978 10.5194 3.033 7.03263 2.57059 3.2853C2.55467 3.13882 2.56862 2.99063 2.61159 2.84969C2.65456 2.70875 2.72566 2.57799 2.82059 2.4653C2.9143 2.35863 3.02965 2.27314 3.15897 2.21451C3.28829 2.15589 3.4286 2.12548 3.57059 2.1253H6.57059C6.80314 2.12012 7.03021 2.19618 7.21273 2.34037C7.39525 2.48456 7.5218 2.68787 7.57059 2.9153C7.61059 3.18863 7.66059 3.45863 7.72059 3.7253C7.83611 4.25244 7.98985 4.77048 8.18059 5.2753L6.78059 5.9253C6.66089 5.98022 6.55321 6.05824 6.46375 6.15489C6.37428 6.25154 6.30479 6.36491 6.25926 6.48849C6.21373 6.61207 6.19306 6.74343 6.19844 6.87502C6.20381 7.00661 6.23513 7.13584 6.29059 7.2553C7.72979 10.3381 10.2078 12.8161 13.2906 14.2553C13.5341 14.3553 13.8071 14.3553 14.0506 14.2553C14.1753 14.2107 14.2899 14.1418 14.3878 14.0525C14.4856 13.9632 14.5648 13.8554 14.6206 13.7353L15.2406 12.3353C15.7576 12.5202 16.2852 12.6738 16.8206 12.7953C17.0873 12.8553 17.3573 12.9053 17.6306 12.9453C17.858 12.9941 18.0613 13.1206 18.2055 13.3032C18.3497 13.4857 18.4258 13.7128 18.4206 13.9453L18.4406 17.0653Z" fill="white"/>
</svg>
