<svg width="23" height="20" viewBox="0 0 23 20" fill="none" xmlns="http://www.w3.org/2000/svg">
<path d="M7.20703 0.513672C6.58543 0.513672 5.98929 0.760602 5.54975 1.20014C5.11021 1.63968 4.86328 2.23582 4.86328 2.85742V3.63867H3.30078C2.47198 3.63867 1.67712 3.96791 1.09107 4.55396C0.505021 5.14001 0.175781 5.93487 0.175781 6.76367V13.7949C0.175781 14.4165 0.422711 15.0127 0.86225 15.4522C1.30179 15.8917 1.89793 16.1387 2.51953 16.1387H4.86328V16.9199C4.86328 17.5415 5.11021 18.1377 5.54975 18.5772C5.98929 19.0167 6.58543 19.2637 7.20703 19.2637H15.1758C15.7974 19.2637 16.3935 19.0167 16.8331 18.5772C17.2726 18.1377 17.5195 17.5415 17.5195 16.9199V16.1387H19.707C20.3286 16.1387 20.9248 15.8917 21.3643 15.4522C21.8039 15.0127 22.0508 14.4165 22.0508 13.7949V6.76367C22.0508 5.93487 21.7215 5.14001 21.1355 4.55396C20.5494 3.96791 19.7546 3.63867 18.9258 3.63867H17.3633V2.85742C17.3633 2.23582 17.1164 1.63968 16.6768 1.20014C16.2373 0.760602 15.6411 0.513672 15.0195 0.513672H7.20703ZM15.8008 3.63867H6.42578V2.85742C6.42578 2.65022 6.50809 2.45151 6.6546 2.30499C6.80112 2.15848 6.99983 2.07617 7.20703 2.07617H15.0195C15.2267 2.07617 15.4254 2.15848 15.572 2.30499C15.7185 2.45151 15.8008 2.65022 15.8008 2.85742V3.63867ZM7.20703 13.0137H15.1758C15.383 13.0137 15.5817 13.096 15.7282 13.2425C15.8747 13.389 15.957 13.5877 15.957 13.7949V16.9199C15.957 17.1271 15.8747 17.3258 15.7282 17.4723C15.5817 17.6189 15.383 17.7012 15.1758 17.7012H7.20703C6.99983 17.7012 6.80112 17.6189 6.6546 17.4723C6.50809 17.3258 6.42578 17.1271 6.42578 16.9199V13.7949C6.42578 13.5877 6.50809 13.389 6.6546 13.2425C6.80112 13.096 6.99983 13.0137 7.20703 13.0137V13.0137Z" fill="white"/>
</svg>
