<svg width="36" height="37" viewBox="0 0 36 37" fill="none" xmlns="http://www.w3.org/2000/svg">
<path d="M9.85732 9.59188V8.63543C9.85732 3.88334 13.4835 0 18 0C22.5165 0 26.1427 3.88334 26.1427 8.63543V9.59462H31.7014C32.0376 9.59496 32.3617 9.72128 32.611 9.94913C32.8602 10.177 33.0168 10.4901 33.0504 10.8279L35.4932 35.4927C35.5121 35.6831 35.4914 35.8755 35.4322 36.0573C35.3731 36.2391 35.2769 36.4064 35.1498 36.5484C35.0227 36.6904 34.8676 36.804 34.6944 36.8818C34.5212 36.9595 34.3338 36.9998 34.1442 37H1.85577C1.66622 36.9998 1.47881 36.9595 1.30562 36.8818C1.13242 36.804 0.977288 36.6904 0.850202 36.5484C0.723117 36.4064 0.626902 36.2391 0.567757 36.0573C0.508612 35.8755 0.487848 35.6831 0.506803 35.4927L2.94961 10.8279C2.98323 10.4901 3.13982 10.177 3.38904 9.94913C3.63827 9.72128 3.96238 9.59496 4.29858 9.59462H9.85732V9.59188ZM12.5715 9.59188H23.4285V8.63543C23.4285 5.36323 20.9802 2.74054 18 2.74054C15.0198 2.74054 12.5715 5.36323 12.5715 8.63543V9.59462V9.59188ZM9.85732 12.3324H5.52812L3.35674 34.2567H32.6433L30.4692 12.3324H26.1427V16.4432C26.1427 16.8066 25.9997 17.1552 25.7452 17.4122C25.4907 17.6691 25.1455 17.8135 24.7856 17.8135C24.4256 17.8135 24.0805 17.6691 23.8259 17.4122C23.5714 17.1552 23.4285 16.8066 23.4285 16.4432V12.3324H12.5715V16.4432C12.5715 16.8066 12.4286 17.1552 12.1741 17.4122C11.9195 17.6691 11.5744 17.8135 11.2144 17.8135C10.8545 17.8135 10.5093 17.6691 10.2548 17.4122C10.0003 17.1552 9.85732 16.8066 9.85732 16.4432V12.3324Z" fill="white"/>
</svg>
