<svg width="22" height="16" viewBox="0 0 22 16" fill="none" xmlns="http://www.w3.org/2000/svg">
<path d="M21.3641 14V2.75C21.3641 1.7125 20.5266 0.875 19.4891 0.875H1.97656C0.939062 0.875 0.101562 1.7125 0.101562 2.75V14C0.101562 15.0375 0.939062 15.875 1.97656 15.875H19.4891C20.5266 15.875 21.3641 15.0375 21.3641 14ZM19.7266 2.6125C20.1391 3.025 19.9141 3.45 19.6891 3.6625L14.6141 8.3125L19.4891 13.3875C19.6391 13.5625 19.7391 13.8375 19.5641 14.025C19.4016 14.225 19.0266 14.2125 18.8641 14.0875L13.4016 9.425L10.7266 11.8625L8.06406 9.425L2.60156 14.0875C2.43906 14.2125 2.06406 14.225 1.90156 14.025C1.72656 13.8375 1.82656 13.5625 1.97656 13.3875L6.85156 8.3125L1.77656 3.6625C1.55156 3.45 1.32656 3.025 1.73906 2.6125C2.15156 2.2 2.57656 2.4 2.92656 2.7L10.7266 9L18.5391 2.7C18.8891 2.4 19.3141 2.2 19.7266 2.6125Z" fill="#4D44B5"/>
</svg>
