<svg width="36" height="36" viewBox="0 0 36 36" fill="none" xmlns="http://www.w3.org/2000/svg">
<path d="M0.5 1.48242C0.5 1.19234 0.615234 0.914142 0.820352 0.709024C1.02547 0.503906 1.30367 0.388672 1.59375 0.388672L8.15625 0.388672C8.44633 0.388672 8.72453 0.503906 8.92965 0.709024C9.13477 0.914142 9.25 1.19234 9.25 1.48242C9.25 1.7725 9.13477 2.0507 8.92965 2.25582C8.72453 2.46094 8.44633 2.57617 8.15625 2.57617H2.6875V8.04492C2.6875 8.335 2.57227 8.6132 2.36715 8.81832C2.16203 9.02344 1.88383 9.13867 1.59375 9.13867C1.30367 9.13867 1.02547 9.02344 0.820352 8.81832C0.615234 8.6132 0.5 8.335 0.5 8.04492V1.48242ZM26.75 1.48242C26.75 1.19234 26.8652 0.914142 27.0704 0.709024C27.2755 0.503906 27.5537 0.388672 27.8438 0.388672L34.4062 0.388672C34.6963 0.388672 34.9745 0.503906 35.1796 0.709024C35.3848 0.914142 35.5 1.19234 35.5 1.48242V8.04492C35.5 8.335 35.3848 8.6132 35.1796 8.81832C34.9745 9.02344 34.6963 9.13867 34.4062 9.13867C34.1162 9.13867 33.838 9.02344 33.6329 8.81832C33.4277 8.6132 33.3125 8.335 33.3125 8.04492V2.57617H27.8438C27.5537 2.57617 27.2755 2.46094 27.0704 2.25582C26.8652 2.0507 26.75 1.7725 26.75 1.48242ZM1.59375 26.6387C1.88383 26.6387 2.16203 26.7539 2.36715 26.959C2.57227 27.1641 2.6875 27.4423 2.6875 27.7324V33.2012H8.15625C8.44633 33.2012 8.72453 33.3164 8.92965 33.5215C9.13477 33.7266 9.25 34.0048 9.25 34.2949C9.25 34.585 9.13477 34.8632 8.92965 35.0683C8.72453 35.2734 8.44633 35.3887 8.15625 35.3887H1.59375C1.30367 35.3887 1.02547 35.2734 0.820352 35.0683C0.615234 34.8632 0.5 34.585 0.5 34.2949V27.7324C0.5 27.4423 0.615234 27.1641 0.820352 26.959C1.02547 26.7539 1.30367 26.6387 1.59375 26.6387ZM34.4062 26.6387C34.6963 26.6387 34.9745 26.7539 35.1796 26.959C35.3848 27.1641 35.5 27.4423 35.5 27.7324V34.2949C35.5 34.585 35.3848 34.8632 35.1796 35.0683C34.9745 35.2734 34.6963 35.3887 34.4062 35.3887H27.8438C27.5537 35.3887 27.2755 35.2734 27.0704 35.0683C26.8652 34.8632 26.75 34.585 26.75 34.2949C26.75 34.0048 26.8652 33.7266 27.0704 33.5215C27.2755 33.3164 27.5537 33.2012 27.8438 33.2012H33.3125V27.7324C33.3125 27.4423 33.4277 27.1641 33.6329 26.959C33.838 26.7539 34.1162 26.6387 34.4062 26.6387ZM9.25 9.13867H11.4375V11.3262H9.25V9.13867Z" fill="#A098AE"/>
<path d="M15.8125 4.76367H4.875V15.7012H15.8125V4.76367ZM7.0625 6.95117H13.625V13.5137H7.0625V6.95117ZM11.4375 24.4512H9.25V26.6387H11.4375V24.4512Z" fill="#A098AE"/>
<path d="M15.8125 20.0762H4.875V31.0137H15.8125V20.0762ZM7.0625 22.2637H13.625V28.8262H7.0625V22.2637ZM24.5625 9.13867H26.75V11.3262H24.5625V9.13867Z" fill="#A098AE"/>
<path d="M20.1875 4.76367H31.125V15.7012H20.1875V4.76367ZM22.375 6.95117V13.5137H28.9375V6.95117H22.375ZM18 17.8887V22.2637H20.1875V24.4512H18V26.6387H22.375V22.2637H24.5625V26.6387H26.75V24.4512H31.125V22.2637H24.5625V17.8887H18ZM22.375 22.2637H20.1875V20.0762H22.375V22.2637ZM31.125 26.6387H28.9375V28.8262H24.5625V31.0137H31.125V26.6387ZM22.375 31.0137V28.8262H18V31.0137H22.375Z" fill="#A098AE"/>
<path d="M26.75 20.0762H31.125V17.8887H26.75V20.0762Z" fill="#A098AE"/>
</svg>
