<svg width="13" height="13" viewBox="0 0 13 13" fill="none" xmlns="http://www.w3.org/2000/svg">
<path d="M1.41231 3.22067L1.41256 3.22083C2.20297 2.02637 3.38894 1.14816 4.76249 0.740165M1.41231 3.22067L4.76249 0.740165M1.41231 3.22067L1.40851 3.22752M1.41231 3.22067L1.40851 3.22752M4.76249 0.740165C7.86009 -0.179938 11.111 1.47417 12.2181 4.45904C12.3168 4.72511 12.1589 5.00664 11.8951 5.08489C11.6288 5.16391 11.3572 5.01084 11.2608 4.76049C10.5062 2.80108 8.62675 1.47865 6.49981 1.45343C4.65087 1.47833 2.96052 2.4872 2.05967 4.09135H3.30015C3.57613 4.09135 3.79986 4.31508 3.79986 4.59106C3.79986 4.86704 3.57613 5.09077 3.30015 5.09077H0.859288C0.60563 5.09077 0.4 4.88514 0.4 4.63148V2.19308C0.4 1.91695 0.62385 1.6931 0.899982 1.6931C1.17612 1.6931 1.39996 1.91695 1.39996 2.19308V3.2431M4.76249 0.740165L1.39996 3.2431M1.40851 3.22752C1.40563 3.2327 1.40278 3.2379 1.39996 3.2431M1.40851 3.22752L1.39996 3.2431" fill="#343A40" stroke="#253342" stroke-width="0.2"/>
<path d="M11.5996 9.92629V10.9838C11.5996 11.26 11.8234 11.4838 12.0995 11.4838C12.3757 11.4838 12.5995 11.26 12.5995 10.9838V8.2178C12.5995 8.14508 12.5406 8.08614 12.4679 8.08614H9.69938C9.4234 8.08614 9.19967 8.30986 9.19967 8.58584C9.19967 8.86183 9.4234 9.08555 9.69938 9.08555H10.9399C10.039 10.6897 8.34865 11.6986 6.49971 11.7235C4.37269 11.6983 2.49316 10.3757 1.73866 8.41618C1.64231 8.16595 1.37089 8.01297 1.10467 8.09195C0.840809 8.17022 0.682984 8.45202 0.782056 8.71806C1.893 11.7013 5.14599 13.3512 8.24231 12.4272C9.62267 12.0153 10.8115 11.1287 11.5996 9.92629Z" fill="#343A40" stroke="#253342" stroke-width="0.2"/>
</svg>
