<svg width="25" height="31" viewBox="0 0 25 31" fill="none" xmlns="http://www.w3.org/2000/svg">
<path d="M24.5 9.04688L15.5 0.046875H3.5C2.70435 0.046875 1.94129 0.362945 1.37868 0.925555C0.81607 1.48816 0.5 2.25123 0.5 3.04688V27.0469C0.5 27.8425 0.81607 28.6056 1.37868 29.1682C1.94129 29.7308 2.70435 30.0469 3.5 30.0469H21.5C22.2956 30.0469 23.0587 29.7308 23.6213 29.1682C24.1839 28.6056 24.5 27.8425 24.5 27.0469V9.04688ZM8 25.5469H5V12.0469H8V25.5469ZM14 25.5469H11V16.5469H14V25.5469ZM20 25.5469H17V21.0469H20V25.5469ZM15.5 10.5469H14V3.04688L21.5 10.5469H15.5Z" fill="#C1BBEB"/>
</svg>
