<svg width="26" height="29" viewBox="0 0 26 29" fill="none" xmlns="http://www.w3.org/2000/svg">
<path d="M7.37218 28.0024C6.08486 27.9997 4.8272 27.6316 3.75774 26.9447C2.68828 26.2578 1.85489 25.2827 1.36264 24.1423C0.87039 23.002 0.74131 21.7475 0.991674 20.5369C1.24204 19.3263 1.86064 18.2139 2.76949 17.3399L13.8264 6.7274C14.1902 6.37858 14.6222 6.10187 15.0976 5.91309C15.573 5.72431 16.0826 5.62714 16.5971 5.62714C17.1117 5.62714 17.6212 5.72431 18.0966 5.91309C18.572 6.10187 19.004 6.37858 19.3679 6.7274C19.7317 7.07622 20.0204 7.49034 20.2173 7.9461C20.4142 8.40186 20.5156 8.89034 20.5156 9.38365C20.5156 9.87696 20.4142 10.3654 20.2173 10.8212C20.0204 11.277 19.7317 11.6911 19.3679 12.0399L8.29794 22.6399C8.18105 22.7708 8.03721 22.877 7.87544 22.9521C7.71368 23.0271 7.53748 23.0693 7.35791 23.0759C7.17834 23.0826 6.99928 23.0535 6.83196 22.9907C6.66464 22.9279 6.51267 22.8325 6.3856 22.7107C6.25853 22.5889 6.1591 22.4432 6.09355 22.2828C6.028 22.1224 5.99774 21.9507 6.00468 21.7786C6.01161 21.6064 6.05559 21.4375 6.13385 21.2824C6.21212 21.1274 6.32298 20.9895 6.45947 20.8774L17.5164 10.2649C17.73 10.0258 17.8416 9.71818 17.8289 9.40358C17.8162 9.08899 17.6802 8.79056 17.448 8.56795C17.2158 8.34533 16.9045 8.21491 16.5763 8.20276C16.2482 8.19061 15.9273 8.29762 15.6779 8.5024L4.60796 19.1024C3.87311 19.8069 3.46028 20.7624 3.46028 21.7587C3.46028 22.7549 3.87311 23.7104 4.60796 24.4149C5.34281 25.1194 6.33947 25.5152 7.3787 25.5152C8.41793 25.5152 9.4146 25.1194 10.1494 24.4149L21.2063 13.8024C22.3939 12.6236 23.051 11.0449 23.0362 9.40614C23.0213 7.76741 22.3357 6.19983 21.1269 5.04103C19.9182 3.88223 18.283 3.22493 16.5737 3.21069C14.8643 3.19645 13.2175 3.82641 11.9879 4.9649L5.53371 11.2149C5.28942 11.4477 4.95894 11.5784 4.61448 11.5784C4.27001 11.5784 3.93954 11.4477 3.69524 11.2149C3.57303 11.0987 3.47603 10.9604 3.40983 10.8081C3.34364 10.6558 3.30956 10.4924 3.30956 10.3274C3.30956 10.1624 3.34364 9.999 3.40983 9.84668C3.47603 9.69436 3.57303 9.5561 3.69524 9.4399L10.1494 3.1899C11.8612 1.54887 14.1829 0.626953 16.6036 0.626953C19.0244 0.626953 21.3461 1.54887 23.0578 3.1899C24.7696 4.83093 25.7313 7.05664 25.7313 9.3774C25.7313 11.6982 24.7696 13.9239 23.0578 15.5649L11.9879 26.1774C11.3814 26.7574 10.6615 27.2172 9.86951 27.5303C9.07751 27.8434 8.2289 28.0039 7.37218 28.0024Z" fill="#A098AE"/>
</svg>
