<svg width="37" height="37" viewBox="0 0 37 37" fill="none" xmlns="http://www.w3.org/2000/svg">
<path d="M13.4864 0.046875L12.3509 5.17617C11.7051 5.48888 11.0878 5.84906 10.4957 6.25547L5.51359 4.67695L0.5 13.4168L4.27679 16.8973C4.12923 17.9994 4.19606 18.5426 4.27679 19.1965L0.5 22.677L5.51359 31.4168L10.4957 29.8383C11.0878 30.2447 11.7051 30.6049 12.3509 30.9176L13.4864 36.0469H23.5136L24.6491 30.9176C25.2949 30.6049 25.9122 30.2447 26.5043 29.8383L31.4864 31.4168L36.5 22.677L32.7232 19.1965C32.7541 18.8139 32.8102 18.431 32.8106 18.0469C32.812 17.6511 32.75 17.2514 32.7232 16.8973L36.5 13.4168L31.4864 4.67695L26.5043 6.25547C25.9122 5.84906 25.2949 5.48888 24.6491 5.17617L23.5136 0.046875H13.4864ZM16.3583 3.64687H20.6417L21.5256 7.64062L22.413 7.99219C23.4169 8.38778 24.3553 8.93229 25.1976 9.60938L25.9453 10.207L29.8234 8.98008L31.9651 12.7137L28.9674 15.4805L29.1106 16.4297C29.2792 17.4794 29.2465 18.6875 29.1106 19.6641L28.9674 20.6133L31.9651 23.3801L29.8234 27.1137L25.9453 25.8867L25.1976 26.4844C24.3553 27.1615 23.4169 27.706 22.413 28.1016L21.5256 28.4531L20.6417 32.4469H16.3583L15.4744 28.4531L14.587 28.1016C13.5831 27.706 12.6447 27.1615 11.8024 26.4844L11.0547 25.8867L7.17663 27.1137L5.03494 23.3801L8.03261 20.6133L7.88936 19.6641C7.71464 18.5931 7.74147 17.3675 7.88936 16.4297L8.03261 15.4805L5.03494 12.7137L7.17663 8.98008L11.0547 10.207L11.8024 9.60938C12.6447 8.93229 13.5831 8.38778 14.587 7.99219L15.4744 7.64062L16.3583 3.64687ZM18.5 10.8469C14.5694 10.8469 11.3447 14.0917 11.3447 18.0469C11.3447 22.002 14.5694 25.2469 18.5 25.2469C22.4306 25.2469 25.6553 22.002 25.6553 18.0469C25.6553 14.0917 22.4306 10.8469 18.5 10.8469ZM18.5 14.4469C20.4971 14.4469 22.0776 16.0373 22.0776 18.0469C22.0776 20.0564 20.4971 21.6469 18.5 21.6469C16.5029 21.6469 14.9224 20.0564 14.9224 18.0469C14.9224 16.0373 16.5029 14.4469 18.5 14.4469Z" fill="#C1BBEB"/>
</svg>
