<svg width="31" height="38" viewBox="0 0 31 38" fill="none" xmlns="http://www.w3.org/2000/svg">
<path fill-rule="evenodd" clip-rule="evenodd" d="M13.4288 37.75H4.25C2.17875 37.75 0.5 36.0713 0.5 34V23.5863C0.5 21.7738 1.79625 20.2213 3.57875 19.8975C6.22125 19.4163 10.7775 18.5875 13.355 18.12C14.7737 17.8612 16.2263 17.8612 17.645 18.12C20.2225 18.5875 24.7788 19.4163 27.4213 19.8975C29.2038 20.2213 30.5 21.7738 30.5 23.5863C30.5 26.3125 30.5 31.0825 30.5 34C30.5 36.0713 28.8212 37.75 26.75 37.75H13.4288ZM25.285 22.05L25.29 22.0563C25.5088 22.3838 25.56 22.795 25.4287 23.1662L24.5462 25.6662C24.4312 25.9925 24.185 26.2575 23.8675 26.3963L22.2075 27.12L22.8675 28.4412C23.0525 28.81 23.0425 29.2462 22.8425 29.6075L19.7075 35.25H26.75C27.44 35.25 28 34.69 28 34C28 31.0825 28 26.3125 28 23.5863C28 22.9825 27.5675 22.465 26.9738 22.3562L25.285 22.05ZM21.8663 21.4275L17.1975 20.5788C16.075 20.375 14.925 20.375 13.8025 20.5788L9.13375 21.4275L8.13625 22.9238L8.63 24.3213L11 25.3537C11.3138 25.4912 11.5575 25.7512 11.675 26.0737C11.7925 26.3962 11.7712 26.7525 11.6175 27.0588L10.6625 28.9688L14.1525 35.25H16.8475L20.3375 28.9688L19.3825 27.0588C19.2288 26.7525 19.2075 26.3962 19.325 26.0737C19.4425 25.7512 19.6862 25.4912 20 25.3537L22.37 24.3213L22.8638 22.9238L21.8663 21.4275ZM5.715 22.05L4.02625 22.3562C3.4325 22.465 3 22.9825 3 23.5863V34C3 34.69 3.56 35.25 4.25 35.25H11.2925L8.1575 29.6075C7.9575 29.2462 7.9475 28.81 8.1325 28.4412L8.7925 27.12L7.1325 26.3963C6.815 26.2575 6.56875 25.9925 6.45375 25.6662L5.57125 23.1662C5.44 22.795 5.49125 22.3838 5.71 22.0563L5.715 22.05ZM24.25 29V31.5C24.25 32.19 24.81 32.75 25.5 32.75C26.19 32.75 26.75 32.19 26.75 31.5V29C26.75 28.31 26.19 27.75 25.5 27.75C24.81 27.75 24.25 28.31 24.25 29ZM15.5 0.25C11.0163 0.25 7.375 3.89125 7.375 8.375C7.375 12.8587 11.0163 16.5 15.5 16.5C19.9837 16.5 23.625 12.8587 23.625 8.375C23.625 3.89125 19.9837 0.25 15.5 0.25ZM15.5 2.75C18.605 2.75 21.125 5.27 21.125 8.375C21.125 11.48 18.605 14 15.5 14C12.395 14 9.875 11.48 9.875 8.375C9.875 5.27 12.395 2.75 15.5 2.75Z" fill="white"/>
</svg>
