<svg width="13" height="12" viewBox="0 0 13 12" fill="none" xmlns="http://www.w3.org/2000/svg">
<path fill-rule="evenodd" clip-rule="evenodd" d="M6.50093 9.7486L3.60783 11.2696C3.26156 11.4516 2.83328 11.3185 2.65124 10.9722C2.57875 10.8344 2.55374 10.6764 2.58007 10.5229L3.1326 7.30137L0.792034 5.01988C0.5119 4.74682 0.506168 4.29836 0.779231 4.01823C0.887966 3.90667 1.03044 3.83408 1.1846 3.81168L4.41919 3.34167L5.86574 0.410632C6.03887 0.0598276 6.46361 -0.0842042 6.81441 0.0889283C6.9541 0.157871 7.06717 0.27094 7.13612 0.410632L8.58267 3.34167L11.8173 3.81168C12.2044 3.86793 12.4726 4.22737 12.4164 4.61451C12.394 4.76867 12.3214 4.91114 12.2098 5.01988L9.86925 7.30137L10.4218 10.5229C10.4879 10.9085 10.229 11.2746 9.84339 11.3408C9.68985 11.3671 9.53191 11.3421 9.39403 11.2696L6.50093 9.7486Z" fill="#FFA800"/>
</svg>
