<svg width="21" height="21" viewBox="0 0 21 21" fill="none" xmlns="http://www.w3.org/2000/svg">
<path d="M10.5 2.19531C14.911 2.19531 18.5 5.78431 18.5 10.1953C18.5 14.6063 14.911 18.1953 10.5 18.1953C6.089 18.1953 2.5 14.6063 2.5 10.1953C2.5 5.78431 6.089 2.19531 10.5 2.19531ZM10.5 0.195312C4.977 0.195312 0.5 4.67231 0.5 10.1953C0.5 15.7183 4.977 20.1953 10.5 20.1953C16.023 20.1953 20.5 15.7183 20.5 10.1953C20.5 4.67231 16.023 0.195312 10.5 0.195312ZM14.3 15.5953L11.5 9.86231V5.19531H9.5V10.5283L12.7 14.7943L14.3 13.5953V15.5953Z" fill="#4D44B5"/>
</svg>
