<svg width="13" height="15" viewBox="0 0 13 15" fill="none" xmlns="http://www.w3.org/2000/svg">
<path d="M9.83333 14.2513H3.16667C2.43029 14.2513 1.83333 13.6543 1.83333 12.918V4.2513H1.16667C0.798477 4.2513 0.5 3.95283 0.5 3.58464C0.5 3.21645 0.798477 2.91797 1.16667 2.91797H3.16667V2.2513C3.16667 1.51492 3.76362 0.917969 4.5 0.917969H8.5C9.23638 0.917969 9.83333 1.51492 9.83333 2.2513V2.91797H11.8333C12.2015 2.91797 12.5 3.21645 12.5 3.58464C12.5 3.95283 12.2015 4.2513 11.8333 4.2513H11.1667V12.918C11.1667 13.6543 10.5697 14.2513 9.83333 14.2513ZM3.16667 4.2513V12.918H9.83333V4.2513H3.16667ZM4.5 2.2513V2.91797H8.5V2.2513H4.5ZM8.5 10.918C8.5 11.2862 8.20152 11.5846 7.83333 11.5846C7.46514 11.5846 7.16667 11.2862 7.16667 10.918V6.2513C7.16667 5.88311 7.46514 5.58464 7.83333 5.58464C8.20152 5.58464 8.5 5.88311 8.5 6.2513V10.918ZM5.83333 10.918C5.83333 11.2862 5.53486 11.5846 5.16667 11.5846C4.79848 11.5846 4.5 11.2862 4.5 10.918V6.2513C4.5 5.88311 4.79848 5.58464 5.16667 5.58464C5.53486 5.58464 5.83333 5.88311 5.83333 6.2513V10.918Z" fill="#D55151"/>
</svg>
