<svg width="10" height="13" viewBox="0 0 10 13" fill="none" xmlns="http://www.w3.org/2000/svg">
<path d="M1.61158 5.96393H9.30958C9.88425 5.96393 10.1896 5.28393 9.80758 4.85393L5.95892 0.52393C5.89649 0.453467 5.81982 0.397053 5.73397 0.358418C5.64812 0.319782 5.55506 0.299805 5.46092 0.299805C5.36678 0.299805 5.27371 0.319782 5.18786 0.358418C5.10201 0.397053 5.02534 0.453467 4.96292 0.52393L1.11292 4.85393C0.730916 5.28393 1.03625 5.96393 1.61158 5.96393ZM4.96225 12.7366C5.02468 12.8071 5.10135 12.8635 5.18719 12.9021C5.27304 12.9407 5.36611 12.9607 5.46025 12.9607C5.55439 12.9607 5.64746 12.9407 5.7333 12.9021C5.81915 12.8635 5.89582 12.8071 5.95825 12.7366L9.80692 8.4066C10.1896 7.97726 9.88425 7.29726 9.30892 7.29726H1.61158C1.03692 7.29726 0.731582 7.97726 1.11358 8.40726L4.96225 12.7366Z" fill="#9E9E9E"/>
</svg>
