<svg width="34" height="33" viewBox="0 0 34 33" fill="none" xmlns="http://www.w3.org/2000/svg">
<path d="M16.9639 23.6777C16.6597 23.6777 16.3623 23.7679 16.1094 23.937C15.8564 24.106 15.6593 24.3462 15.5429 24.6272C15.4264 24.9083 15.396 25.2175 15.4553 25.5159C15.5147 25.8142 15.6612 26.0883 15.8763 26.3034C16.0914 26.5185 16.3654 26.665 16.6638 26.7244C16.9622 26.7837 17.2714 26.7532 17.5525 26.6368C17.8335 26.5204 18.0737 26.3233 18.2427 26.0703C18.4117 25.8174 18.502 25.52 18.502 25.2158C18.502 24.8079 18.3399 24.4167 18.0515 24.1282C17.763 23.8398 17.3718 23.6777 16.9639 23.6777ZM15.9385 12.3984H17.9893V21.627H15.9385V12.3984Z" fill="#A098AE"/>
<path d="M30.2945 30.8554H3.63436C3.45826 30.8553 3.28515 30.8099 3.13171 30.7235C2.97826 30.6371 2.84965 30.5127 2.75827 30.3622C2.66688 30.2116 2.6158 30.0401 2.60994 29.8641C2.60409 29.6881 2.64365 29.5136 2.72483 29.3573L16.0549 3.72255C16.1415 3.55617 16.2721 3.41673 16.4325 3.31942C16.5929 3.22211 16.7769 3.17065 16.9644 3.17065C17.152 3.17065 17.336 3.22211 17.4964 3.31942C17.6567 3.41673 17.7873 3.55617 17.874 3.72255L31.204 29.3573C31.2852 29.5136 31.3248 29.6881 31.3189 29.8641C31.3131 30.0401 31.262 30.2116 31.1706 30.3622C31.0792 30.5127 30.9506 30.6371 30.7972 30.7235C30.6437 30.8099 30.4706 30.8553 30.2945 30.8554ZM5.32625 28.8046H28.6026L28.6036 28.8016L16.9665 6.42035H16.9624L5.3242 28.8016L5.32625 28.8046Z" fill="#A098AE"/>
</svg>
