<svg width="22" height="16" viewBox="0 0 22 16" fill="none" xmlns="http://www.w3.org/2000/svg">
<path d="M21.6707 13.4766V2.22656C21.6707 1.18906 20.8332 0.351562 19.7957 0.351562H2.2832C1.2457 0.351562 0.408203 1.18906 0.408203 2.22656V13.4766C0.408203 14.5141 1.2457 15.3516 2.2832 15.3516H19.7957C20.8332 15.3516 21.6707 14.5141 21.6707 13.4766ZM20.0332 2.08906C20.4457 2.50156 20.2207 2.92656 19.9957 3.13906L14.9207 7.78906L19.7957 12.8641C19.9457 13.0391 20.0457 13.3141 19.8707 13.5016C19.7082 13.7016 19.3332 13.6891 19.1707 13.5641L13.7082 8.90156L11.0332 11.3391L8.3707 8.90156L2.9082 13.5641C2.7457 13.6891 2.3707 13.7016 2.2082 13.5016C2.0332 13.3141 2.1332 13.0391 2.2832 12.8641L7.1582 7.78906L2.0832 3.13906C1.8582 2.92656 1.6332 2.50156 2.0457 2.08906C2.4582 1.67656 2.8832 1.87656 3.2332 2.17656L11.0332 8.47656L18.8457 2.17656C19.1957 1.87656 19.6207 1.67656 20.0332 2.08906Z" fill="white"/>
</svg>
