<svg width="35" height="35" viewBox="0 0 35 35" fill="none" xmlns="http://www.w3.org/2000/svg">
<path d="M21.8575 15.6014C21.8575 15.8661 21.7523 16.12 21.5651 16.3071C21.3779 16.4943 21.1241 16.5995 20.8594 16.5995H10.213C9.9483 16.5995 9.69443 16.4943 9.50725 16.3071C9.32008 16.12 9.21492 15.8661 9.21492 15.6014C9.21492 15.3367 9.32008 15.0828 9.50725 14.8956C9.69443 14.7084 9.9483 14.6033 10.213 14.6033H20.8594C21.1241 14.6033 21.3779 14.7084 21.5651 14.8956C21.7523 15.0828 21.8575 15.3367 21.8575 15.6014ZM34.2006 34.2658C34.1105 34.3604 34.0021 34.4357 33.882 34.4872C33.7619 34.5386 33.6326 34.5652 33.5019 34.5652C33.3712 34.5652 33.2419 34.5386 33.1218 34.4872C33.0017 34.4357 32.8934 34.3604 32.8032 34.2658L25.3841 26.8632C22.4541 29.4264 18.6426 30.7504 14.7546 30.5558C10.8666 30.3612 7.20638 28.6631 4.54699 25.8202C1.88759 22.9773 0.437192 19.2121 0.502087 15.3198C0.566982 11.4274 2.14209 7.71265 4.89478 4.95996C7.64746 2.20728 11.3622 0.632168 15.2546 0.567273C19.1469 0.502378 22.9121 1.95278 25.755 4.61217C28.598 7.27156 30.296 10.9318 30.4906 14.8198C30.6853 18.7078 29.3612 22.5193 26.798 25.4492L34.2006 32.8684C34.2952 32.9585 34.3705 33.0669 34.422 33.187C34.4735 33.3071 34.5 33.4364 34.5 33.5671C34.5 33.6978 34.4735 33.8271 34.422 33.9472C34.3705 34.0673 34.2952 34.1756 34.2006 34.2658ZM15.5362 28.5766C18.1024 28.5766 20.6111 27.8156 22.7448 26.3899C24.8786 24.9642 26.5417 22.9377 27.5237 20.5668C28.5058 18.1959 28.7628 15.587 28.2621 13.07C27.7615 10.5531 26.5257 8.24111 24.7111 6.42649C22.8964 4.61188 20.5845 3.3761 18.0675 2.87545C15.5506 2.3748 12.9417 2.63175 10.5708 3.61382C8.19986 4.59588 6.17341 6.25895 4.74767 8.39272C3.32193 10.5265 2.56095 13.0351 2.56095 15.6014C2.56535 19.0413 3.93379 22.339 6.36617 24.7714C8.79855 27.2038 12.0963 28.5722 15.5362 28.5766Z" fill="#CBCBCB"/>
</svg>
