<svg width="35" height="35" viewBox="0 0 35 35" fill="none" xmlns="http://www.w3.org/2000/svg">
<path d="M21.8575 15.6014C21.8575 15.8661 21.7523 16.12 21.5651 16.3071C21.3779 16.4943 21.1241 16.5995 20.8594 16.5995H16.5343V20.9245C16.5343 21.1893 16.4291 21.4431 16.2419 21.6303C16.0548 21.8175 15.8009 21.9226 15.5362 21.9226C15.2715 21.9226 15.0176 21.8175 14.8304 21.6303C14.6432 21.4431 14.5381 21.1893 14.5381 20.9245V16.5995H10.213C9.9483 16.5995 9.69443 16.4943 9.50725 16.3071C9.32008 16.12 9.21492 15.8661 9.21492 15.6014C9.21492 15.3367 9.32008 15.0828 9.50725 14.8956C9.69443 14.7084 9.9483 14.6033 10.213 14.6033H14.5381V10.2782C14.5381 10.0135 14.6432 9.75962 14.8304 9.57244C15.0176 9.38526 15.2715 9.2801 15.5362 9.2801C15.8009 9.2801 16.0548 9.38526 16.2419 9.57244C16.4291 9.75962 16.5343 10.0135 16.5343 10.2782V14.6033H20.8594C21.1241 14.6033 21.3779 14.7084 21.5651 14.8956C21.7523 15.0828 21.8575 15.3367 21.8575 15.6014ZM34.2006 34.2658C34.1105 34.3604 34.0021 34.4357 33.882 34.4872C33.7619 34.5386 33.6326 34.5652 33.5019 34.5652C33.3712 34.5652 33.2419 34.5386 33.1218 34.4872C33.0017 34.4357 32.8934 34.3604 32.8032 34.2658L25.3841 26.8632C22.4541 29.4264 18.6426 30.7504 14.7546 30.5558C10.8666 30.3612 7.20638 28.6631 4.54699 25.8202C1.88759 22.9773 0.437192 19.2121 0.502087 15.3198C0.566982 11.4274 2.14209 7.71265 4.89478 4.95996C7.64746 2.20728 11.3622 0.632168 15.2546 0.567273C19.1469 0.502378 22.9121 1.95278 25.755 4.61217C28.598 7.27156 30.296 10.9318 30.4906 14.8198C30.6853 18.7078 29.3612 22.5193 26.798 25.4492L34.2006 32.8684C34.2952 32.9585 34.3705 33.0669 34.422 33.187C34.4735 33.3071 34.5 33.4364 34.5 33.5671C34.5 33.6978 34.4735 33.8271 34.422 33.9472C34.3705 34.0673 34.2952 34.1756 34.2006 34.2658ZM28.5114 15.6014C28.5114 13.0351 27.7504 10.5265 26.3247 8.39272C24.899 6.25895 22.8725 4.59588 20.5016 3.61382C18.1307 2.63175 15.5218 2.3748 13.0048 2.87545C10.4879 3.3761 8.17593 4.61188 6.36131 6.42649C4.54669 8.24111 3.31092 10.5531 2.81026 13.07C2.30961 15.587 2.56657 18.1959 3.54863 20.5668C4.5307 22.9377 6.19376 24.9642 8.32753 26.3899C10.4613 27.8156 12.9699 28.5766 15.5362 28.5766C18.9761 28.5722 22.2738 27.2038 24.7062 24.7714C27.1386 22.339 28.507 19.0413 28.5114 15.6014Z" fill="#4D44B5"/>
</svg>
