<svg width="136" height="41" viewBox="0 0 136 41" fill="none" xmlns="http://www.w3.org/2000/svg">
<path d="M130.499 0.116211H5.49998C2.73857 0.116211 0.5 2.35478 0.5 5.11619V35.116C0.5 37.8774 2.73857 40.116 5.49998 40.116H130.499C133.261 40.116 135.499 37.8774 135.499 35.116V5.11619C135.499 2.35478 133.261 0.116211 130.499 0.116211Z" fill="black"/>
<path d="M130.499 0.916251C131.613 0.917538 132.68 1.36048 133.468 2.14789C134.255 2.93531 134.698 4.0029 134.699 5.11643V35.1163C134.698 36.2298 134.255 37.2974 133.468 38.0848C132.68 38.8722 131.613 39.3152 130.499 39.3165H5.49998C4.38643 39.3152 3.31887 38.8722 2.53149 38.0848C1.74411 37.2974 1.30123 36.2298 1.3 35.1163V5.11643C1.30121 4.00288 1.74409 2.93528 2.53147 2.14786C3.31885 1.36045 4.38643 0.917516 5.49998 0.916251H130.499ZM130.499 0.116455H5.49998C4.17509 0.120333 2.90558 0.64836 1.96874 1.5852C1.0319 2.52204 0.503878 3.79155 0.5 5.11643L0.5 35.1163C0.503878 36.4412 1.0319 37.7107 1.96874 38.6475C2.90558 39.5844 4.17509 40.1124 5.49998 40.1163H130.499C131.824 40.1124 133.094 39.5844 134.031 38.6475C134.967 37.7107 135.495 36.4412 135.499 35.1163V5.11643C135.495 3.79155 134.967 2.52204 134.031 1.5852C133.094 0.64836 131.824 0.120333 130.499 0.116455Z" fill="#1D1D1D"/>
<path d="M47.9182 10.3594C47.9364 10.7264 47.8797 11.0932 47.7516 11.4375C47.6235 11.7818 47.4267 12.0965 47.173 12.3623C46.8888 12.6571 46.5456 12.8885 46.1658 13.0415C45.786 13.1944 45.3781 13.2655 44.969 13.25C44.5572 13.2537 44.1488 13.175 43.7679 13.0186C43.3869 12.8622 43.0411 12.6313 42.7507 12.3393C42.4603 12.0474 42.2312 11.7003 42.0768 11.3185C41.9225 10.9367 41.846 10.528 41.8519 10.1162C41.846 9.70445 41.9225 9.29567 42.0769 8.91389C42.2313 8.53211 42.4604 8.18503 42.7508 7.89304C43.0412 7.60105 43.387 7.37003 43.7679 7.21357C44.1488 7.05711 44.5572 6.97835 44.969 6.98193C45.3923 6.98065 45.8115 7.06625 46.2005 7.23343C46.5617 7.37987 46.8833 7.60957 47.1389 7.90382L46.6116 8.43162C46.4106 8.19507 46.1579 8.00786 45.8731 7.88443C45.5883 7.761 45.279 7.70465 44.969 7.71972C44.6569 7.71811 44.3477 7.7795 44.0599 7.90021C43.7721 8.02092 43.5116 8.19847 43.2941 8.42223C43.0765 8.64599 42.9064 8.91135 42.7938 9.20243C42.6812 9.4935 42.6286 9.8043 42.639 10.1162C42.6315 10.5834 42.763 11.0423 43.0167 11.4347C43.2704 11.827 43.6349 12.1353 44.064 12.3202C44.4931 12.5052 44.9674 12.5585 45.4269 12.4735C45.8863 12.3885 46.3102 12.169 46.6448 11.8428C46.9526 11.511 47.1311 11.0797 47.1477 10.6274H44.969V9.90671H47.8762C47.9037 10.0561 47.9178 10.2076 47.9182 10.3594Z" fill="white" stroke="white" stroke-width="0.2" stroke-miterlimit="10"/>
<path d="M52.5283 7.85363H49.7959V9.75592H52.2598V10.4767H49.7959V12.379H52.5283V13.1163H49.0254V7.11633H52.5283V7.85363Z" fill="white" stroke="white" stroke-width="0.2" stroke-miterlimit="10"/>
<path d="M55.7793 13.1163H55.0078V7.85363H53.332V7.11633H57.4551V7.85363H55.7793V13.1163Z" fill="white" stroke="white" stroke-width="0.2" stroke-miterlimit="10"/>
<path d="M60.4375 13.1163V7.11633H61.208V13.1163H60.4375Z" fill="white" stroke="white" stroke-width="0.2" stroke-miterlimit="10"/>
<path d="M64.6288 13.1163H63.8573V7.85363H62.1816V7.11633H66.3046V7.85363H64.6288V13.1163Z" fill="white" stroke="white" stroke-width="0.2" stroke-miterlimit="10"/>
<path d="M74.1082 12.3408C73.5242 12.9231 72.7331 13.25 71.9085 13.25C71.0838 13.25 70.2928 12.9231 69.7088 12.3408C69.4199 12.0482 69.1928 11.7004 69.0409 11.3183C68.8891 10.9361 68.8157 10.5273 68.825 10.1162C68.8157 9.70511 68.8891 9.29631 69.0409 8.91415C69.1928 8.53199 69.4199 8.18426 69.7088 7.89163C69.9975 7.6029 70.3402 7.37393 70.7175 7.21783C71.0947 7.06173 71.4991 6.98157 71.9073 6.98193C72.3156 6.9823 72.7198 7.06318 73.0968 7.21994C73.4738 7.37671 73.8161 7.60629 74.1043 7.89553C74.3934 8.18738 74.6209 8.53434 74.7734 8.91581C74.9259 9.29727 75.0002 9.70548 74.992 10.1162C75.001 10.5273 74.9275 10.936 74.7757 11.3181C74.6239 11.7003 74.3969 12.048 74.1082 12.3408ZM70.2781 11.8384C70.7106 12.2702 71.2968 12.5127 71.908 12.5127C72.5192 12.5127 73.1053 12.2702 73.5379 11.8384C73.7597 11.6113 73.9331 11.3416 74.0478 11.0456C74.1624 10.7496 74.2159 10.4335 74.2049 10.1162C74.2159 9.79898 74.1624 9.48281 74.0478 9.1868C73.9331 8.8908 73.7597 8.62111 73.5379 8.39403C73.1053 7.96223 72.5192 7.71972 71.908 7.71972C71.2968 7.71972 70.7106 7.96223 70.2781 8.39403C70.0566 8.62129 69.8834 8.89103 69.769 9.18701C69.6545 9.48299 69.6011 9.79907 69.6121 10.1162C69.6011 10.4334 69.6545 10.7495 69.769 11.0454C69.8834 11.3414 70.0566 11.6111 70.2781 11.8384Z" fill="white" stroke="white" stroke-width="0.2" stroke-miterlimit="10"/>
<path d="M76.0742 13.1163V7.11633H77.0127L79.9287 11.7838H79.9619L79.9287 10.6275V7.11633H80.7002V13.1163H79.8955L76.8447 8.22273H76.8115L76.8447 9.37902V13.1163H76.0742Z" fill="white" stroke="white" stroke-width="0.2" stroke-miterlimit="10"/>
<path d="M68.6353 21.8678C67.7947 21.871 66.974 22.1231 66.2767 22.5924C65.5794 23.0617 65.0368 23.727 64.7173 24.5045C64.3979 25.2819 64.316 26.1366 64.4819 26.9606C64.6478 27.7845 65.0542 28.5409 65.6497 29.1341C66.2451 29.7273 67.003 30.1307 67.8276 30.2935C68.6522 30.4563 69.5065 30.3711 70.2827 30.0487C71.059 29.7264 71.7223 29.1812 72.1889 28.4821C72.6555 27.783 72.9045 26.9614 72.9045 26.1209C72.9128 25.5587 72.8079 25.0006 72.596 24.4798C72.3842 23.959 72.0698 23.4861 71.6715 23.0893C71.2732 22.6925 70.7991 22.3799 70.2775 22.17C69.7559 21.9602 69.1974 21.8574 68.6353 21.8678ZM68.6353 28.6985C68.1176 28.7354 67.6009 28.6157 67.1523 28.3548C66.7037 28.0939 66.3441 27.704 66.1202 27.2358C65.8963 26.7677 65.8185 26.243 65.897 25.73C65.9755 25.217 66.2066 24.7396 66.5603 24.3598C66.9139 23.98 67.3737 23.7155 67.8798 23.6007C68.3859 23.486 68.9148 23.5262 69.3977 23.7162C69.8806 23.9062 70.2951 24.2372 70.5872 24.6661C70.8794 25.095 71.0356 25.6019 71.0356 26.1209C71.0513 26.4487 71.0013 26.7764 70.8885 27.0846C70.7756 27.3928 70.6023 27.6753 70.3786 27.9155C70.1549 28.1557 69.8855 28.3487 69.5861 28.4832C69.2867 28.6177 68.9634 28.6909 68.6353 28.6985ZM59.3219 21.8678C58.4814 21.8709 57.6607 22.1231 56.9633 22.5923C56.266 23.0616 55.7234 23.727 55.4039 24.5044C55.0845 25.2818 55.0025 26.1365 55.1684 26.9605C55.3344 27.7845 55.7407 28.5408 56.3362 29.134C56.9316 29.7272 57.6895 30.1307 58.5141 30.2935C59.3387 30.4563 60.193 30.3712 60.9693 30.0488C61.7455 29.7264 62.4088 29.1812 62.8754 28.4821C63.3421 27.783 63.5911 26.9614 63.5911 26.1209C63.5993 25.5587 63.4944 25.0006 63.2826 24.4798C63.0708 23.959 62.7564 23.4861 62.3581 23.0893C61.9597 22.6925 61.4857 22.3799 60.9641 22.17C60.4425 21.9602 59.884 21.8574 59.3219 21.8678ZM59.3219 28.6985C58.8043 28.7354 58.2875 28.6157 57.8389 28.3548C57.3904 28.0939 57.0307 27.704 56.8068 27.2358C56.5829 26.7677 56.5052 26.243 56.5837 25.73C56.6622 25.217 56.8933 24.7396 57.2469 24.3598C57.6006 23.98 58.0604 23.7155 58.5665 23.6007C59.0725 23.486 59.6015 23.5262 60.0843 23.7162C60.5672 23.9062 60.9817 24.2372 61.2739 24.6661C61.566 25.095 61.7223 25.6019 61.7223 26.1209C61.738 26.4487 61.688 26.7764 61.5751 27.0846C61.4623 27.3928 61.2889 27.6753 61.0653 27.9155C60.8416 28.1557 60.5721 28.3487 60.2727 28.4832C59.9733 28.6177 59.65 28.6909 59.3219 28.6985ZM48.2431 23.1728V24.9771H52.5608C52.4985 25.8234 52.1522 26.6238 51.578 27.2486C51.1454 27.6897 50.625 28.0351 50.0506 28.2626C49.4762 28.4902 48.8605 28.5947 48.2431 28.5696C46.9811 28.5526 45.7766 28.0392 44.8902 27.1407C44.0038 26.2423 43.5068 25.0309 43.5068 23.7688C43.5068 22.5066 44.0038 21.2953 44.8902 20.3968C45.7766 19.4983 46.9811 18.985 48.2431 18.9679C49.4554 18.952 50.6248 19.4152 51.4975 20.2567L52.7702 18.984C52.1748 18.3945 51.4676 17.9298 50.6903 17.6172C49.9129 17.3046 49.0809 17.1504 48.2431 17.1635C47.3676 17.1507 46.4983 17.3122 45.6858 17.6384C44.8732 17.9646 44.1336 18.4491 43.51 19.0638C42.8863 19.6784 42.3911 20.4108 42.0531 21.2186C41.7151 22.0263 41.541 22.8932 41.541 23.7688C41.541 24.6444 41.7151 25.5112 42.0531 26.319C42.3911 27.1267 42.8863 27.8591 43.51 28.4738C44.1336 29.0884 44.8732 29.5729 45.6858 29.8991C46.4983 30.2253 47.3676 30.3868 48.2431 30.374C49.0986 30.4095 49.9518 30.2627 50.7462 29.9433C51.5406 29.6238 52.258 29.1391 52.8507 28.5213C53.9031 27.3726 54.4641 25.8576 54.4135 24.3005C54.4176 23.9223 54.3852 23.5447 54.3167 23.1728H48.2431ZM93.5512 24.5743C93.2956 23.8039 92.8091 23.1309 92.1577 22.6467C91.5063 22.1625 90.7216 21.8905 89.9102 21.8678C89.3638 21.8712 88.8237 21.9853 88.3226 22.2034C87.8215 22.4214 87.3698 22.7388 86.9949 23.1363C86.6199 23.5339 86.3295 24.0033 86.1411 24.5163C85.9527 25.0293 85.8703 25.5751 85.8989 26.1209C85.8865 26.68 85.9871 27.236 86.1944 27.7554C86.4018 28.2749 86.7117 28.7472 87.1057 29.1442C87.4997 29.5412 87.9696 29.8547 88.4875 30.066C89.0053 30.2773 89.5605 30.3821 90.1197 30.374C90.8204 30.3779 91.511 30.2077 92.1296 29.8787C92.7482 29.5497 93.2755 29.0722 93.6639 28.4891L92.214 27.5225C91.9968 27.8833 91.6896 28.1813 91.3224 28.3875C90.9553 28.5937 90.5408 28.7009 90.1197 28.6985C89.6864 28.7151 89.2582 28.6011 88.8904 28.3713C88.5227 28.1415 88.2325 27.8065 88.0575 27.4097L93.7446 25.0577L93.5512 24.5743ZM87.7516 25.9921C87.7315 25.6825 87.7734 25.3721 87.8748 25.0789C87.9762 24.7857 88.1351 24.5157 88.3421 24.2847C88.5491 24.0537 88.8001 23.8663 89.0804 23.7334C89.3608 23.6006 89.6648 23.525 89.9746 23.5111C90.2973 23.4898 90.6191 23.5641 90.8999 23.7245C91.1807 23.8849 91.408 24.1245 91.5535 24.4133L87.7516 25.9921ZM83.1278 30.1162H84.9966V17.6147H83.1278V30.1162ZM80.0668 22.8183H80.0024C79.7183 22.5096 79.3715 22.2651 78.9853 22.1012C78.5992 21.9373 78.1824 21.8577 77.763 21.8678C76.6663 21.9144 75.63 22.3829 74.8705 23.1755C74.111 23.968 73.687 25.0232 73.687 26.1209C73.687 27.2186 74.111 28.2738 74.8705 29.0663C75.63 29.8589 76.6663 30.3274 77.763 30.374C78.1841 30.3852 78.6025 30.3046 78.9893 30.1376C79.376 29.9707 79.7217 29.7215 80.0024 29.4074H80.0668V30.0196C80.0668 31.6468 79.1969 32.5167 77.7952 32.5167C77.3281 32.5055 76.8748 32.3555 76.4933 32.0858C76.1117 31.8161 75.819 31.439 75.6526 31.0023L74.0254 31.679C74.3321 32.4257 74.8547 33.0638 75.5264 33.5115C76.198 33.9593 76.988 34.1963 77.7952 34.1922C79.9863 34.1922 81.839 32.9034 81.839 29.7618V22.1255H80.0668V22.8183ZM77.9242 28.6985C77.2783 28.6438 76.6764 28.3485 76.2379 27.8711C75.7993 27.3938 75.5559 26.7692 75.5559 26.1209C75.5559 25.4727 75.7993 24.848 76.2379 24.3707C76.6764 23.8933 77.2783 23.598 77.9242 23.5433C78.2456 23.559 78.5605 23.6392 78.8502 23.7792C79.1398 23.9192 79.3984 24.116 79.6103 24.3581C79.8223 24.6001 79.9834 24.8824 80.084 25.188C80.1845 25.4936 80.2225 25.8163 80.1957 26.137C80.2208 26.4556 80.1814 26.776 80.0799 27.0791C79.9783 27.3821 79.8166 27.6616 79.6046 27.9007C79.3925 28.1398 79.1344 28.3338 78.8457 28.4708C78.557 28.6079 78.2435 28.6854 77.9242 28.6985ZM102.305 17.6149H97.8339V30.1162H99.6996V25.3799H102.305C102.833 25.4088 103.361 25.3298 103.857 25.1478C104.353 24.9657 104.807 24.6844 105.191 24.3211C105.575 23.9577 105.881 23.5199 106.09 23.0344C106.298 22.5489 106.406 22.0259 106.406 21.4974C106.406 20.9688 106.298 20.4458 106.09 19.9603C105.881 19.4748 105.575 19.037 105.191 18.6737C104.807 18.3103 104.353 18.029 103.857 17.847C103.361 17.6649 102.833 17.586 102.305 17.6149ZM102.353 23.6401H99.6996V19.3548H102.353C102.638 19.3489 102.922 19.3999 103.187 19.505C103.452 19.61 103.694 19.7669 103.897 19.9664C104.101 20.166 104.263 20.4042 104.373 20.6671C104.484 20.9299 104.541 21.2123 104.541 21.4974C104.541 21.7826 104.484 22.0649 104.373 22.3278C104.263 22.5907 104.101 22.8289 103.897 23.0284C103.694 23.228 103.452 23.3849 103.187 23.4899C102.922 23.5949 102.638 23.646 102.353 23.6401ZM113.885 21.8448C113.204 21.805 112.526 21.9649 111.935 22.3049C111.343 22.6449 110.864 23.1502 110.556 23.7587L112.212 24.4503C112.376 24.1482 112.625 23.9007 112.928 23.7378C113.231 23.575 113.575 23.504 113.917 23.5335C114.39 23.4873 114.863 23.6306 115.231 23.9321C115.598 24.2336 115.832 24.6686 115.879 25.1418V25.2705C115.28 24.9521 114.612 24.7864 113.933 24.788C112.148 24.788 110.331 25.7691 110.331 27.6025C110.348 27.989 110.443 28.3679 110.609 28.717C110.776 29.0661 111.011 29.3781 111.3 29.6346C111.59 29.8911 111.928 30.0869 112.295 30.2102C112.661 30.3336 113.049 30.3821 113.435 30.3527C113.904 30.3804 114.373 30.2816 114.792 30.0666C115.21 29.8516 115.564 29.5284 115.815 29.1304H115.879V30.0954H117.681V25.3027C117.681 23.0832 116.024 21.8448 113.885 21.8448ZM113.66 28.6961C113.049 28.6961 112.196 28.3906 112.196 27.6346C112.196 26.6698 113.258 26.2998 114.174 26.2998C114.77 26.2839 115.359 26.4283 115.879 26.7179C115.811 27.2602 115.548 27.7593 115.14 28.1229C114.732 28.4866 114.206 28.6902 113.66 28.6961ZM124.242 22.1182L122.103 27.5381H122.039L119.82 22.1182H117.809L121.138 29.6933L119.241 33.9071H121.187L126.317 22.1182H124.242ZM107.436 30.1162H109.301V17.6149H107.436V30.1162Z" fill="white"/>
<path d="M10.9352 7.65426C10.6073 8.04634 10.4417 8.54896 10.4724 9.05916V31.1751C10.4416 31.6854 10.6072 32.188 10.9352 32.58L11.0092 32.6521L23.3981 20.2633V19.971L11.0092 7.58167L10.9352 7.65426Z" fill="url(#paint0_linear_290_438)"/>
<path d="M27.5278 24.3948L23.3984 20.2634V19.9711L27.5288 15.8407L27.6219 15.8938L32.5147 18.6739C33.9123 19.4679 33.9123 20.7671 32.5147 21.5616L27.6219 24.3417L27.5278 24.3948Z" fill="url(#paint1_linear_290_438)"/>
<path d="M27.622 24.3411L23.3985 20.1172L10.9355 32.58C11.2203 32.8312 11.584 32.9748 11.9635 32.986C12.343 32.9972 12.7145 32.8753 13.0136 32.6414L27.622 24.3411Z" fill="url(#paint2_linear_290_438)"/>
<path d="M27.622 15.8932L13.0136 7.59287C12.7145 7.35896 12.343 7.23705 11.9635 7.24827C11.584 7.25948 11.2203 7.40311 10.9355 7.65427L23.3985 20.1172L27.622 15.8932Z" fill="url(#paint3_linear_290_438)"/>
<path opacity="0.2" d="M27.5289 24.248L13.0136 32.4953C12.7261 32.7142 12.3751 32.8337 12.0136 32.8356C11.6522 32.8375 11.3 32.7219 11.01 32.506L10.9355 32.5805L11.0095 32.6526L11.01 32.6521C11.2999 32.8681 11.6522 32.9838 12.0136 32.9819C12.3751 32.98 12.7261 32.8604 13.0136 32.6414L27.622 24.341L27.5289 24.248Z" fill="#1D1D1D"/>
<path opacity="0.12" d="M10.9352 32.4344C10.6073 32.0423 10.4417 31.5397 10.4724 31.0295V31.1756C10.4417 31.6858 10.6073 32.1885 10.9352 32.5805L11.0097 32.506L10.9352 32.4344Z" fill="#1D1D1D"/>
<path opacity="0.12" d="M32.5152 21.415L27.5293 24.2482L27.6224 24.3412L32.5152 21.5611C32.803 21.4362 33.052 21.2364 33.2364 20.9825C33.4208 20.7287 33.5337 20.43 33.5635 20.1177C33.5016 20.4005 33.3746 20.665 33.1927 20.8902C33.0107 21.1154 32.7787 21.2951 32.5152 21.415Z" fill="#1D1D1D"/>
<path opacity="0.25" d="M13.0135 7.73943L32.5146 18.8194C32.7783 18.9392 33.0104 19.1189 33.1923 19.3442C33.3743 19.5695 33.5012 19.8342 33.5629 20.1172C33.5334 19.8047 33.4206 19.5059 33.2362 19.2519C33.0518 18.998 32.8026 18.7981 32.5146 18.6733L13.0135 7.59333C11.616 6.79923 10.4727 7.45883 10.4727 9.05962V9.20572C10.4727 7.60503 11.616 6.94543 13.0135 7.73943Z" fill="white"/>
<defs>
<linearGradient id="paint0_linear_290_438" x1="22.2995" y1="8.82597" x2="5.51714" y2="25.6083" gradientUnits="userSpaceOnUse">
<stop stop-color="#00A0FF"/>
<stop offset="0.00657" stop-color="#00A1FF"/>
<stop offset="0.2601" stop-color="#00BEFF"/>
<stop offset="0.5122" stop-color="#00D2FF"/>
<stop offset="0.7604" stop-color="#00DFFF"/>
<stop offset="1" stop-color="#00E3FF"/>
</linearGradient>
<linearGradient id="paint1_linear_290_438" x1="34.3344" y1="20.1177" x2="10.1376" y2="20.1177" gradientUnits="userSpaceOnUse">
<stop stop-color="#FFE000"/>
<stop offset="0.4087" stop-color="#FFBD00"/>
<stop offset="0.7754" stop-color="#FFA500"/>
<stop offset="1" stop-color="#FF9C00"/>
</linearGradient>
<linearGradient id="paint2_linear_290_438" x1="25.327" y1="22.4123" x2="2.56885" y2="45.1704" gradientUnits="userSpaceOnUse">
<stop stop-color="#FF3A44"/>
<stop offset="1" stop-color="#C31162"/>
</linearGradient>
<linearGradient id="paint3_linear_290_438" x1="7.79749" y1="0.292483" x2="17.96" y2="10.4549" gradientUnits="userSpaceOnUse">
<stop stop-color="#32A071"/>
<stop offset="0.0685" stop-color="#2DA771"/>
<stop offset="0.4762" stop-color="#15CF74"/>
<stop offset="0.8009" stop-color="#06E775"/>
<stop offset="1" stop-color="#00F076"/>
</linearGradient>
</defs>
</svg>
