<svg width="194" height="56" viewBox="0 0 194 56" fill="none" xmlns="http://www.w3.org/2000/svg">
<path d="M32.5889 44.4175H11.4593C11.8826 45.8039 12.655 47.0583 13.7025 48.0603C14.75 49.0624 16.0374 49.7784 17.4412 50.1398C18.845 50.5012 20.3181 50.4957 21.7193 50.124C23.1204 49.7523 24.4025 49.0268 25.4426 48.017L28.7931 51.3299C27.6109 52.5721 26.1851 53.5571 24.6049 54.2232C23.0247 54.8893 21.324 55.2222 19.6093 55.2011C17.8652 55.2387 16.1315 54.9238 14.5119 54.2755C12.8924 53.6272 11.4204 52.6587 10.184 51.428C7.72968 48.9654 6.35156 45.6304 6.35156 42.1536C6.35156 38.6768 7.72968 35.3418 10.184 32.8792C12.018 31.0489 14.3533 29.8032 16.8949 29.2995C19.4365 28.7957 22.0704 29.0566 24.4639 30.049C26.8573 31.0414 28.903 32.7209 30.3424 34.8754C31.7818 37.0298 32.5504 39.5625 32.5511 42.1536L32.5889 44.4175ZM27.397 39.6256C26.1695 35.7921 23.5333 33.8753 19.4885 33.8753C15.4437 33.8753 12.8076 35.7921 11.5801 39.6256H27.397ZM56.4049 51.3299C54.8947 52.8743 53.0258 54.0211 50.9648 54.6681C48.9038 55.315 46.7148 55.4419 44.5928 55.0376C42.4709 54.6332 40.482 53.7101 38.8033 52.3506C37.1247 50.991 35.8085 49.2372 34.9722 47.2456C34.1358 45.254 33.8052 43.0863 34.0098 40.9359C34.2144 38.7855 34.948 36.7191 36.145 34.921C37.342 33.1228 38.9653 31.6488 40.8702 30.6303C42.7751 29.6117 44.9025 29.0803 47.0626 29.0834C48.757 29.0562 50.439 29.377 52.0044 30.026C53.5698 30.675 54.9853 31.6384 56.1634 32.8566L52.7978 36.2071C51.8264 35.226 50.6267 34.5013 49.3064 34.0977C47.986 33.6942 46.5862 33.6245 45.2323 33.8949C43.8784 34.1654 42.6127 34.7674 41.5487 35.6472C40.4846 36.527 39.6555 37.657 39.1354 38.936C38.6154 40.2149 38.4208 41.6029 38.5691 42.9756C38.7173 44.3483 39.2038 45.6627 39.9848 46.8012C40.7659 47.9396 41.8172 48.8666 43.0445 49.4989C44.2719 50.1312 45.6369 50.4492 47.0173 50.4243C48.1321 50.4471 49.2403 50.2472 50.2769 49.8364C51.3135 49.4257 52.2577 48.8123 53.0543 48.0321L56.4049 51.3299ZM81.2699 44.4175H60.1856C60.6077 45.8038 61.3791 47.0584 62.4259 48.0606C63.4727 49.0629 64.7595 49.7791 66.1629 50.1406C67.5663 50.502 69.0391 50.4966 70.4398 50.1247C71.8405 49.7528 73.122 49.027 74.1613 48.017L77.5118 51.3299C76.3299 52.5725 74.9041 53.5577 73.3239 54.2238C71.7436 54.8899 70.0428 55.2226 68.328 55.2011C66.5839 55.2387 64.8502 54.9238 63.2307 54.2755C61.6111 53.6272 60.1391 52.6587 58.9027 51.428C56.4484 48.9654 55.0703 45.6304 55.0703 42.1536C55.0703 38.6768 56.4484 35.3418 58.9027 32.8792C60.7367 31.0489 63.072 29.8032 65.6136 29.2995C68.1552 28.7957 70.7891 29.0566 73.1826 30.049C75.576 31.0414 77.6217 32.7209 79.0611 34.8754C80.5005 37.0298 81.2691 39.5625 81.2699 42.1536V44.4175ZM76.078 39.6256C74.8555 35.7921 72.2194 33.8753 68.1695 33.8753C64.1197 33.8753 61.4911 35.7921 60.2837 39.6256H76.078ZM108.821 55.2011H104.052V42.1083C104.098 41.0097 103.916 39.9135 103.517 38.8887C103.118 37.864 102.512 36.9329 101.735 36.1543C100.099 34.6759 97.9717 33.8574 95.7662 33.8574C93.5608 33.8574 91.4337 34.6759 89.7971 36.1543C89.0155 36.9233 88.402 37.8462 87.9954 38.8646C87.5888 39.883 87.3981 40.9747 87.4352 42.0706V55.1634H82.6206V28.4495H87.4502V32.0416C89.9683 29.9868 93.1586 28.9382 96.4046 29.0985C99.6507 29.2588 102.722 30.6165 105.026 32.9094C106.263 34.1046 107.241 35.541 107.901 37.1299C108.56 38.7187 108.886 40.426 108.859 42.146L108.821 55.2011ZM133.158 28.4495V33.2414H115.205V38.1088C115.124 40.6701 115.641 43.215 116.715 45.5419C117.219 46.7053 118.026 47.7119 119.052 48.4566C120.078 49.2014 121.286 49.6568 122.548 49.7753C124.193 49.9338 125.423 49.5867 126.215 48.7339L129.234 52.1675C128.334 53.1903 127.229 54.0109 125.989 54.5754C124.749 55.1399 123.404 55.4355 122.042 55.4426C117.142 55.4426 113.709 52.6756 111.742 47.1417C110.777 44.2225 110.317 41.16 110.383 38.0861V12.874H115.175V28.4495H133.158ZM134.992 55.2011H130.2V28.4495H134.992V55.2011ZM162.407 55.2011H157.631V52.3411C155.284 54.2385 152.347 55.2556 149.33 55.2162C147.236 55.2141 145.174 54.7088 143.317 53.743C141.459 52.7773 139.861 51.3792 138.657 49.6668C137.453 47.9543 136.678 45.9775 136.398 43.903C136.118 41.8284 136.34 39.7169 137.046 37.7462C137.753 35.7756 138.922 34.0035 140.457 32.5794C141.991 31.1553 143.845 30.1208 145.863 29.5631C147.881 29.0054 150.003 28.9408 152.051 29.3747C154.099 29.8087 156.012 30.7285 157.631 32.0567V28.4646H162.422L162.407 55.2011ZM157.631 42.146C157.675 41.0442 157.492 39.9451 157.093 38.917C156.695 37.8889 156.089 36.9536 155.314 36.1694C153.676 34.6861 151.543 33.8677 149.334 33.8747C147.124 33.8817 144.997 34.7135 143.368 36.2071C141.856 37.8151 141.015 39.9391 141.015 42.146C141.015 44.353 141.856 46.477 143.368 48.085C144.528 49.2826 146.021 50.1033 147.654 50.4401C149.287 50.777 150.983 50.6144 152.522 49.9735C154.061 49.3326 155.372 48.2432 156.283 46.8471C157.194 45.451 157.664 43.8128 157.631 42.146ZM168.897 55.2011H164.105V13.9909H168.897V55.2011ZM182.314 55.3596C176.031 55.3596 172.064 53.1234 170.414 48.6509L175.606 47.8586C176.612 50.7362 178.848 52.1725 182.314 52.1675C184.493 52.1675 186.143 51.7424 187.265 50.8922C187.726 50.5718 188.1 50.1407 188.352 49.6384C188.604 49.1361 188.726 48.5786 188.706 48.017C188.721 47.6349 188.657 47.2539 188.52 46.8971C188.382 46.5403 188.173 46.2153 187.906 45.9418C187.031 45.2552 185.989 44.8126 184.888 44.659C179.027 43.3308 175.379 42.1863 173.946 41.2254C173.032 40.6515 172.285 39.8474 171.781 38.8937C171.276 37.94 171.031 36.8703 171.07 35.7921C171.062 34.775 171.288 33.7696 171.73 32.8536C172.172 31.9376 172.819 31.1357 173.621 30.5097C175.327 29.0709 178.043 28.3514 181.771 28.3514C187.577 28.3514 191.224 30.1625 192.713 33.7848L187.816 34.6752C186.865 32.5472 184.878 31.4831 181.854 31.4831C177.829 31.4831 175.817 32.6 175.817 34.8337C175.81 35.2808 175.915 35.7225 176.124 36.1182C176.332 36.5138 176.637 36.8506 177.009 37.0976C177.799 37.6862 180.212 38.4408 184.246 39.3615C186.509 39.7754 188.703 40.5018 190.766 41.5197C191.761 42.0671 192.584 42.8795 193.145 43.8666C193.706 44.8537 193.982 45.9769 193.943 47.1115C193.984 48.4515 193.637 49.7747 192.943 50.922C192.25 52.0693 191.24 52.9918 190.034 53.5786C187.661 54.8518 184.99 55.4667 182.299 55.3596H182.314ZM136.916 20.775C136.916 21.6272 136.663 22.4603 136.19 23.1689C135.716 23.8775 135.043 24.4298 134.256 24.7559C133.469 25.082 132.602 25.1674 131.767 25.0011C130.931 24.8348 130.163 24.4245 129.56 23.8218C128.958 23.2192 128.547 22.4515 128.381 21.6156C128.215 20.7798 128.3 19.9134 128.626 19.126C128.952 18.3387 129.505 17.6657 130.213 17.1922C130.922 16.7188 131.755 16.4661 132.607 16.4661C133.747 16.4701 134.839 16.9258 135.644 17.7334C136.449 18.5411 136.901 19.6348 136.901 20.775H136.916Z" fill="url(#paint0_linear_1_14212)"/>
<path d="M36.2844 0C36.2844 0 43.8307 26.0422 22.2936 29.0456C22.2936 29.0456 33.1301 19.409 33.5527 10.1799C33.5527 10.1799 30.0059 21.1899 21.0409 27.8156C21.0409 27.8156 17.6451 18.4356 23.5463 12.8664C29.1004 7.62929 34.0356 5.28994 36.2844 0ZM8.05382 25.597C11.2836 30.2002 18.0526 28.8041 18.0526 28.8041C14.4078 22.0125 7.20863 18.4733 7.20863 18.4733C13.4871 19.6731 19.0186 28.0646 19.0186 28.0646C19.1091 12.9721 0.5 15.5831 0.5 15.5831C3.90337 17.6281 5.01267 21.2654 8.05382 25.597Z" fill="url(#paint1_linear_1_14212)"/>
<defs>
<linearGradient id="paint0_linear_1_14212" x1="6.38822" y1="34.1545" x2="193.958" y2="34.1545" gradientUnits="userSpaceOnUse">
<stop stop-color="#CB3F04"/>
<stop offset="1" stop-color="#F69B2E"/>
</linearGradient>
<linearGradient id="paint1_linear_1_14212" x1="0.5" y1="14.5266" x2="37.5748" y2="14.5266" gradientUnits="userSpaceOnUse">
<stop stop-color="#033A64"/>
<stop offset="1" stop-color="#0097F7"/>
</linearGradient>
</defs>
</svg>
