<svg width="17" height="25" viewBox="0 0 17 25" fill="none" xmlns="http://www.w3.org/2000/svg">
<path d="M11.375 1.5625C11.375 0.698242 10.6768 0 9.8125 0C8.94824 0 8.25 0.698242 8.25 1.5625V3.25684C3.81641 3.99902 0.4375 7.85645 0.4375 12.5C0.4375 17.1436 3.81641 21.001 8.25 21.7432V23.4375C8.25 24.3018 8.94824 25 9.8125 25C10.6768 25 11.375 24.3018 11.375 23.4375V21.7432C12.8838 21.4893 14.2656 20.8789 15.4375 19.9951C16.126 19.4775 16.2676 18.4961 15.75 17.8076C15.2324 17.1191 14.251 16.9775 13.5625 17.4951C12.918 17.9785 12.1807 18.3398 11.375 18.5498V6.44531C12.1758 6.65039 12.918 7.01172 13.5625 7.5C14.251 8.01758 15.2324 7.88086 15.75 7.1875C16.2676 6.49414 16.1309 5.51758 15.4375 5C14.2656 4.12109 12.8789 3.50586 11.375 3.25195V1.5625ZM8.25 6.44531V18.5547C5.55469 17.8613 3.5625 15.415 3.5625 12.5C3.5625 9.58496 5.55469 7.13867 8.25 6.44531Z" fill="#699BF7"/>
</svg>
