<svg width="31" height="30" viewBox="0 0 31 30" fill="none" xmlns="http://www.w3.org/2000/svg">
<path d="M25.4818 0C26.9184 0 28.2961 0.570683 29.3119 1.5865C30.3278 2.60233 30.8984 3.98008 30.8984 5.41667V24.5833C30.8984 26.0199 30.3278 27.3977 29.3119 28.4135C28.2961 29.4293 26.9184 30 25.4818 30H6.3151C4.87851 30 3.50076 29.4293 2.48494 28.4135C1.46912 27.3977 0.898438 26.0199 0.898438 24.5833V5.41667C0.898437 3.98008 1.46912 2.60233 2.48494 1.5865C3.50076 0.570683 4.87851 0 6.3151 0H25.4818ZM15.4818 5C15.1502 5 14.8323 5.1317 14.5979 5.36612C14.3635 5.60054 14.2318 5.91848 14.2318 6.25V16.25C14.2318 16.94 14.7918 17.5 15.4818 17.5H22.9784C23.31 17.5 23.6279 17.3683 23.8623 17.1339C24.0967 16.8995 24.2284 16.5815 24.2284 16.25C24.2284 15.9185 24.0967 15.6005 23.8623 15.3661C23.6279 15.1317 23.31 15 22.9784 15H16.7318V6.25C16.7318 5.91848 16.6001 5.60054 16.3657 5.36612C16.1312 5.1317 15.8133 5 15.4818 5Z" fill="#699BF7"/>
</svg>
