<svg width="27" height="28" viewBox="0 0 27 28" fill="none" xmlns="http://www.w3.org/2000/svg">
<path fill-rule="evenodd" clip-rule="evenodd" d="M26.612 6.75521C26.612 8.3023 25.9974 9.78604 24.9034 10.88C23.8095 11.974 22.3257 12.5885 20.7786 12.5885C19.2315 12.5885 17.7478 11.974 16.6539 10.88C15.5599 9.78604 14.9453 8.3023 14.9453 6.75521C14.9453 5.20811 15.5599 3.72438 16.6539 2.63042C17.7478 1.53646 19.2315 0.921875 20.7786 0.921875C22.3257 0.921875 23.8095 1.53646 24.9034 2.63042C25.9974 3.72438 26.612 5.20811 26.612 6.75521ZM23.9009 7.47344C23.8575 7.66174 23.7411 7.8251 23.5773 7.92764C23.4135 8.03019 23.2157 8.06352 23.0274 8.02031L18.2032 6.91198C18.0147 6.86866 17.8511 6.75221 17.7484 6.58826C17.6457 6.4243 17.6123 6.22626 17.6556 6.03771C17.6989 5.84916 17.8154 5.68553 17.9793 5.58284C18.1433 5.48014 18.3413 5.44679 18.5299 5.4901L23.3541 6.59917C23.4474 6.62066 23.5355 6.66033 23.6135 6.7159C23.6915 6.77147 23.7578 6.84185 23.8086 6.92304C23.8594 7.00422 23.8937 7.09461 23.9095 7.18905C23.9253 7.28349 23.9224 7.38012 23.9009 7.47344Z" fill="white"/>
<path d="M8.21908 3.28804C7.74731 2.17095 6.16794 2.05866 5.53429 3.09627L0.573042 11.2141C0.000646085 12.1503 0.640125 13.3462 1.75648 13.4256L10.4088 14.0425C11.5244 14.1227 12.3367 13.0304 11.9109 12.0227L8.21908 3.28804Z" fill="white"/>
<path fill-rule="evenodd" clip-rule="evenodd" d="M21.7871 23.0594C22.8388 22.5691 23.6527 21.6811 24.0496 20.5907C24.4466 19.5003 24.3942 18.2968 23.9038 17.2451C23.661 16.7243 23.3181 16.2565 22.8945 15.8682C22.4709 15.48 21.975 15.1791 21.435 14.9825C20.3446 14.5855 19.1412 14.638 18.0895 15.1283L10.159 18.8266C9.63833 19.0694 9.17053 19.4124 8.78236 19.836C8.39419 20.2596 8.09325 20.7554 7.89672 21.2953C7.7002 21.8352 7.61193 22.4085 7.63697 22.9825C7.66201 23.5565 7.79985 24.1199 8.04264 24.6406C8.28543 25.1614 8.6284 25.6292 9.05198 26.0173C9.47556 26.4055 9.97144 26.7064 10.5113 26.903C11.0512 27.0995 11.6245 27.1878 12.1985 27.1627C12.7725 27.1377 13.3359 26.9998 13.8567 26.757L21.7871 23.0587V23.0594ZM17.8189 23.3001L21.1709 21.7375C21.8642 21.4057 22.3985 20.8138 22.6577 20.0903C22.9169 19.3669 22.8801 18.5703 22.5553 17.8738C22.2305 17.1773 21.6439 16.6371 20.9231 16.3707C20.2022 16.1043 19.4053 16.1331 18.7056 16.451L15.3536 18.0136L17.8182 23.3001H17.8189Z" fill="white"/>
</svg>
