<svg width="30" height="31" viewBox="0 0 30 31" fill="none" xmlns="http://www.w3.org/2000/svg">
<path fill-rule="evenodd" clip-rule="evenodd" d="M5.76986 5.48512C5.81671 4.89371 5.96877 4.3323 6.2063 3.81919H0V5.88577L3.28767 8.40965V30.4998H26.3014V8.43881L30 5.91493V3.81836H15.1636C15.4019 4.33146 15.5532 4.89288 15.6008 5.48429H27.6879L24.6575 7.55337V28.8331H4.93151V7.58252L2.19945 5.48512H5.76904H5.76986Z" fill="#4D44B5" fill-opacity="0.6"/>
<path fill-rule="evenodd" clip-rule="evenodd" d="M11.5057 17.1593H8.21805V20.4912H11.5057V17.1593ZM6.57422 15.4934V22.1571H13.1496V15.4934H6.57422ZM21.3687 17.1593H16.4372V28.8208H21.3687V17.1593ZM14.7934 15.4934V30.4867H23.0126V15.4934H14.7934Z" fill="#4D44B5" fill-opacity="0.6"/>
<path d="M0 29.6538C0 29.8747 0.0865948 30.0865 0.240734 30.2428C0.394874 30.399 0.603932 30.4867 0.821918 30.4867H28.7671C28.9851 30.4867 29.1942 30.399 29.3483 30.2428C29.5024 30.0865 29.589 29.8747 29.589 29.6538C29.589 29.4328 29.5024 29.221 29.3483 29.0648C29.1942 28.9086 28.9851 28.8208 28.7671 28.8208H0.821918C0.603932 28.8208 0.394874 28.9086 0.240734 29.0648C0.0865948 29.221 0 29.4328 0 29.6538Z" fill="#4D44B5" fill-opacity="0.6"/>
<path fill-rule="evenodd" clip-rule="evenodd" d="M7.39865 8.82974H3.28906V7.16382H7.39865V8.82974ZM25.8918 8.82974H13.974V7.16382H25.8918V8.82974Z" fill="#4D44B5" fill-opacity="0.6"/>
<path fill-rule="evenodd" clip-rule="evenodd" d="M15.6169 5.49778C15.6169 6.1541 15.4894 6.80399 15.2415 7.41035C14.9937 8.0167 14.6304 8.56766 14.1725 9.03174C13.7146 9.49583 13.1709 9.86396 12.5726 10.1151C11.9743 10.3663 11.333 10.4956 10.6854 10.4956C10.0378 10.4956 9.39652 10.3663 8.79821 10.1151C8.19989 9.86396 7.65624 9.49583 7.19831 9.03174C6.74038 8.56766 6.37713 8.0167 6.1293 7.41035C5.88146 6.80399 5.75391 6.1541 5.75391 5.49778C5.75391 4.17229 6.27347 2.90108 7.19831 1.96382C8.12315 1.02655 9.3775 0.5 10.6854 0.5C11.9933 0.5 13.2477 1.02655 14.1725 1.96382C15.0974 2.90108 15.6169 4.17229 15.6169 5.49778ZM11.5073 2.99889V4.66482H13.1512V6.33074H11.5073V7.99667H9.86349V6.33074H8.21966V4.66482H9.86349V2.99889H11.5073Z" fill="#4D44B5" fill-opacity="0.6"/>
</svg>
