<svg width="31" height="31" viewBox="0 0 31 31" fill="none" xmlns="http://www.w3.org/2000/svg">
<path d="M18.789 -1.63418C17.6754 -2.14756 16.447 -2.45312 15.1406 -2.45312C11.4704 -2.45312 8.33887 -0.188379 7.03936 3.01562H12.5895L18.789 -1.63418ZM23.2419 3.01562C22.7019 1.68467 21.8289 0.541016 20.7475 -0.369531L16.2337 3.01562H23.2419ZM15.1406 15.0469C19.9729 15.0469 23.8906 11.1292 23.8906 6.29688C23.8906 5.92227 23.8257 5.56543 23.7806 5.20312H6.50068C6.45488 5.56543 6.39062 5.92227 6.39062 6.29688C6.39062 11.1292 10.3083 15.0469 15.1406 15.0469ZM5.29688 18.0342V32.5469H14.0646L7.33467 17.4039C6.633 17.5332 5.94902 17.7448 5.29688 18.0342ZM-0.171875 29.2656C-0.171875 31.0778 1.29717 32.5469 3.10938 32.5469V19.4383C1.11875 21.1233 -0.171875 23.6096 -0.171875 26.4219V29.2656ZM17.3281 25.9844H13.5424L16.4593 32.5469H17.3281C19.1376 32.5469 20.6094 31.0751 20.6094 29.2656C20.6094 27.4562 19.1376 25.9844 17.3281 25.9844ZM21.2656 17.2344H20.1233C18.603 17.9303 16.9187 18.3281 15.1406 18.3281C13.3626 18.3281 11.6782 17.9303 10.1579 17.2344H9.6541L12.571 23.7969H17.3281C20.3435 23.7969 22.7969 26.2503 22.7969 29.2656C22.7969 30.5016 22.3689 31.6302 21.6751 32.5469H27.1719C28.9841 32.5469 30.4531 31.0778 30.4531 29.2656V26.4219C30.4531 21.3476 26.3399 17.2344 21.2656 17.2344Z" fill="white"/>
</svg>
