<svg width="27" height="28" viewBox="0 0 27 28" fill="none" xmlns="http://www.w3.org/2000/svg">
<path fill-rule="evenodd" clip-rule="evenodd" d="M26.5964 6.70833C26.5964 8.25543 25.9818 9.73916 24.8878 10.8331C23.7938 11.9271 22.3101 12.5417 20.763 12.5417C19.2159 12.5417 17.7322 11.9271 16.6382 10.8331C15.5443 9.73916 14.9297 8.25543 14.9297 6.70833C14.9297 5.16124 15.5443 3.67751 16.6382 2.58354C17.7322 1.48958 19.2159 0.875 20.763 0.875C22.3101 0.875 23.7938 1.48958 24.8878 2.58354C25.9818 3.67751 26.5964 5.16124 26.5964 6.70833ZM23.8853 7.42656C23.8419 7.61486 23.7255 7.77823 23.5617 7.88077C23.3979 7.98331 23.2001 8.01664 23.0118 7.97344L18.1876 6.8651C17.9991 6.82179 17.8354 6.70534 17.7327 6.54138C17.63 6.37742 17.5967 6.17939 17.64 5.99083C17.6833 5.80228 17.7998 5.63866 17.9637 5.53596C18.1277 5.43327 18.3257 5.39991 18.5143 5.44323L23.3384 6.55229C23.4318 6.57379 23.5199 6.61345 23.5979 6.66902C23.6759 6.72459 23.7422 6.79498 23.7929 6.87616C23.8437 6.95735 23.878 7.04774 23.8939 7.14218C23.9097 7.23661 23.9068 7.33325 23.8853 7.42656Z" fill="#699BF7"/>
<path d="M8.20346 3.24116C7.73169 2.12408 6.15231 2.01179 5.51867 3.04939L0.557417 11.1672C-0.0149789 12.1035 0.6245 13.2993 1.74085 13.3788L10.3931 13.9956C11.5088 14.0758 12.3211 12.9836 11.8952 11.9758L8.20346 3.24116Z" fill="#699BF7"/>
<path fill-rule="evenodd" clip-rule="evenodd" d="M21.7714 23.0126C22.8232 22.5222 23.6371 21.6342 24.034 20.5438C24.431 19.4534 24.3785 18.2499 23.8882 17.1982C23.6454 16.6774 23.3024 16.2096 22.8788 15.8214C22.4552 15.4332 21.9593 15.1322 21.4194 14.9356C20.329 14.5386 19.1256 14.5911 18.0738 15.0814L10.1434 18.7798C9.6227 19.0225 9.1549 19.3655 8.76673 19.7891C8.37856 20.2127 8.07763 20.7086 7.8811 21.2484C7.68457 21.7883 7.59631 22.3616 7.62134 22.9356C7.64638 23.5096 7.78423 24.0731 8.02702 24.5938C8.2698 25.1145 8.61278 25.5823 9.03636 25.9705C9.45993 26.3586 9.95582 26.6596 10.4957 26.8561C11.0356 27.0526 11.6089 27.1409 12.1829 27.1158C12.7569 27.0908 13.3203 26.953 13.841 26.7102L21.7714 23.0118V23.0126ZM17.8033 23.2532L21.1553 21.6906C21.8485 21.3589 22.3828 20.7669 22.6421 20.0435C22.9013 19.32 22.8645 18.5234 22.5397 17.8269C22.2149 17.1304 21.6283 16.5902 20.9074 16.3238C20.1866 16.0574 19.3897 16.0863 18.69 16.4041L15.338 17.9667L17.8026 23.2532H17.8033Z" fill="#699BF7"/>
</svg>
