<svg width="24" height="24" viewBox="0 0 24 24" fill="none" xmlns="http://www.w3.org/2000/svg">
<path d="M0 3.75C0 2.75544 0.395088 1.80161 1.09835 1.09835C1.80161 0.395088 2.75544 0 3.75 0H20.25C21.2446 0 22.1984 0.395088 22.9016 1.09835C23.6049 1.80161 24 2.75544 24 3.75C24 4.74456 23.6049 5.69839 22.9016 6.40165C22.1984 7.10491 21.2446 7.5 20.25 7.5H3.75C2.75544 7.5 1.80161 7.10491 1.09835 6.40165C0.395088 5.69839 0 4.74456 0 3.75ZM1.125 10.6245C0.826631 10.6245 0.540483 10.743 0.329505 10.954C0.118526 11.165 0 11.4511 0 11.7495C0 12.0479 0.118526 12.334 0.329505 12.545C0.540483 12.756 0.826631 12.8745 1.125 12.8745H22.875C23.1734 12.8745 23.4595 12.756 23.6705 12.545C23.8815 12.334 24 12.0479 24 11.7495C24 11.4511 23.8815 11.165 23.6705 10.954C23.4595 10.743 23.1734 10.6245 22.875 10.6245H1.125ZM1.125 15.9945C0.826631 15.9945 0.540483 16.113 0.329505 16.324C0.118526 16.535 0 16.8211 0 17.1195C0 17.4179 0.118526 17.704 0.329505 17.915C0.540483 18.126 0.826631 18.2445 1.125 18.2445H22.875C23.1734 18.2445 23.4595 18.126 23.6705 17.915C23.8815 17.704 24 17.4179 24 17.1195C24 16.8211 23.8815 16.535 23.6705 16.324C23.4595 16.113 23.1734 15.9945 22.875 15.9945H1.125ZM1.125 21.375C0.826631 21.375 0.540483 21.4935 0.329505 21.7045C0.118526 21.9155 0 22.2016 0 22.5C0 22.7984 0.118526 23.0845 0.329505 23.2955C0.540483 23.5065 0.826631 23.625 1.125 23.625H22.875C23.1734 23.625 23.4595 23.5065 23.6705 23.2955C23.8815 23.0845 24 22.7984 24 22.5C24 22.2016 23.8815 21.9155 23.6705 21.7045C23.4595 21.4935 23.1734 21.375 22.875 21.375H1.125Z" fill="#699BF7"/>
</svg>
