<svg width="31" height="31" viewBox="0 0 31 31" fill="none" xmlns="http://www.w3.org/2000/svg">
<path fill-rule="evenodd" clip-rule="evenodd" d="M14.0102 5.74691L9.68837 10.065L8.25952 8.65376L10.8677 6.03293H4.81969C4.42257 6.03293 4.02934 6.11115 3.66245 6.26312C3.29555 6.41509 2.96219 6.63784 2.68138 6.91865C2.40057 7.19946 2.17783 7.53282 2.02585 7.89971C1.87388 8.26661 1.79566 8.65984 1.79566 9.05696C1.79566 9.45408 1.87388 9.84731 2.02585 10.2142C2.17783 10.5811 2.40057 10.9145 2.68138 11.1953C2.96219 11.4761 3.29555 11.6988 3.66245 11.8508C4.02934 12.0028 4.42257 12.081 4.81969 12.081H5.9411V14.097H4.83229C3.53842 14.0356 2.31788 13.4784 1.42392 12.541C0.52997 11.6036 0.03125 10.358 0.03125 9.06263C0.03125 7.7673 0.52997 6.52171 1.42392 5.58431C2.31788 4.64691 3.53842 4.08968 4.83229 4.02825H10.8803L8.25826 1.42381L9.68837 0L14.0102 4.32436V5.74817V5.74691ZM20.9592 30.2403H8.86307L7.85506 29.2323V13.1192L8.86307 12.1112H20.9592L21.9672 13.1192V29.2323L20.9592 30.2403ZM9.87107 28.2242H19.9512V14.1272H9.87107V28.2242ZM16.9271 2.01854H29.0232L30.0312 3.02655V19.137L29.0232 20.1451H23.9832V18.129H28.0152V4.03204H17.9351V10.0637H15.9191V3.02529L16.9271 2.01728V2.01854ZM17.9351 16.113H11.8871V18.129H17.9351V16.113ZM11.8871 20.1451H17.9351V22.1611H11.8871V20.1451ZM17.9351 24.1771H11.8871V26.1931H17.9351V24.1771ZM19.9512 6.03293H25.9992V8.04895H19.9512V6.03293ZM25.9992 14.097H23.9832V16.113H25.9992V14.097ZM21.7933 10.0952V10.065H25.9992V12.081H23.7791L21.7933 10.0952Z" fill="#699BF7"/>
</svg>
