<svg width="20" height="20" viewBox="0 0 20 20" fill="none" xmlns="http://www.w3.org/2000/svg">
<path d="M19.6745 12.0833C19.6745 12.1267 19.6701 12.1571 19.6615 12.1745C19.1059 14.5009 17.9427 16.3867 16.1719 17.832C14.401 19.2773 12.3264 20 9.94792 20C8.68056 20 7.45443 19.7613 6.26953 19.2839C5.08464 18.8064 4.02778 18.125 3.09896 17.2396L1.41927 18.9193C1.25434 19.0842 1.05903 19.1667 0.833333 19.1667C0.607639 19.1667 0.412326 19.0842 0.247396 18.9193C0.0824653 18.7543 0 18.559 0 18.3333V12.5C0 12.2743 0.0824653 12.079 0.247396 11.9141C0.412326 11.7491 0.607639 11.6667 0.833333 11.6667H6.66667C6.89236 11.6667 7.08767 11.7491 7.2526 11.9141C7.41753 12.079 7.5 12.2743 7.5 12.5C7.5 12.7257 7.41753 12.921 7.2526 13.0859L5.46875 14.8698C6.08507 15.4427 6.78385 15.8854 7.5651 16.1979C8.34635 16.5104 9.15799 16.6667 10 16.6667C11.1632 16.6667 12.2483 16.3845 13.2552 15.8203C14.2622 15.2561 15.0694 14.4792 15.6771 13.4896C15.7726 13.342 16.0026 12.8342 16.3672 11.9661C16.4366 11.7665 16.5668 11.6667 16.7578 11.6667H19.2578C19.3707 11.6667 19.4683 11.7079 19.5508 11.7904C19.6332 11.8728 19.6745 11.9705 19.6745 12.0833ZM20 1.66667V7.5C20 7.72569 19.9175 7.92101 19.7526 8.08594C19.5877 8.25087 19.3924 8.33333 19.1667 8.33333H13.3333C13.1076 8.33333 12.9123 8.25087 12.7474 8.08594C12.5825 7.92101 12.5 7.72569 12.5 7.5C12.5 7.27431 12.5825 7.07899 12.7474 6.91406L14.5443 5.11719C13.2595 3.92795 11.7448 3.33333 10 3.33333C8.83681 3.33333 7.75174 3.61545 6.74479 4.17969C5.73785 4.74392 4.93056 5.52083 4.32292 6.51042C4.22743 6.65799 3.9974 7.1658 3.63281 8.03385C3.56337 8.23351 3.43316 8.33333 3.24219 8.33333H0.651042C0.538194 8.33333 0.440538 8.2921 0.358073 8.20963C0.275608 8.12717 0.234375 8.02951 0.234375 7.91667V7.82552C0.798611 5.49913 1.97049 3.61328 3.75 2.16797C5.52951 0.722656 7.61285 0 10 0C11.2674 0 12.5 0.240885 13.6979 0.722656C14.8958 1.20443 15.9592 1.88368 16.888 2.76042L18.5807 1.08073C18.7457 0.915799 18.941 0.833333 19.1667 0.833333C19.3924 0.833333 19.5877 0.915799 19.7526 1.08073C19.9175 1.24566 20 1.44097 20 1.66667Z" fill="#B5B5C3"/>
</svg>
