<svg width="31" height="30" viewBox="0 0 31 30" fill="none" xmlns="http://www.w3.org/2000/svg">
<path d="M11.0569 0H18.1156V7.5H11.0569V0ZM0.46875 22.5H7.5275V30H0.46875V22.5ZM0.46875 11.25H7.5275V18.75H0.46875V11.25ZM0.46875 0H7.5275V7.5H0.46875V0ZM18.1156 15.7875V11.25H11.0569V18.75H15.3274L18.1156 15.7875ZM30.2567 13.6687L28.192 11.475C28.1248 11.4036 28.045 11.3469 27.9572 11.3082C27.8694 11.2696 27.7753 11.2497 27.6802 11.2497C27.5852 11.2497 27.4911 11.2696 27.4033 11.3082C27.3155 11.3469 27.2357 11.4036 27.1685 11.475L25.6156 13.125L28.7038 16.4062L30.2567 14.7562C30.3239 14.6849 30.3772 14.6001 30.4136 14.5068C30.45 14.4135 30.4688 14.3135 30.4688 14.2125C30.4688 14.1115 30.45 14.0115 30.4136 13.9182C30.3772 13.8249 30.3239 13.7401 30.2567 13.6687ZM12.8216 26.7188V30H15.9098L27.6802 17.4937L24.592 14.2125L12.8216 26.7188ZM21.645 0H28.7038V7.5H21.645V0Z" fill="#699BF7"/>
</svg>
