<svg width="27" height="30" viewBox="0 0 27 30" fill="none" xmlns="http://www.w3.org/2000/svg">
<path d="M25.4792 0.463623C25.8659 0.463623 26.2369 0.617268 26.5104 0.890759C26.7839 1.16425 26.9375 1.53518 26.9375 1.92196V28.172C26.9375 28.5587 26.7839 28.9297 26.5104 29.2032C26.2369 29.4766 25.8659 29.6303 25.4792 29.6303H5.0625C4.67573 29.6303 4.30479 29.4766 4.0313 29.2032C3.75781 28.9297 3.60417 28.5587 3.60417 28.172V25.2553H0.6875V22.3386H3.60417V19.422H0.6875V16.5053H3.60417V13.5886H0.6875V10.672H3.60417V7.75529H0.6875V4.83862H3.60417V1.92196C3.60417 1.53518 3.75781 1.16425 4.0313 0.890759C4.30479 0.617268 4.67573 0.463623 5.0625 0.463623H25.4792ZM16.7292 9.21362H13.8125V13.5886H9.4375V16.5053H13.811L13.8125 20.8803H16.7292L16.7277 16.5053H21.1042V13.5886H16.7292V9.21362Z" fill="white"/>
</svg>
