<svg width="30" height="30" viewBox="0 0 30 30" fill="none" xmlns="http://www.w3.org/2000/svg">
<path d="M24.5833 0C26.0199 0 27.3977 0.570683 28.4135 1.5865C29.4293 2.60233 30 3.98008 30 5.41667V24.5833C30 26.0199 29.4293 27.3977 28.4135 28.4135C27.3977 29.4293 26.0199 30 24.5833 30H5.41667C3.98008 30 2.60233 29.4293 1.5865 28.4135C0.570683 27.3977 0 26.0199 0 24.5833V5.41667C0 3.98008 0.570683 2.60233 1.5865 1.5865C2.60233 0.570683 3.98008 0 5.41667 0H24.5833ZM14.5833 5C14.2518 5 13.9339 5.1317 13.6995 5.36612C13.465 5.60054 13.3333 5.91848 13.3333 6.25V16.25C13.3333 16.94 13.8933 17.5 14.5833 17.5H22.08C22.4115 17.5 22.7295 17.3683 22.9639 17.1339C23.1983 16.8995 23.33 16.5815 23.33 16.25C23.33 15.9185 23.1983 15.6005 22.9639 15.3661C22.7295 15.1317 22.4115 15 22.08 15H15.8333V6.25C15.8333 5.91848 15.7016 5.60054 15.4672 5.36612C15.2328 5.1317 14.9149 5 14.5833 5Z" fill="#699BF7"/>
</svg>
