<svg width="229" height="97" viewBox="0 0 229 97" fill="none" xmlns="http://www.w3.org/2000/svg">
<path d="M118.373 88.4707V71.6707H126.245C128.261 71.6707 129.797 72.0707 130.853 72.8707C131.909 73.6547 132.437 74.7107 132.437 76.0387C132.437 76.9347 132.229 77.7027 131.813 78.3427C131.397 78.9667 130.837 79.4547 130.133 79.8067C129.445 80.1427 128.693 80.3107 127.877 80.3107L128.309 79.4467C129.253 79.4467 130.101 79.6227 130.853 79.9747C131.605 80.3107 132.197 80.8067 132.629 81.4627C133.077 82.1187 133.301 82.9347 133.301 83.9107C133.301 85.3507 132.749 86.4707 131.645 87.2707C130.541 88.0707 128.901 88.4707 126.725 88.4707H118.373ZM121.493 86.0227H126.533C127.701 86.0227 128.597 85.8307 129.221 85.4467C129.845 85.0627 130.157 84.4467 130.157 83.5987C130.157 82.7667 129.845 82.1587 129.221 81.7747C128.597 81.3747 127.701 81.1747 126.533 81.1747H121.253V78.7507H125.909C126.997 78.7507 127.829 78.5587 128.405 78.1747C128.997 77.7907 129.293 77.2147 129.293 76.4467C129.293 75.6627 128.997 75.0787 128.405 74.6947C127.829 74.3107 126.997 74.1187 125.909 74.1187H121.493V86.0227ZM141.287 88.6387C140.199 88.6387 139.239 88.4387 138.407 88.0387C137.575 87.6227 136.927 86.9987 136.463 86.1667C135.999 85.3187 135.767 84.2547 135.767 82.9747V75.6547H138.767V82.5667C138.767 83.7187 139.023 84.5827 139.535 85.1587C140.063 85.7187 140.807 85.9987 141.767 85.9987C142.471 85.9987 143.079 85.8547 143.591 85.5667C144.119 85.2787 144.527 84.8467 144.815 84.2707C145.119 83.6947 145.271 82.9827 145.271 82.1347V75.6547H148.271V88.4707H145.415V85.0147L145.919 86.0707C145.487 86.9027 144.855 87.5427 144.023 87.9907C143.191 88.4227 142.279 88.6387 141.287 88.6387ZM155.679 88.6387C154.607 88.6387 153.575 88.5027 152.583 88.2307C151.607 87.9427 150.831 87.5987 150.255 87.1987L151.407 84.9187C151.983 85.2867 152.671 85.5907 153.471 85.8307C154.271 86.0707 155.071 86.1907 155.871 86.1907C156.815 86.1907 157.495 86.0627 157.911 85.8067C158.343 85.5507 158.559 85.2067 158.559 84.7747C158.559 84.4227 158.415 84.1587 158.127 83.9827C157.839 83.7907 157.463 83.6467 156.999 83.5507C156.535 83.4547 156.015 83.3667 155.439 83.2867C154.879 83.2067 154.311 83.1027 153.735 82.9747C153.175 82.8307 152.663 82.6307 152.199 82.3747C151.735 82.1027 151.359 81.7427 151.071 81.2947C150.783 80.8467 150.639 80.2547 150.639 79.5187C150.639 78.7027 150.871 77.9987 151.335 77.4067C151.799 76.7987 152.447 76.3347 153.279 76.0147C154.127 75.6787 155.127 75.5107 156.279 75.5107C157.143 75.5107 158.015 75.6067 158.895 75.7987C159.775 75.9907 160.503 76.2627 161.079 76.6147L159.927 78.8947C159.319 78.5267 158.703 78.2787 158.079 78.1507C157.471 78.0067 156.863 77.9347 156.255 77.9347C155.343 77.9347 154.663 78.0707 154.215 78.3427C153.783 78.6147 153.567 78.9587 153.567 79.3747C153.567 79.7587 153.711 80.0467 153.999 80.2387C154.287 80.4307 154.663 80.5827 155.127 80.6947C155.591 80.8067 156.103 80.9027 156.663 80.9827C157.239 81.0467 157.807 81.1507 158.367 81.2947C158.927 81.4387 159.439 81.6387 159.903 81.8947C160.383 82.1347 160.767 82.4787 161.055 82.9267C161.343 83.3747 161.487 83.9587 161.487 84.6787C161.487 85.4787 161.247 86.1747 160.767 86.7667C160.303 87.3587 159.639 87.8227 158.775 88.1587C157.911 88.4787 156.879 88.6387 155.679 88.6387ZM163.591 88.4707V75.6547H166.591V88.4707H163.591ZM165.103 73.5427C164.543 73.5427 164.079 73.3667 163.711 73.0147C163.359 72.6627 163.183 72.2387 163.183 71.7427C163.183 71.2307 163.359 70.8067 163.711 70.4707C164.079 70.1187 164.543 69.9427 165.103 69.9427C165.663 69.9427 166.119 70.1107 166.471 70.4467C166.839 70.7667 167.023 71.1747 167.023 71.6707C167.023 72.1987 166.847 72.6467 166.495 73.0147C166.143 73.3667 165.679 73.5427 165.103 73.5427ZM177.32 75.5107C178.344 75.5107 179.256 75.7107 180.056 76.1107C180.872 76.5107 181.512 77.1267 181.976 77.9587C182.44 78.7747 182.672 79.8307 182.672 81.1267V88.4707H179.672V81.5107C179.672 80.3747 179.4 79.5267 178.856 78.9667C178.328 78.4067 177.584 78.1267 176.624 78.1267C175.92 78.1267 175.296 78.2707 174.752 78.5587C174.208 78.8467 173.784 79.2787 173.48 79.8547C173.192 80.4147 173.048 81.1267 173.048 81.9907V88.4707H170.048V75.6547H172.904V79.1107L172.4 78.0547C172.848 77.2387 173.496 76.6147 174.344 76.1827C175.208 75.7347 176.2 75.5107 177.32 75.5107ZM192.045 88.6387C190.621 88.6387 189.373 88.3587 188.301 87.7987C187.245 87.2227 186.421 86.4387 185.829 85.4467C185.253 84.4547 184.965 83.3267 184.965 82.0627C184.965 80.7827 185.245 79.6547 185.805 78.6787C186.381 77.6867 187.165 76.9107 188.157 76.3507C189.165 75.7907 190.309 75.5107 191.589 75.5107C192.837 75.5107 193.949 75.7827 194.925 76.3267C195.901 76.8707 196.669 77.6387 197.229 78.6307C197.789 79.6227 198.069 80.7907 198.069 82.1347C198.069 82.2627 198.061 82.4067 198.045 82.5667C198.045 82.7267 198.037 82.8787 198.021 83.0227H187.341V81.0307H196.437L195.261 81.6547C195.277 80.9187 195.125 80.2707 194.805 79.7107C194.485 79.1507 194.045 78.7107 193.485 78.3907C192.941 78.0707 192.309 77.9107 191.589 77.9107C190.853 77.9107 190.205 78.0707 189.645 78.3907C189.101 78.7107 188.669 79.1587 188.349 79.7347C188.045 80.2947 187.893 80.9587 187.893 81.7267V82.2067C187.893 82.9747 188.069 83.6547 188.421 84.2467C188.773 84.8387 189.269 85.2947 189.909 85.6147C190.549 85.9347 191.285 86.0947 192.117 86.0947C192.837 86.0947 193.485 85.9827 194.061 85.7587C194.637 85.5347 195.149 85.1827 195.597 84.7027L197.205 86.5507C196.629 87.2227 195.901 87.7427 195.021 88.1107C194.157 88.4627 193.165 88.6387 192.045 88.6387ZM204.431 88.6387C203.359 88.6387 202.327 88.5027 201.335 88.2307C200.359 87.9427 199.583 87.5987 199.007 87.1987L200.159 84.9187C200.735 85.2867 201.423 85.5907 202.223 85.8307C203.023 86.0707 203.823 86.1907 204.623 86.1907C205.567 86.1907 206.247 86.0627 206.663 85.8067C207.095 85.5507 207.311 85.2067 207.311 84.7747C207.311 84.4227 207.167 84.1587 206.879 83.9827C206.591 83.7907 206.215 83.6467 205.751 83.5507C205.287 83.4547 204.767 83.3667 204.191 83.2867C203.631 83.2067 203.063 83.1027 202.487 82.9747C201.927 82.8307 201.415 82.6307 200.951 82.3747C200.487 82.1027 200.111 81.7427 199.823 81.2947C199.535 80.8467 199.391 80.2547 199.391 79.5187C199.391 78.7027 199.623 77.9987 200.087 77.4067C200.551 76.7987 201.199 76.3347 202.031 76.0147C202.879 75.6787 203.879 75.5107 205.031 75.5107C205.895 75.5107 206.767 75.6067 207.647 75.7987C208.527 75.9907 209.255 76.2627 209.831 76.6147L208.679 78.8947C208.071 78.5267 207.455 78.2787 206.831 78.1507C206.223 78.0067 205.615 77.9347 205.007 77.9347C204.095 77.9347 203.415 78.0707 202.967 78.3427C202.535 78.6147 202.319 78.9587 202.319 79.3747C202.319 79.7587 202.463 80.0467 202.751 80.2387C203.039 80.4307 203.415 80.5827 203.879 80.6947C204.343 80.8067 204.855 80.9027 205.415 80.9827C205.991 81.0467 206.559 81.1507 207.119 81.2947C207.679 81.4387 208.191 81.6387 208.655 81.8947C209.135 82.1347 209.519 82.4787 209.807 82.9267C210.095 83.3747 210.239 83.9587 210.239 84.6787C210.239 85.4787 209.999 86.1747 209.519 86.7667C209.055 87.3587 208.391 87.8227 207.527 88.1587C206.663 88.4787 205.631 88.6387 204.431 88.6387ZM216.302 88.6387C215.23 88.6387 214.198 88.5027 213.206 88.2307C212.23 87.9427 211.454 87.5987 210.878 87.1987L212.03 84.9187C212.606 85.2867 213.294 85.5907 214.094 85.8307C214.894 86.0707 215.694 86.1907 216.494 86.1907C217.438 86.1907 218.118 86.0627 218.534 85.8067C218.966 85.5507 219.182 85.2067 219.182 84.7747C219.182 84.4227 219.038 84.1587 218.75 83.9827C218.462 83.7907 218.086 83.6467 217.622 83.5507C217.158 83.4547 216.638 83.3667 216.062 83.2867C215.502 83.2067 214.934 83.1027 214.358 82.9747C213.798 82.8307 213.286 82.6307 212.822 82.3747C212.358 82.1027 211.982 81.7427 211.694 81.2947C211.406 80.8467 211.262 80.2547 211.262 79.5187C211.262 78.7027 211.494 77.9987 211.958 77.4067C212.422 76.7987 213.07 76.3347 213.902 76.0147C214.75 75.6787 215.75 75.5107 216.902 75.5107C217.766 75.5107 218.638 75.6067 219.518 75.7987C220.398 75.9907 221.126 76.2627 221.702 76.6147L220.55 78.8947C219.942 78.5267 219.326 78.2787 218.702 78.1507C218.094 78.0067 217.486 77.9347 216.878 77.9347C215.966 77.9347 215.286 78.0707 214.838 78.3427C214.406 78.6147 214.19 78.9587 214.19 79.3747C214.19 79.7587 214.334 80.0467 214.622 80.2387C214.91 80.4307 215.286 80.5827 215.75 80.6947C216.214 80.8067 216.726 80.9027 217.286 80.9827C217.862 81.0467 218.43 81.1507 218.99 81.2947C219.55 81.4387 220.062 81.6387 220.526 81.8947C221.006 82.1347 221.39 82.4787 221.678 82.9267C221.966 83.3747 222.11 83.9587 222.11 84.6787C222.11 85.4787 221.87 86.1747 221.39 86.7667C220.926 87.3587 220.262 87.8227 219.398 88.1587C218.534 88.4787 217.502 88.6387 216.302 88.6387ZM225.174 88.6387C224.63 88.6387 224.166 88.4547 223.782 88.0867C223.398 87.7027 223.206 87.2227 223.206 86.6467C223.206 86.0387 223.398 85.5587 223.782 85.2067C224.166 84.8387 224.63 84.6547 225.174 84.6547C225.718 84.6547 226.182 84.8387 226.566 85.2067C226.95 85.5587 227.142 86.0387 227.142 86.6467C227.142 87.2227 226.95 87.7027 226.566 88.0867C226.182 88.4547 225.718 88.6387 225.174 88.6387Z" fill="#1D1D1D"/>
<path d="M32.1416 44.4458H11.012C11.4353 45.8322 12.2077 47.0866 13.2552 48.0886C14.3027 49.0907 15.5901 49.8067 16.9939 50.1681C18.3978 50.5295 19.8709 50.5241 21.272 50.1523C22.6731 49.7806 23.9552 49.0551 24.9953 48.0454L28.3458 51.3582C27.1636 52.6004 25.7378 53.5854 24.1576 54.2515C22.5774 54.9176 20.8768 55.2505 19.162 55.2294C17.4179 55.267 15.6842 54.9522 14.0647 54.3038C12.4451 53.6555 10.9731 52.687 9.73673 51.4563C7.28242 48.9937 5.9043 45.6587 5.9043 42.1819C5.9043 38.7051 7.28242 35.3701 9.73673 32.9075C11.5707 31.0772 13.906 29.8315 16.4476 29.3278C18.9893 28.8241 21.6231 29.0849 24.0166 30.0773C26.41 31.0697 28.4557 32.7493 29.8951 34.9037C31.3345 37.0581 32.1031 39.5909 32.1039 42.1819L32.1416 44.4458ZM26.9498 39.6539C25.7222 35.8204 23.0861 33.9036 19.0413 33.9036C14.9965 33.9036 12.3603 35.8204 11.1328 39.6539H26.9498ZM55.9576 51.3582C54.4474 52.9026 52.5785 54.0494 50.5175 54.6964C48.4565 55.3433 46.2675 55.4702 44.1456 55.0659C42.0236 54.6615 40.0347 53.7384 38.3561 52.3789C36.6774 51.0193 35.3613 49.2656 34.5249 47.2739C33.6885 45.2823 33.3579 43.1147 33.5626 40.9642C33.7672 38.8138 34.5007 36.7474 35.6977 34.9493C36.8947 33.1512 38.518 31.6771 40.423 30.6586C42.3279 29.64 44.4552 29.1086 46.6153 29.1117C48.3097 29.0845 49.9917 29.4053 51.5571 30.0543C53.1225 30.7033 54.5381 31.6667 55.7161 32.8849L52.3505 36.2354C51.3791 35.2543 50.1795 34.5296 48.8591 34.1261C47.5387 33.7225 46.1389 33.6528 44.785 33.9233C43.4311 34.1937 42.1654 34.7958 41.1014 35.6755C40.0374 36.5553 39.2082 37.6853 38.6882 38.9643C38.1682 40.2433 37.9736 41.6313 38.1218 43.0039C38.27 44.3766 38.7565 45.691 39.5376 46.8295C40.3186 47.968 41.3699 48.8949 42.5973 49.5272C43.8246 50.1595 45.1896 50.4775 46.5701 50.4526C47.6849 50.4754 48.793 50.2755 49.8296 49.8648C50.8662 49.454 51.8104 48.8406 52.6071 48.0604L55.9576 51.3582ZM80.8226 44.4458H59.7383C60.1604 45.8322 60.9319 47.0867 61.9786 48.089C63.0254 49.0912 64.3123 49.8074 65.7157 50.1689C67.1191 50.5304 68.5918 50.5249 69.9925 50.153C71.3932 49.7811 72.6747 49.0554 73.714 48.0454L77.0645 51.3582C75.8826 52.6008 74.4569 53.586 72.8766 54.2521C71.2963 54.9182 69.5955 55.2509 67.8807 55.2294C66.1367 55.267 64.4029 54.9522 62.7834 54.3038C61.1639 53.6555 59.6918 52.687 58.4554 51.4563C56.0011 48.9937 54.623 45.6587 54.623 42.1819C54.623 38.7051 56.0011 35.3701 58.4554 32.9075C60.2894 31.0772 62.6247 29.8315 65.1664 29.3278C67.708 28.8241 70.3419 29.0849 72.7353 30.0773C75.1288 31.0697 77.1744 32.7493 78.6138 34.9037C80.0532 37.0581 80.8219 39.5909 80.8226 42.1819V44.4458ZM75.6308 39.6539C74.4083 35.8204 71.7721 33.9036 67.7223 33.9036C63.6724 33.9036 61.0438 35.8204 59.8364 39.6539H75.6308ZM108.374 55.2294H103.605V42.1366C103.651 41.038 103.469 39.9418 103.07 38.917C102.671 37.8923 102.064 36.9613 101.288 36.1826C99.6515 34.7042 97.5245 33.8857 95.319 33.8857C93.1135 33.8857 90.9865 34.7042 89.3499 36.1826C88.5682 36.9517 87.9547 37.8746 87.5481 38.8929C87.1416 39.9113 86.9508 41.003 86.9879 42.0989V55.1917H82.1734V28.4779H87.003V32.0699C89.521 30.0151 92.7113 28.9665 95.9574 29.1268C99.2034 29.2871 102.275 30.6448 104.578 32.9377C105.815 34.1329 106.794 35.5694 107.454 37.1582C108.113 38.747 108.439 40.4543 108.412 42.1744L108.374 55.2294ZM132.711 28.4779V33.2698H114.758V38.1371C114.677 40.6984 115.194 43.2434 116.267 45.5702C116.771 46.7336 117.579 47.7402 118.605 48.485C119.631 49.2297 120.838 49.6851 122.101 49.8036C123.746 49.9621 124.976 49.615 125.768 48.7623L128.787 52.1958C127.887 53.2186 126.781 54.0393 125.542 54.6037C124.302 55.1682 122.957 55.4638 121.595 55.4709C116.695 55.4709 113.261 52.7039 111.294 47.17C110.33 44.2508 109.87 41.1883 109.936 38.1145V12.9023H114.728V28.4779H132.711ZM134.544 55.2294H129.753V28.4779H134.544V55.2294ZM161.96 55.2294H157.183V52.3694C154.836 54.2668 151.9 55.2839 148.882 55.2445C146.789 55.2424 144.727 54.7371 142.869 53.7714C141.012 52.8056 139.414 51.4076 138.21 49.6951C137.006 47.9826 136.231 46.0058 135.951 43.9313C135.67 41.8567 135.893 39.7452 136.599 37.7745C137.305 35.8039 138.475 34.0318 140.009 32.6077C141.544 31.1836 143.398 30.1491 145.416 29.5914C147.433 29.0337 149.556 28.9691 151.604 29.4031C153.652 29.837 155.565 30.7568 157.183 32.085V28.493H161.975L161.96 55.2294ZM157.183 42.1744C157.227 41.0726 157.044 39.9735 156.646 38.9453C156.247 37.9172 155.642 36.9819 154.867 36.1977C153.229 34.7144 151.096 33.896 148.886 33.903C146.677 33.91 144.549 34.7418 142.921 36.2354C141.409 37.8434 140.568 39.9674 140.568 42.1744C140.568 44.3813 141.409 46.5053 142.921 48.1133C144.081 49.3109 145.574 50.1316 147.207 50.4684C148.84 50.8053 150.536 50.6427 152.075 50.0018C153.614 49.361 154.924 48.2715 155.836 46.8754C156.747 45.4793 157.216 43.8412 157.183 42.1744ZM168.45 55.2294H163.658V14.0192H168.45V55.2294ZM181.867 55.3879C175.584 55.3879 171.617 53.1517 169.967 48.6792L175.159 47.8869C176.165 50.7645 178.401 52.2008 181.867 52.1958C184.045 52.1958 185.696 51.7707 186.817 50.9205C187.279 50.6001 187.653 50.169 187.905 49.6667C188.157 49.1644 188.278 48.6069 188.259 48.0454C188.273 47.6633 188.21 47.2822 188.073 46.9254C187.935 46.5686 187.726 46.2436 187.459 45.9701C186.584 45.2836 185.542 44.8409 184.44 44.6873C178.579 43.3591 174.932 42.2146 173.498 41.2537C172.585 40.6799 171.838 39.8757 171.333 38.922C170.829 37.9683 170.584 36.8987 170.623 35.8204C170.615 34.8033 170.841 33.7979 171.283 32.8819C171.725 31.966 172.372 31.164 173.174 30.538C174.879 29.0992 177.596 28.3798 181.324 28.3798C187.129 28.3798 190.777 30.1909 192.266 33.8131L187.368 34.7035C186.418 32.5755 184.43 31.5115 181.407 31.5115C177.382 31.5115 175.37 32.6283 175.37 34.862C175.363 35.3091 175.468 35.7508 175.676 36.1465C175.885 36.5421 176.189 36.8789 176.562 37.1259C177.352 37.7145 179.764 38.4691 183.799 39.3898C186.062 39.8038 188.256 40.5301 190.319 41.548C191.314 42.0955 192.137 42.9078 192.698 43.8949C193.259 44.882 193.535 46.0052 193.496 47.1398C193.537 48.4798 193.189 49.803 192.496 50.9503C191.802 52.0976 190.792 53.0202 189.587 53.607C187.214 54.8801 184.543 55.495 181.852 55.3879H181.867ZM136.469 20.8033C136.469 21.6555 136.216 22.4886 135.743 23.1972C135.269 23.9058 134.596 24.4581 133.809 24.7842C133.021 25.1104 132.155 25.1957 131.319 25.0294C130.483 24.8632 129.716 24.4528 129.113 23.8502C128.51 23.2476 128.1 22.4798 127.934 21.6439C127.767 20.8081 127.853 19.9417 128.179 19.1543C128.505 18.367 129.057 17.694 129.766 17.2206C130.475 16.7471 131.308 16.4944 132.16 16.4944C133.3 16.4984 134.392 16.9541 135.197 17.7618C136.002 18.5694 136.454 19.6631 136.454 20.8033H136.469Z" fill="url(#paint0_linear_2388_2945)"/>
<path d="M35.8391 0.0283203C35.8391 0.0283203 43.3854 26.0705 21.8483 29.0739C21.8483 29.0739 32.6848 19.4373 33.1074 10.2083C33.1074 10.2083 29.5606 21.2183 20.5956 27.8439C20.5956 27.8439 17.1998 18.4639 23.101 12.8947C28.6551 7.65761 33.5903 5.31826 35.8391 0.0283203ZM7.60851 25.6253C10.8383 30.2285 17.6073 28.8325 17.6073 28.8325C13.9625 22.0408 6.76332 18.5016 6.76332 18.5016C13.0418 19.7015 18.5732 28.0929 18.5732 28.0929C18.6638 13.0004 0.0546875 15.6114 0.0546875 15.6114C3.45806 17.6564 4.56736 21.2937 7.60851 25.6253Z" fill="url(#paint1_linear_2388_2945)"/>
<defs>
<linearGradient id="paint0_linear_2388_2945" x1="5.94095" y1="34.1828" x2="193.511" y2="34.1828" gradientUnits="userSpaceOnUse">
<stop stop-color="#CB3F04"/>
<stop offset="1" stop-color="#F69B2E"/>
</linearGradient>
<linearGradient id="paint1_linear_2388_2945" x1="0.0546875" y1="14.5549" x2="37.1295" y2="14.5549" gradientUnits="userSpaceOnUse">
<stop stop-color="#033A64"/>
<stop offset="1" stop-color="#0097F7"/>
</linearGradient>
</defs>
</svg>
