<svg width="188" height="44" viewBox="0 0 188 44" fill="none" xmlns="http://www.w3.org/2000/svg">
<path d="M26.5869 32.4175H5.45736C5.88061 33.8039 6.65303 35.0583 7.70052 36.0603C8.748 37.0624 10.0354 37.7784 11.4392 38.1398C12.8431 38.5012 14.3162 38.4957 15.7173 38.124C17.1184 37.7523 18.4005 37.0268 19.4406 36.017L22.7911 39.3299C21.6089 40.5721 20.1831 41.5571 18.6029 42.2232C17.0227 42.8893 15.3221 43.2222 13.6073 43.2011C11.8633 43.2387 10.1295 42.9238 8.50999 42.2755C6.89045 41.6272 5.41841 40.6587 4.18204 39.428C1.72773 36.9654 0.349609 33.6304 0.349609 30.1536C0.349609 26.6768 1.72773 23.3418 4.18204 20.8792C6.01604 19.0489 8.35134 17.8032 10.893 17.2995C13.4346 16.7957 16.0685 17.0566 18.4619 18.049C20.8554 19.0414 22.901 20.7209 24.3404 22.8754C25.7798 25.0298 26.5485 27.5625 26.5492 30.1536L26.5869 32.4175ZM21.3951 27.6256C20.1676 23.7921 17.5314 21.8753 13.4866 21.8753C9.44179 21.8753 6.80563 23.7921 5.5781 27.6256H21.3951ZM50.4029 39.3299C48.8927 40.8743 47.0238 42.0211 44.9628 42.6681C42.9019 43.315 40.7128 43.4419 38.5909 43.0376C36.4689 42.6332 34.48 41.7101 32.8014 40.3506C31.1228 38.991 29.8066 37.2372 28.9702 35.2456C28.1338 33.254 27.8032 31.0863 28.0079 28.9359C28.2125 26.7855 28.946 24.7191 30.143 22.921C31.34 21.1228 32.9634 19.6488 34.8683 18.6303C36.7732 17.6117 38.9005 17.0803 41.0607 17.0834C42.7551 17.0562 44.437 17.377 46.0024 18.026C47.5679 18.675 48.9834 19.6384 50.1615 20.8566L46.7958 24.2071C45.8244 23.226 44.6248 22.5013 43.3044 22.0977C41.9841 21.6942 40.5842 21.6245 39.2303 21.8949C37.8764 22.1654 36.6107 22.7674 35.5467 23.6472C34.4827 24.527 33.6535 25.657 33.1335 26.936C32.6135 28.2149 32.4189 29.6029 32.5671 30.9756C32.7154 32.3483 33.2018 33.6627 33.9829 34.8012C34.764 35.9396 35.8153 36.8666 37.0426 37.4989C38.2699 38.1312 39.635 38.4492 41.0154 38.4243C42.1302 38.4471 43.2383 38.2472 44.2749 37.8364C45.3115 37.4257 46.2558 36.8123 47.0524 36.0321L50.4029 39.3299ZM75.2679 32.4175H54.1836C54.6057 33.8038 55.3772 35.0584 56.4239 36.0606C57.4707 37.0629 58.7576 37.7791 60.161 38.1406C61.5644 38.502 63.0371 38.4966 64.4378 38.1247C65.8385 37.7528 67.12 37.027 68.1593 36.017L71.5099 39.3299C70.3279 40.5725 68.9022 41.5577 67.3219 42.2238C65.7416 42.8899 64.0409 43.2226 62.326 43.2011C60.582 43.2387 58.8482 42.9238 57.2287 42.2755C55.6092 41.6272 54.1371 40.6587 52.9008 39.428C50.4464 36.9654 49.0683 33.6304 49.0683 30.1536C49.0683 26.6768 50.4464 23.3418 52.9008 20.8792C54.7348 19.0489 57.0701 17.8032 59.6117 17.2995C62.1533 16.7957 64.7872 17.0566 67.1806 18.049C69.5741 19.0414 71.6197 20.7209 73.0591 22.8754C74.4986 25.0298 75.2672 27.5625 75.2679 30.1536V32.4175ZM70.0761 27.6256C68.8536 23.7921 66.2174 21.8753 62.1676 21.8753C58.1177 21.8753 55.4891 23.7921 54.2817 27.6256H70.0761ZM102.819 43.2011H98.0501V30.1083C98.096 29.0097 97.9139 27.9135 97.5152 26.8887C97.1165 25.864 96.5098 24.9329 95.7334 24.1543C94.0968 22.6759 91.9698 21.8574 89.7643 21.8574C87.5588 21.8574 85.4318 22.6759 83.7952 24.1543C83.0135 24.9233 82.4 25.8462 81.9934 26.8646C81.5869 27.883 81.3961 28.9747 81.4332 30.0706V43.1634H76.6187V16.4495H81.4483V20.0416C83.9663 17.9868 87.1566 16.9382 90.4027 17.0985C93.6488 17.2588 96.7202 18.6165 99.0236 20.9094C100.261 22.1046 101.239 23.541 101.899 25.1299C102.558 26.7187 102.884 28.426 102.857 30.146L102.819 43.2011ZM127.156 16.4495V21.2414H109.203V26.1088C109.122 28.6701 109.639 31.215 110.713 33.5419C111.217 34.7053 112.024 35.7119 113.05 36.4566C114.076 37.2014 115.284 37.6568 116.546 37.7753C118.191 37.9338 119.421 37.5867 120.213 36.7339L123.232 40.1675C122.333 41.1903 121.227 42.0109 119.987 42.5754C118.747 43.1399 117.402 43.4355 116.04 43.4426C111.14 43.4426 107.707 40.6756 105.74 35.1417C104.775 32.2225 104.315 29.16 104.381 26.0861V0.874023H109.173V16.4495H127.156ZM128.99 43.2011H124.198V16.4495H128.99V43.2011ZM156.405 43.2011H151.629V40.3411C149.282 42.2385 146.345 43.2556 143.328 43.2162C141.234 43.2141 139.172 42.7088 137.315 41.743C135.457 40.7773 133.859 39.3792 132.655 37.6668C131.451 35.9543 130.676 33.9775 130.396 31.903C130.116 29.8284 130.338 27.7169 131.044 25.7462C131.751 23.7756 132.92 22.0035 134.455 20.5794C135.989 19.1553 137.843 18.1208 139.861 17.5631C141.879 17.0054 144.001 16.9408 146.049 17.3747C148.097 17.8087 150.01 18.7285 151.629 20.0567V16.4646H156.42L156.405 43.2011ZM151.629 30.146C151.673 29.0442 151.49 27.9451 151.091 26.917C150.693 25.8889 150.087 24.9536 149.312 24.1694C147.674 22.6861 145.541 21.8677 143.332 21.8747C141.122 21.8817 138.995 22.7135 137.366 24.2071C135.854 25.8151 135.013 27.9391 135.013 30.146C135.013 32.353 135.854 34.477 137.366 36.085C138.526 37.2826 140.019 38.1033 141.652 38.4401C143.285 38.777 144.981 38.6144 146.52 37.9735C148.059 37.3326 149.37 36.2432 150.281 34.8471C151.192 33.451 151.662 31.8128 151.629 30.146ZM162.895 43.2011H158.103V1.99087H162.895V43.2011ZM176.312 43.3596C170.029 43.3596 166.062 41.1234 164.412 36.6509L169.604 35.8586C170.61 38.7362 172.846 40.1725 176.312 40.1675C178.491 40.1675 180.141 39.7424 181.263 38.8922C181.724 38.5718 182.098 38.1407 182.35 37.6384C182.602 37.1361 182.724 36.5786 182.704 36.017C182.719 35.6349 182.655 35.2539 182.518 34.8971C182.38 34.5403 182.172 34.2153 181.904 33.9418C181.029 33.2552 179.987 32.8126 178.886 32.659C173.025 31.3308 169.377 30.1863 167.944 29.2254C167.03 28.6515 166.283 27.8474 165.779 26.8937C165.274 25.94 165.029 24.8703 165.069 23.7921C165.06 22.775 165.286 21.7696 165.728 20.8536C166.17 19.9376 166.817 19.1357 167.619 18.5097C169.325 17.0709 172.041 16.3514 175.769 16.3514C181.575 16.3514 185.222 18.1625 186.711 21.7848L181.814 22.6752C180.863 20.5472 178.876 19.4831 175.852 19.4831C171.827 19.4831 169.815 20.6 169.815 22.8337C169.808 23.2808 169.913 23.7225 170.122 24.1182C170.33 24.5138 170.635 24.8506 171.007 25.0976C171.797 25.6862 174.21 26.4408 178.244 27.3615C180.507 27.7754 182.701 28.5018 184.764 29.5197C185.759 30.0671 186.582 30.8795 187.143 31.8666C187.704 32.8537 187.98 33.9769 187.941 35.1115C187.982 36.4515 187.635 37.7747 186.941 38.922C186.248 40.0693 185.238 40.9918 184.032 41.5786C181.659 42.8518 178.988 43.4667 176.297 43.3596H176.312ZM130.914 8.77498C130.914 9.6272 130.661 10.4603 130.188 11.1689C129.714 11.8775 129.041 12.4298 128.254 12.7559C127.467 13.082 126.6 13.1674 125.765 13.0011C124.929 12.8348 124.161 12.4245 123.558 11.8218C122.956 11.2192 122.545 10.4515 122.379 9.61561C122.213 8.77976 122.298 7.91338 122.624 7.12603C122.95 6.33867 123.503 5.6657 124.211 5.19223C124.92 4.71876 125.753 4.46606 126.605 4.46606C127.745 4.47005 128.837 4.92579 129.642 5.73344C130.447 6.54108 130.899 7.63479 130.899 8.77498H130.914Z" fill="url(#paint0_linear_1_14179)"/>
<defs>
<linearGradient id="paint0_linear_1_14179" x1="0.386267" y1="22.1545" x2="187.956" y2="22.1545" gradientUnits="userSpaceOnUse">
<stop stop-color="#CB3F04"/>
<stop offset="1" stop-color="#F69B2E"/>
</linearGradient>
</defs>
</svg>
